<?xml version="1.0" encoding="UTF-8"?> <svg xmlns="http://www.w3.org/2000/svg" width="48" height="48" viewBox="0 0 48 48" fill="none"><path d="M20.1672 18.8561C23.4046 20.9719 27.7403 20.0701 29.8561 16.8328C31.9719 13.5954 31.0701 9.25974 27.8328 7.14392C24.5954 5.0281 20.2597 5.92993 18.1439 9.16725C16.0281 12.4046 16.9299 16.7403 20.1672 18.8561Z" fill="#0094F9"></path><path d="M11 26C11 23.7909 12.7909 22 15 22H33C35.2091 22 37 23.7909 37 26V38H11V26Z" fill="url(#paint0_linear_5880_51308)"></path><circle cx="32.5" cy="33.5" r="6.5" fill="#FF5534"></circle><path d="M34 33L34 38L31 38L31 33L34 33Z" fill="white"></path><circle cx="32.5" cy="30.5" r="1.5" fill="white"></circle><path d="M20 22L24 29L28 22H20Z" fill="#0094F9"></path><defs><linearGradient id="paint0_linear_5880_51308" x1="25.2595" y1="22" x2="25.2595" y2="38.7619" gradientUnits="userSpaceOnUse"><stop stop-color="#5CBAF6"></stop><stop offset="1" stop-color="#D6EAFF"></stop></linearGradient></defs></svg> 