<?xml version="1.0" encoding="UTF-8"?> <svg xmlns="http://www.w3.org/2000/svg" width="40" height="40" viewBox="0 0 40 40" fill="none"><rect width="40" height="40" rx="10" fill="#F0F5F7"></rect><rect x="8" y="9" width="24" height="7" fill="#005DC7"></rect><path d="M8 17H32V32H10C8.89543 32 8 31.1046 8 30V17Z" fill="url(#paint0_linear_23077_358766)"></path><path d="M16 8L16 10C16 11.1046 15.1046 12 14 12V12L14 8L16 8Z" fill="url(#paint1_linear_23077_358766)"></path><path d="M26 8L26 10C26 11.1046 25.1046 12 24 12V12L24 8L26 8Z" fill="url(#paint2_linear_23077_358766)"></path><rect x="11" y="22" width="4" height="4" fill="white"></rect><rect x="18" y="22" width="4" height="4" fill="white"></rect><rect x="25" y="22" width="4" height="4" fill="#FF5534"></rect><defs><linearGradient id="paint0_linear_23077_358766" x1="21.1626" y1="17" x2="21.1626" y2="32.7143" gradientUnits="userSpaceOnUse"><stop stop-color="#5CBAF6"></stop><stop offset="1" stop-color="#D6EAFF"></stop></linearGradient><linearGradient id="paint1_linear_23077_358766" x1="6.5" y1="6" x2="14" y2="10" gradientUnits="userSpaceOnUse"><stop stop-color="#5CBAF6"></stop><stop offset="1" stop-color="#D6EAFF"></stop></linearGradient><linearGradient id="paint2_linear_23077_358766" x1="17" y1="7" x2="24" y2="9.5" gradientUnits="userSpaceOnUse"><stop stop-color="#5CBAF6"></stop><stop offset="1" stop-color="#D6EAFF"></stop></linearGradient></defs></svg> 