<?xml version="1.0" encoding="UTF-8"?> <svg xmlns="http://www.w3.org/2000/svg" width="48" height="48" viewBox="0 0 48 48" fill="none"><path d="M24 23.25L27.75 27L33.75 21" stroke="white" stroke-width="2"></path><path d="M8 22.3239C7.99813 28.6925 14.6435 32.4079 20.0714 28.4286V24.7143L15.3701 21.9276L16.3571 20.5357L20.0714 22.8571L20.0268 16.3571H21.9286V20.0714L26.1071 17.2857L27.0357 18.6786L21.9286 21.9286V28.4286C28.9186 32.4079 34 27.4987 34 22.3239C34 17.149 30.8974 15.1628 29.3451 14.3669C28.569 12.1125 26.1678 7.99831 21.1909 8C16.1462 8.00171 13.4347 12.2447 12.6586 14.3669C12.6586 14.3669 8.00187 15.9552 8 22.3239Z" fill="url(#paint0_linear_1181_1750)"></path><rect x="20" y="28" width="2" height="10" fill="url(#paint1_linear_1181_1750)"></rect><path d="M12 25.5746C11.998 32.4994 19.1546 36.3268 25 32V28.1738L19.937 25.1438L21 23.6304L25 26.1545L24.9519 19.0869H27V23.1255L31.5 20.0966L32.5 21.611L27 25.1448V32C34.5277 36.3268 40 31.2014 40 25.5746C40 19.9479 36.6587 17.7883 34.9871 16.9229C34.1513 14.4717 31.5653 9.99816 26.2056 10C20.7728 10.0019 17.8527 14.6153 17.0169 16.9229C17.0169 16.9229 12.002 18.6499 12 25.5746Z" fill="#0094F9"></path><rect x="25" y="32" width="2" height="8" fill="#0094F9"></rect><defs><linearGradient id="paint0_linear_1181_1750" x1="22.2595" y1="8" x2="22.2595" y2="31.1237" gradientUnits="userSpaceOnUse"><stop stop-color="#5CBAF6"></stop><stop offset="1" stop-color="#D6EAFF"></stop></linearGradient><linearGradient id="paint1_linear_1181_1750" x1="21.0969" y1="28" x2="21.0969" y2="38.4762" gradientUnits="userSpaceOnUse"><stop stop-color="#5CBAF6"></stop><stop offset="1" stop-color="#D6EAFF"></stop></linearGradient></defs></svg> 