<?xml version="1.0" encoding="UTF-8"?> <svg xmlns="http://www.w3.org/2000/svg" viewBox="1950 2450 100 100" width="100" height="100"><path fill="#fffbfb" stroke="none" fill-opacity="1" stroke-width="1" stroke-opacity="1" color="rgb(51, 51, 51)" fill-rule="evenodd" font-size-adjust="none" id="tSvg1170615a59" title="Path 8" d="M 2017.146 2510.672 C 2014.263 2508.317 2010.164 2508.422 2007.404 2510.719 C 2001.3166666666666 2505.876 1995.2293333333334 2501.033 1989.142 2496.19 C 1989.374657972441 2495.3070494108993 1989.4474717500627 2494.3895958052813 1989.357 2493.4809999999998 C 1989.1580877605022 2491.4576582261366 1988.1577132713116 2489.598070809857 1986.579 2488.317 C 1983.307 2485.646 1978.471 2486.136 1975.8 2489.408 C 1973.401 2492.347 1973.559 2496.542 1975.986 2499.303 C 1972.2133333333334 2503.6006666666667 1968.4406666666666 2507.8983333333335 1964.668 2512.196 C 1963.111029918804 2510.9497030002935 1961.1254271722419 2510.3676044683057 1959.142 2510.576 C 1957.1187790587585 2510.7745503533897 1955.2591764490494 2511.7745728948375 1953.978 2513.353 C 1951.307 2516.626 1951.797 2521.461 1955.069 2524.132 C 1956.6400599484962 2525.422754977588 1958.6627214005273 2526.0303457831405 1960.685 2525.819 C 1962.7083417488918 2525.620087742093 1964.5679292069972 2524.619713255303 1965.849 2523.041 C 1967.1387928884278 2521.4698184608974 1967.7462775082709 2519.447870543178 1967.536 2517.426 C 1967.4334289654144 2516.402594256529 1967.1252713964102 2515.4104357308224 1966.63 2514.509 C 1970.549 2510.0446666666667 1974.468 2505.5803333333333 1978.387 2501.116 C 1979.4261681772919 2501.631247234607 1980.5691300517287 2501.9027946850265 1981.729 2501.91 C 1984.0321298024398 2501.914599351904 1986.214761314884 2500.8813197395357 1987.671 2499.097 C 1987.712 2499.047 1987.745 2498.994 1987.784 2498.943 C 1993.6943333333334 2503.6453333333334 1999.6046666666666 2508.3476666666666 2005.515 2513.05 C 2003.86 2516.205 2004.592 2520.203 2007.457 2522.542 C 2008.8219129679146 2523.657686669713 2010.531121836667 2524.2661762812977 2012.294 2524.264 C 2014.518 2524.264 2016.724 2523.304 2018.2359999999999 2521.451 C 2019.5257928884278 2519.8798184608972 2020.1332775082708 2517.8578705431783 2019.923 2515.836C 2019.7240144578966 2513.8129116076725 2018.724076570592 2511.9534664359576 2017.146 2510.672Z M 1963.524 2521.145 C 1962.744687819112 2522.1056937260914 1961.6131367102435 2522.714325597899 1960.382 2522.835 C 1959.151621001722 2522.9637541180746 1957.9209439744377 2522.5942268589783 1956.965 2521.809 C 1954.9737753027166 2520.179338944555 1954.6767854749573 2517.2456698442743 1956.301 2515.25 C 1957.9303155932691 2513.258685398754 1960.8640913908412 2512.9620868377947 1962.859 2514.587 C 1963.0456074384724 2514.7457833416292 1963.2197831881035 2514.9186218490277 1963.38 2515.104 C 1963.463 2515.266 1963.575 2515.417 1963.721 2515.545 C 1964.17 2516.188 1964.468 2516.927 1964.55 2517.729C 1964.6785929432194 2518.9590564908353 1964.3090688014381 2520.189362991141 1963.524 2521.145Z M 1985.346 2497.2 C 1984.5663452155247 2498.1597594300265 1983.4355137108957 2498.7681978909145 1982.205 2498.89 C 1980.9747170473895 2499.017734501702 1979.7444254822556 2498.648322984045 1978.788 2497.864 C 1976.7963717080002 2496.2349802006925 1976.499322523089 2493.3011721369467 1978.124 2491.306 C 1979.7527378294958 2489.3138470052504 1982.686998937728 2489.016751947162 1984.682 2490.642 C 1985.6426937348342 2491.421312189312 1986.251325607031 2492.5528632767064 1986.372 2493.784C 1986.500025996073 2495.014003084153 1986.1305662519367 2496.244095172615 1985.346 2497.2Z M 2015.912 2519.554 C 2014.282980200716 2521.545628295749 2011.3491721381201 2521.842677480042 2009.354 2520.218 C 2007.3622510888786 2518.588620552827 2007.065215458563 2515.6544990107063 2008.69 2513.659 C 2009.575920430422 2512.5734654414923 2010.9038465519677 2511.944950111238 2012.305 2511.948 C 2013.3776462166613 2511.9466594059904 2014.417624066352 2512.3169952046355 2015.248 2512.996C 2017.2396282919997 2514.6250197993077 2017.5366774769109 2517.5588278630535 2015.912 2519.554Z M 2024.066 2504.22 C 2023.4176486484516 2503.7052979979867 2022.4749891979802 2503.812672591729 2021.959 2504.46 C 2021.201 2505.413666666667 2020.443 2506.367333333333 2019.685 2507.321 C 2018.955924715094 2508.21642311913 2019.4695766220354 2509.5653097165414 2020.609573432791 2509.748995874976 C 2021.1509212822345 2509.83622252851 2021.6967261290965 2509.621111841135 2022.033 2509.188 C 2022.791 2508.2343333333333 2023.549 2507.2806666666665 2024.307 2506.327C 2024.8220451641193 2505.678550017267 2024.7141671812421 2504.735401015085 2024.066 2504.22Z M 2033.519 2492.34 C 2032.8708128549774 2491.824724691651 2031.9277002641998 2491.9321509003857 2031.412 2492.58 C 2029.8366666666666 2494.56 2028.2613333333334 2496.54 2026.686 2498.52 C 2025.967006474021 2499.423745628732 2026.4959688607692 2500.766919971033 2027.6381322967995 2500.937713815322 C 2028.168212182052 2501.016979512792 2028.700313941676 2500.8074297915323 2029.034 2500.388 C 2030.6093333333333 2498.408 2032.1846666666665 2496.428 2033.76 2494.448C 2034.2745774885163 2493.7990611692153 2034.1667666944277 2492.856052233188 2033.519 2492.34Z M 2040.521 2483.539 C 2039.8728128549774 2483.0237246916513 2038.9297002641997 2483.131150900386 2038.414 2483.779 C 2037.6553333333334 2484.732666666667 2036.8966666666668 2485.6863333333336 2036.138 2486.64 C 2035.419006474021 2487.543745628732 2035.9479688607692 2488.886919971033 2037.0901322967995 2489.0577138153217 C 2037.620212182052 2489.136979512792 2038.1523139416759 2488.9274297915326 2038.4859999999999 2488.508 C 2039.2446666666667 2487.5543333333335 2040.0033333333333 2486.6006666666667 2040.762 2485.647C 2041.2765774885163 2484.9980611692154 2041.1687666944276 2484.0550522331882 2040.521 2483.539Z"></path><path fill="#ffffff" stroke="none" fill-opacity="1" stroke-width="1" stroke-opacity="1" color="rgb(51, 51, 51)" fill-rule="evenodd" font-size-adjust="none" id="tSvg10721859287" title="Path 9" d="M 2047.114 2474.403 C 2046.7098090206096 2474.1159085061804 2046.1897561628375 2474.0473918230537 2045.725 2474.22 C 2041.9806666666666 2475.6073333333334 2038.2363333333333 2476.9946666666665 2034.492 2478.382 C 2033.408890898655 2478.7834508970373 2033.1665310508245 2480.2068577050254 2034.055752276703 2480.9441322533416 C 2034.468441277911 2481.2863025570923 2035.0323273212468 2481.382313999801 2035.535 2481.196 C 2038.5933333333332 2480.063 2041.6516666666666 2478.93 2044.71 2477.797 C 2044.6536666666666 2481.058 2044.5973333333334 2484.319 2044.541 2487.58 C 2044.5270742447233 2488.4086411125113 2045.1873642039227 2489.091761409353 2046.016 2489.106 C 2046.0246666666667 2489.106 2046.0333333333333 2489.106 2046.042 2489.106 C 2046.8599889262778 2489.10557653759 2047.526821633261 2488.4498661484313 2047.541 2487.632 C 2047.6096666666667 2483.6393333333335 2047.6783333333333 2479.6466666666665 2047.747 2475.654C 2047.7558555580783 2475.157980575896 2047.5188905637758 2474.6896658705928 2047.114 2474.403Z"></path><defs> </defs></svg> 