<?xml version="1.0" encoding="UTF-8"?> <svg xmlns="http://www.w3.org/2000/svg" width="188" height="160" viewBox="0 0 188 160" fill="none"><g clip-path="url(#clip0_3406_1037)"><rect width="188" height="160" fill="white"></rect><path d="M188 0H0V160H188V0Z" fill="white"></path><path d="M73.0164 47.3092C70.8711 37.8926 65.4787 30.2499 64.7455 29C63.5739 30.7583 59.2716 37.5044 57.0991 45.0074C54.9185 52.49 54.2693 60.3358 55.1904 68.0753C56.0051 75.3765 59.0698 82.8717 59.0698 82.8717C60.707 86.8076 63.1665 91.0229 64.7649 93.0957C67.0925 90.0487 72.4888 80.9581 74.1686 69.0884C75.123 62.4937 75.1773 56.7141 73.0164 47.3092ZM64.7455 90.759C63.6941 88.7639 62.0531 84.9794 61.898 79.1144C61.8553 73.4551 64.1209 68.611 64.7843 67.5979C65.3739 68.611 67.3214 72.8302 67.5542 78.6059C67.6639 82.8298 66.6973 87.0121 64.7455 90.759ZM72.3919 63.2739C72.3465 66.5138 71.9944 69.7421 71.3405 72.9156C71.4807 68.3187 71.0902 63.7211 70.1767 59.2138C69.2767 54.9208 66.7434 47.74 64.7144 44.4174C62.8445 47.5809 60.5401 53.7874 59.3298 59.1672C58.1194 64.547 58.0806 71.0719 58.0806 73.0243C57.3444 68.5876 57.0443 64.0894 57.1844 59.5942C57.4053 55.4789 58.0554 51.3979 59.1241 47.4178C61.5061 39.7363 64.1985 34.8184 64.7028 34.0382C67.1103 38.1949 69.0106 42.6257 70.3629 47.2354C71.7768 52.4621 72.4596 57.8596 72.3919 63.2739Z" fill="#0072BB"></path><path d="M68.3916 95.2845H52.063V106.25L52.1018 106.203C53.0143 105.276 54.1011 104.539 55.2996 104.035C56.498 103.53 57.7845 103.268 59.0847 103.263C60.385 103.258 61.6734 103.511 62.8756 104.006C64.0779 104.502 65.1702 105.23 66.0896 106.15C67.0091 107.07 67.7374 108.163 68.2328 109.366C68.7281 110.569 68.9806 111.858 68.9757 113.159C68.9708 114.46 68.7086 115.747 68.2042 116.946C67.6998 118.145 66.9632 119.233 66.0368 120.146L65.9864 120.188L65.9282 120.243C62.461 123.682 57.8399 125.709 52.9626 125.93C48.0852 126.151 43.2999 124.55 39.5362 121.439C35.7724 118.327 33.299 113.927 32.5965 109.093C31.8939 104.259 33.0123 99.3359 35.7344 95.2806C36.4449 94.2313 37.2529 93.2514 38.1475 92.354C39.9727 90.5225 42.1417 89.0701 44.5298 88.0802C46.918 87.0904 49.4781 86.5826 52.063 86.586V60.2266C46.2508 60.2249 40.5294 61.6697 35.4141 64.4308C30.2988 67.192 25.9503 71.1828 22.7601 76.0439C19.5699 80.905 17.6383 86.4837 17.1392 92.2776C16.6401 98.0714 17.5892 103.899 19.901 109.234C22.2128 114.57 25.8147 119.246 30.3823 122.842C34.95 126.439 40.3399 128.841 46.0667 129.835C51.7935 130.828 57.6774 130.381 63.1883 128.533C68.6993 126.685 73.6644 123.495 77.6364 119.249V95.2845H68.3916Z" fill="#0072BB"></path><path d="M100.394 95.3008H109.51V130.382H102.5V108.382H102.252L98.6439 130.382H93.0226L89.4147 108.382H89.1664V130.382H82.1602V95.3008H91.2769L95.8352 119.96L100.394 95.3008Z" fill="#0072BB"></path><path d="M113.421 101.55C113.421 99.0929 113.723 95.2852 118.631 95.2852H124.45C129.358 95.2852 129.66 99.0929 129.66 101.55V124.102C129.66 126.559 129.358 130.366 124.45 130.366H118.627C113.72 130.366 113.417 126.559 113.417 124.102L113.421 101.55ZM122.638 100.296C122.644 100.147 122.62 99.9981 122.567 99.8583C122.515 99.7185 122.435 99.5906 122.332 99.4822C122.23 99.3737 122.106 99.2868 121.97 99.2267C121.833 99.1665 121.686 99.1342 121.537 99.1318C121.386 99.1286 121.236 99.1571 121.097 99.2153C120.957 99.2736 120.832 99.3603 120.728 99.47C120.624 99.5796 120.545 99.7098 120.494 99.8521C120.444 99.9944 120.424 100.146 120.435 100.296V125.355C120.424 125.506 120.444 125.657 120.494 125.799C120.545 125.942 120.624 126.072 120.728 126.182C120.832 126.291 120.957 126.378 121.097 126.436C121.236 126.494 121.386 126.523 121.537 126.52C121.686 126.517 121.833 126.485 121.97 126.425C122.106 126.365 122.23 126.278 122.332 126.169C122.435 126.061 122.515 125.933 122.567 125.793C122.62 125.653 122.644 125.505 122.638 125.355V100.296Z" fill="#0072BB"></path><path d="M140.574 118.105V125.371C140.562 125.522 140.581 125.673 140.632 125.816C140.682 125.958 140.762 126.089 140.865 126.198C140.969 126.308 141.095 126.395 141.235 126.453C141.374 126.511 141.524 126.539 141.675 126.535C141.824 126.532 141.971 126.5 142.108 126.439C142.244 126.379 142.367 126.292 142.47 126.184C142.572 126.075 142.652 125.948 142.705 125.808C142.758 125.669 142.782 125.52 142.777 125.371V114.243H137.117V110.384H142.777V100.312C142.782 100.163 142.758 100.014 142.705 99.8744C142.652 99.7349 142.572 99.6072 142.47 99.4988C142.367 99.3905 142.244 99.3036 142.108 99.2433C141.971 99.1829 141.824 99.1503 141.675 99.1473C141.524 99.1435 141.374 99.1716 141.235 99.2296C141.095 99.2877 140.969 99.3744 140.865 99.4842C140.762 99.594 140.682 99.7244 140.632 99.8669C140.581 100.009 140.562 100.161 140.574 100.312V106.522H133.56V101.55C133.56 99.0929 133.862 95.2852 138.77 95.2852H144.589C149.496 95.2852 149.799 99.0929 149.799 101.55V124.102C149.799 126.559 149.496 130.366 144.589 130.366H138.77C133.862 130.366 133.56 126.559 133.56 124.102V118.105H140.574Z" fill="#0072BB"></path><path d="M153.697 95.3008H160.707V110.384H160.96L163.264 95.3008H170.278L166.732 112.139L171 130.382H163.966L160.96 114.243H160.707V130.382H153.697V95.3008Z" fill="#0072BB"></path></g><defs><clipPath id="clip0_3406_1037"><rect width="188" height="160" fill="white"></rect></clipPath></defs></svg> 