<?xml version="1.0" encoding="UTF-8"?> <svg xmlns="http://www.w3.org/2000/svg" width="48" height="48" viewBox="0 0 48 48" fill="none"><path d="M24 11L40 24L24.5 32L8 24L24 11Z" fill="url(#paint0_linear_5880_51322)"></path><path d="M15 32V8H27L33 14V34H17C15.8954 34 15 33.1046 15 32Z" fill="#0094F9"></path><path d="M27 12V8L33 14H29C27.8954 14 27 13.1046 27 12Z" fill="#FF5534"></path><path d="M20 20V18H28V20H20Z" fill="white"></path><path d="M20 24V22H25V24H20Z" fill="white"></path><path d="M11 40C9.34315 40 8 38.6569 8 37V24L24.5 30L40 24V40H11Z" fill="url(#paint1_linear_5880_51322)"></path><defs><linearGradient id="paint0_linear_5880_51322" x1="25.5502" y1="11" x2="25.5502" y2="33" gradientUnits="userSpaceOnUse"><stop stop-color="#5CBAF6"></stop><stop offset="1" stop-color="#D6EAFF"></stop></linearGradient><linearGradient id="paint1_linear_5880_51322" x1="25.5502" y1="24" x2="25.5502" y2="40.7619" gradientUnits="userSpaceOnUse"><stop stop-color="#5CBAF6"></stop><stop offset="1" stop-color="#D6EAFF"></stop></linearGradient></defs></svg> 