<?xml version="1.0" encoding="UTF-8"?> <svg xmlns="http://www.w3.org/2000/svg" width="40" height="40" viewBox="0 0 40 40" fill="none"><rect width="40" height="40" rx="8" fill="white"></rect><path d="M16.7148 17.0195C19.4896 18.8331 23.2059 18.0601 25.0195 15.2852C26.8331 12.5104 26.0601 8.79406 23.2852 6.9805C20.5104 5.16694 16.7941 5.93994 14.9805 8.71478C13.1669 11.4896 13.9399 15.2059 16.7148 17.0195Z" fill="#0094F9"></path><path d="M10 25C10 22.7909 11.7909 21 14 21H26C28.2091 21 30 22.7909 30 25V34H10V25Z" fill="url(#paint0_linear_20013_289396)"></path><path d="M17 21L20 26L23 21H17Z" fill="#FF5534"></path><defs><linearGradient id="paint0_linear_20013_289396" x1="20.9689" y1="21" x2="20.9689" y2="34.619" gradientUnits="userSpaceOnUse"><stop stop-color="#5CBAF6"></stop><stop offset="1" stop-color="#D6EAFF"></stop></linearGradient></defs></svg> 