<?xml version="1.0" encoding="UTF-8"?> <svg xmlns="http://www.w3.org/2000/svg" width="48" height="48" viewBox="0 0 48 48" fill="none"><path d="M8 33V10H29L29 36H11C9.34315 36 8 34.6569 8 33Z" fill="url(#paint0_linear_5880_51315)"></path><path d="M13 35V8H31L37 14V38L16 38C14.3431 38 13 36.6569 13 35Z" fill="#0094F9"></path><path d="M31 12V8L34 11L37 14H33C31.8954 14 31 13.1046 31 12Z" fill="url(#paint1_linear_5880_51315)"></path><path d="M18 20V18H28V20H18Z" fill="white"></path><path d="M18 24V22H24V24H18Z" fill="white"></path><circle cx="33" cy="33" r="7" fill="#FF5534"></circle><path d="M37 33L33 37V35L35 33L33 31V29L37 33Z" fill="white"></path><path d="M29 32H36V34H29V32Z" fill="white"></path><defs><linearGradient id="paint0_linear_5880_51315" x1="19.5173" y1="10" x2="19.5173" y2="37.2381" gradientUnits="userSpaceOnUse"><stop stop-color="#5CBAF6"></stop><stop offset="1" stop-color="#D6EAFF"></stop></linearGradient><linearGradient id="paint1_linear_5880_51315" x1="34.2907" y1="8" x2="34.2907" y2="14.2857" gradientUnits="userSpaceOnUse"><stop stop-color="#5CBAF6"></stop><stop offset="1" stop-color="#D6EAFF"></stop></linearGradient></defs></svg> 