<?xml version="1.0" encoding="UTF-8"?> <svg xmlns="http://www.w3.org/2000/svg" width="48" height="48" viewBox="0 0 48 48" fill="none"><path d="M20.1672 18.8561C23.4046 20.9719 27.7403 20.0701 29.8561 16.8328C31.9719 13.5954 31.0701 9.25974 27.8328 7.14392C24.5954 5.0281 20.2597 5.92993 18.1439 9.16725C16.0281 12.4046 16.9299 16.7403 20.1672 18.8561Z" fill="#0094F9"></path><path d="M11 29C11 26.7909 12.7909 25 15 25H33C35.2091 25 37 26.7909 37 29V42H11V29Z" fill="#0094F9"></path><path d="M20 25L24 32L28 25H20Z" fill="white"></path><rect x="31" y="29" width="1" height="13" fill="url(#paint0_linear_325_5293)"></rect><path d="M31 30L42 24L31 18L31 30Z" fill="#FF5534"></path><defs><linearGradient id="paint0_linear_325_5293" x1="31.5484" y1="29" x2="31.5484" y2="42.619" gradientUnits="userSpaceOnUse"><stop stop-color="#5CBAF6"></stop><stop offset="1" stop-color="#D6EAFF"></stop></linearGradient></defs></svg> 