<?xml version="1.0" encoding="UTF-8"?> <svg xmlns="http://www.w3.org/2000/svg" width="40" height="40" viewBox="0 0 40 40" fill="none"><path fill-rule="evenodd" clip-rule="evenodd" d="M8.5 12L13.6432 23.7992C13.9611 24.5285 14.681 25 15.4766 25H26.872C27.6598 25 28.3742 24.5375 28.6967 23.8188L34 12H11.5L10.2609 10H6C6 11.1046 6.89543 12 8 12H8.5ZM17 28H27C27 26.8954 26.1046 26 25 26H15.9231H15C15 27.1046 15.8954 28 17 28Z" fill="#0094F9"></path><circle cx="25.5" cy="30.5" r="1.5" fill="#FF5534"></circle><circle cx="17.5" cy="30.5" r="1.5" fill="#FF5534"></circle><path d="M16 17V15H25.9996V16C25.9996 16.5523 25.5519 17 24.9996 17H16Z" fill="white"></path><path d="M18 20V18H24V19C24 19.5523 23.5523 20 23 20H18Z" fill="white"></path></svg> 