<?xml version="1.0" encoding="UTF-8"?> <svg xmlns="http://www.w3.org/2000/svg" viewBox="1950 2450 100 100" width="100" height="100"><path fill="#ffffff" stroke="none" fill-opacity="1" stroke-width="1" stroke-opacity="1" color="rgb(51, 51, 51)" fill-rule="evenodd" font-size-adjust="none" id="tSvg6735d62e6d" title="Path 1" d="M 2045.665 2490.723 C 2043.3066666666666 2490.723 2040.9483333333333 2490.723 2038.59 2490.723 C 2037.761572875254 2490.723 2037.09 2491.3945728752537 2037.09 2492.223 C 2037.09 2495.7303333333334 2037.09 2499.237666666667 2037.09 2502.745 C 2034.9763333333333 2502.745 2032.8626666666667 2502.745 2030.749 2502.745 C 2027.6006666666667 2498.928 2024.4523333333334 2495.111 2021.304 2491.294 C 2021.018982714275 2490.9487832574637 2020.594671134734 2490.748912732829 2020.147 2490.749 C 2015.113 2490.749 2010.079 2490.749 2005.045 2490.749 C 2005.045 2488.12 2005.045 2485.491 2005.045 2482.862 C 2005.045 2482.033572875254 2004.3734271247463 2481.362 2003.545 2481.362 C 1998.9803333333334 2481.362 1994.4156666666668 2481.362 1989.851 2481.362 C 1989.851 2479.5743333333335 1989.851 2477.786666666667 1989.851 2475.999 C 1994.4476666666667 2475.999 1999.0443333333333 2475.999 2003.641 2475.999 C 2004.7957005383792 2475.999 2005.5173883748662 2474.749 2004.9400381056766 2473.749 C 2004.6720889132455 2473.284898384862 2004.1768983848622 2472.999 2003.641 2472.999 C 1993.4476666666667 2472.999 1983.2543333333333 2472.999 1973.061 2472.999 C 1971.9062994616208 2472.999 1971.1846116251338 2474.249 1971.7619618943233 2475.249 C 1972.0299110867545 2475.713101615138 1972.5251016151378 2475.999 1973.061 2475.999 C 1977.6576666666667 2475.999 1982.2543333333333 2475.999 1986.851 2475.999 C 1986.851 2477.786666666667 1986.851 2479.5743333333335 1986.851 2481.362 C 1982.2543333333333 2481.362 1977.6576666666667 2481.362 1973.061 2481.362 C 1972.2325728752537 2481.362 1971.561 2482.033572875254 1971.561 2482.862 C 1971.561 2485.491 1971.561 2488.12 1971.561 2490.749 C 1968.932 2490.749 1966.303 2490.749 1963.674 2490.749 C 1962.8455728752538 2490.749 1962.174 2491.4205728752536 1962.174 2492.249 C 1962.174 2495.9146666666666 1962.174 2499.5803333333333 1962.174 2503.246 C 1960.051 2503.246 1957.928 2503.246 1955.805 2503.246 C 1955.805 2500.260333333333 1955.805 2497.2746666666667 1955.805 2494.289 C 1955.805 2493.1342994616207 1954.555 2492.4126116251336 1953.555 2492.989961894323 C 1953.0908983848622 2493.2579110867546 1952.805 2493.753101615138 1952.805 2494.289 C 1952.805 2501.260333333333 1952.805 2508.2316666666666 1952.805 2515.203 C 1952.805 2516.357700538379 1954.055 2517.079388374866 1955.055 2516.5020381056765 C 1955.5191016151377 2516.2340889132456 1955.805 2515.7388983848623 1955.805 2515.203 C 1955.805 2512.2173333333335 1955.805 2509.2316666666666 1955.805 2506.246 C 1957.928 2506.246 1960.051 2506.246 1962.174 2506.246 C 1962.174 2510.436 1962.174 2514.626 1962.174 2518.816 C 1962.174 2519.644427124746 1962.8455728752538 2520.316 1963.674 2520.316 C 1966.6143333333334 2520.316 1969.5546666666667 2520.316 1972.495 2520.316 C 1974.2443333333333 2522.675333333333 1975.9936666666667 2525.0346666666665 1977.743 2527.3940000000002 C 1978.026 2527.775 1978.473 2528 1978.948 2528 C 1995.9793333333332 2528 2013.0106666666666 2528 2030.042 2528 C 2030.8704271247461 2528 2031.542 2527.328427124746 2031.542 2526.5 C 2031.542 2521.8766666666666 2031.542 2517.253333333333 2031.542 2512.63 C 2033.3913333333333 2512.63 2035.2406666666666 2512.63 2037.09 2512.63 C 2037.09 2516.0843333333332 2037.09 2519.538666666667 2037.09 2522.993 C 2037.09 2523.821427124746 2037.761572875254 2524.493 2038.59 2524.493 C 2040.9483333333333 2524.493 2043.3066666666666 2524.493 2045.665 2524.493 C 2046.4934271247462 2524.493 2047.165 2523.821427124746 2047.165 2522.993 C 2047.165 2512.7363333333333 2047.165 2502.4796666666666 2047.165 2492.223C 2047.165 2491.3945728752537 2046.4934271247462 2490.723 2045.665 2490.723Z M 2030.042 2509.63 C 2029.2135728752537 2509.63 2028.542 2510.301572875254 2028.542 2511.13 C 2028.542 2515.753333333333 2028.542 2520.3766666666666 2028.542 2525 C 2012.2623333333333 2525 1995.9826666666668 2525 1979.703 2525 C 1977.9536666666668 2522.6406666666667 1976.2043333333334 2520.2813333333334 1974.455 2517.922 C 1974.1720318235225 2517.540492304631 1973.7249936888884 2517.315674360676 1973.25 2517.316 C 1970.558 2517.316 1967.866 2517.316 1965.174 2517.316 C 1965.174 2509.4603333333334 1965.174 2501.6046666666666 1965.174 2493.749 C 1967.803 2493.749 1970.432 2493.749 1973.061 2493.749 C 1973.8894271247461 2493.749 1974.561 2493.077427124746 1974.561 2492.249 C 1974.561 2489.62 1974.561 2486.991 1974.561 2484.362 C 1983.7223333333334 2484.362 1992.8836666666666 2484.362 2002.045 2484.362 C 2002.045 2486.991 2002.045 2489.62 2002.045 2492.249 C 2002.045 2493.077427124746 2002.7165728752539 2493.749 2003.545 2493.749 C 2008.8433333333332 2493.749 2014.1416666666667 2493.749 2019.44 2493.749 C 2022.5883333333334 2497.566 2025.7366666666667 2501.383 2028.885 2505.2 C 2029.17 2505.546 2029.594 2505.746 2030.042 2505.746 C 2032.3913333333333 2505.746 2034.7406666666666 2505.746 2037.09 2505.746 C 2037.09 2507.041 2037.09 2508.336 2037.09 2509.631C 2034.7406666666666 2509.631 2032.3913333333333 2509.631 2030.042 2509.63Z M 2044.165 2521.493 C 2042.8066666666666 2521.493 2041.4483333333333 2521.493 2040.09 2521.493 C 2040.09 2512.2363333333333 2040.09 2502.9796666666666 2040.09 2493.723 C 2041.4483333333333 2493.723 2042.8066666666666 2493.723 2044.165 2493.723C 2044.165 2502.9796666666666 2044.165 2512.2363333333333 2044.165 2521.493Z"></path><defs> </defs></svg> 