<?xml version="1.0" encoding="UTF-8"?> <svg xmlns="http://www.w3.org/2000/svg" width="54" height="53" viewBox="0 0 54 53" fill="none"><path d="M22.6882 20.8203C26.3301 23.1565 31.2078 22.1607 33.5881 18.5862C35.9684 15.0116 34.9538 10.2243 31.3118 7.88808C27.6699 5.55186 22.7922 6.54763 20.4119 10.1222C18.0316 13.6967 19.0462 18.484 22.6882 20.8203Z" fill="#0094F9"></path><path d="M12.375 28.2915C12.375 26.0824 14.1659 24.2915 16.375 24.2915H37.625C39.8341 24.2915 41.625 26.0824 41.625 28.2915V41.9582H12.375V28.2915Z" fill="url(#paint0_linear_1181_2157)"></path><ellipse cx="36.5625" cy="36.9896" rx="7.3125" ry="7.17708" fill="#FF5534"></ellipse><path d="M38.25 36.4375L38.25 41.9583L34.875 41.9583L34.875 36.4375L38.25 36.4375Z" fill="white"></path><ellipse cx="36.5625" cy="33.6772" rx="1.6875" ry="1.65625" fill="white"></ellipse><path d="M22.5 24.2915L27 32.0207L31.5 24.2915H22.5Z" fill="#0094F9"></path><defs><linearGradient id="paint0_linear_1181_2157" x1="28.417" y1="24.2915" x2="28.417" y2="42.7994" gradientUnits="userSpaceOnUse"><stop stop-color="#5CBAF6"></stop><stop offset="1" stop-color="#D6EAFF"></stop></linearGradient></defs></svg> 