<?xml version="1.0" encoding="UTF-8"?> <svg xmlns="http://www.w3.org/2000/svg" width="40" height="40" viewBox="0 0 40 40" fill="none"><path d="M21 31.5557H9C8.44772 31.5557 8 31.1079 8 30.5557V7.55566H21V19.0557V31.5557Z" fill="url(#paint0_linear_22331_1146190)"></path><path d="M32 31.5557H18.4828C17.6639 31.5557 17 30.8918 17 30.0728V22.5557L24.5 15.0557L32 22.5557V31.5557Z" fill="#0094F9"></path><rect x="25.25" y="22.5557" width="2.25" height="2.25" fill="#FF5534"></rect><rect x="25.25" y="26.3057" width="2.25" height="2.25" fill="white"></rect><rect x="21.5" y="22.5557" width="2.25" height="2.25" fill="white"></rect><rect x="11" y="10.5552" width="2.25" height="2.25" fill="white"></rect><rect x="11" y="14.3057" width="2.25" height="2.25" fill="white"></rect><rect x="11" y="18.0552" width="2.25" height="2.25" fill="white"></rect><rect x="11" y="21.8057" width="2.25" height="2.25" fill="white"></rect><rect x="11" y="25.5557" width="2.25" height="2.25" fill="white"></rect><rect x="15.5" y="10.5552" width="2.25" height="2.25" fill="white"></rect><rect x="15.5" y="14.3057" width="2.25" height="2.25" fill="white"></rect><rect x="15.5" y="18.0552" width="2.25" height="2.25" fill="white"></rect><rect x="21.5" y="26.3057" width="2.25" height="2.25" fill="white"></rect><defs><linearGradient id="paint0_linear_22331_1146190" x1="15.1298" y1="7.55566" x2="15.1298" y2="32.6985" gradientUnits="userSpaceOnUse"><stop stop-color="#5CBAF6"></stop><stop offset="1" stop-color="#D6EAFF"></stop></linearGradient></defs></svg> 