<?xml version="1.0" encoding="UTF-8"?> <svg xmlns="http://www.w3.org/2000/svg" width="40" height="40" viewBox="0 0 40 40" fill="none"><path d="M25.3924 19.0833C25.4764 18.6667 25.4764 18.3333 25.4764 18C25.4764 17.6667 25.4764 17.3333 25.3924 16.9167L27.4926 15.4167C27.7446 15.25 27.7446 15 27.6606 14.75L25.5604 11.1667C25.3924 10.9167 25.1404 10.8333 24.8884 11L22.4523 12.0833C21.8642 11.6667 21.2762 11.3333 20.6042 11L20.3521 8.41667C20.4361 8.16667 20.2681 8 20.0161 8H15.8999C15.6479 8 15.3958 8.16667 15.3958 8.41667L15.1438 11C14.4718 11.25 13.8838 11.5833 13.2957 12.0833L10.8596 11C10.6076 10.9167 10.3555 11 10.1875 11.1667L8.08741 14.75C7.9194 15 8.0034 15.25 8.25542 15.4167L10.3555 16.9167V18C10.3555 18.3333 10.3555 18.6667 10.4395 19.0833L8.33942 20.5833C8.08741 20.75 8.08741 21 8.17141 21.25L10.2715 24.8333C10.4395 25.0833 10.6916 25.1667 10.9436 25L13.3797 23.9167C13.9678 24.3333 14.5558 24.6667 15.2278 25L15.4798 27.5833C15.4798 27.8333 15.7319 28 15.9839 28H20.1001C20.3521 28 20.6042 27.8333 20.6042 27.5833L20.8562 25C21.5282 24.75 22.1162 24.4167 22.7043 23.9167L25.1404 25C25.3924 25.0833 25.6445 25 25.8125 24.8333L27.9126 21.25C28.0806 21 27.9966 20.75 27.7446 20.5833L25.3924 19.0833ZM17.916 22.1667C15.5639 22.1667 13.7157 20.3333 13.7157 18C13.7157 15.6667 15.5639 13.8333 17.916 13.8333C20.2681 13.8333 22.1162 15.6667 22.1162 18C22.1162 20.3333 20.2681 22.1667 17.916 22.1667Z" fill="#0094F9"></path><g clip-path="url(#clip0_19054_285488)"><path fill-rule="evenodd" clip-rule="evenodd" d="M18.5355 18.5348L30.5563 23.4845L27.7279 26.313L30.5563 29.1414L29.1421 30.5556L26.3137 27.7272L23.4853 30.5556L18.5355 18.5348Z" fill="#FF5534"></path></g><defs><clipPath id="clip0_19054_285488"><rect width="16" height="16" fill="white" transform="translate(16 16)"></rect></clipPath></defs></svg> 