<?xml version="1.0" encoding="UTF-8"?> <svg xmlns="http://www.w3.org/2000/svg" width="32" height="32" viewBox="0 0 32 32" fill="none"><path d="M16 15.25L19.75 19L25.75 13" stroke="white" stroke-width="2"></path><path d="M0 14.3239C-0.00186584 20.6925 6.64353 24.4079 12.0714 20.4286V16.7143L7.37005 13.9276L8.35714 12.5357L12.0714 14.8571L12.0268 8.35714H13.9286V12.0714L18.1071 9.28572L19.0357 10.6786L13.9286 13.9286V20.4286C20.9186 24.4079 26 19.4987 26 14.3239C26 9.14902 22.8974 7.16279 21.3451 6.36692C20.569 4.11254 18.1678 -0.00169037 13.1909 0C8.14617 0.00171449 5.43469 4.24469 4.65857 6.36692C4.65857 6.36692 0.00186663 7.95523 0 14.3239Z" fill="url(#paint0_linear_20010_289658)"></path><rect x="12" y="20" width="2" height="10" fill="url(#paint1_linear_20010_289658)"></rect><path d="M4 17.5746C3.99799 24.4994 11.1546 28.3268 17 24V20.1738L11.937 17.1438L13 15.6304L17 18.1545L16.9519 11.0869H19V15.1255L23.5 12.0966L24.5 13.611L19 17.1448V24C26.5277 28.3268 32 23.2014 32 17.5746C32 11.9479 28.6587 9.78825 26.9871 8.92289C26.1513 6.47166 23.5653 1.99816 18.2056 2C12.7728 2.00186 9.85274 6.61534 9.01692 8.92289C9.01692 8.92289 4.00201 10.6499 4 17.5746Z" fill="#0094F9"></path><rect x="17" y="24" width="2" height="8" fill="#0094F9"></rect><defs><linearGradient id="paint0_linear_20010_289658" x1="14.2595" y1="0" x2="14.2595" y2="23.1237" gradientUnits="userSpaceOnUse"><stop stop-color="#5CBAF6"></stop><stop offset="1" stop-color="#D6EAFF"></stop></linearGradient><linearGradient id="paint1_linear_20010_289658" x1="13.0969" y1="20" x2="13.0969" y2="30.4762" gradientUnits="userSpaceOnUse"><stop stop-color="#5CBAF6"></stop><stop offset="1" stop-color="#D6EAFF"></stop></linearGradient></defs></svg> 