<?xml version="1.0" encoding="UTF-8"?> <svg xmlns="http://www.w3.org/2000/svg" width="48" height="48" viewBox="0 0 48 48" fill="none"><path d="M8 37V19H19.8125L23.75 22.9375V40L11 40C9.34315 40 8 38.6569 8 37Z" fill="url(#paint0_linear_5880_51153)"></path><path d="M11 29H18V31H11V29Z" fill="white"></path><path d="M11 33H15V35H11V33Z" fill="white"></path><path d="M19.8125 20.9375V19L21.7812 20.9688L23.75 22.9375H21.8125C20.7079 22.9375 19.8125 22.0421 19.8125 20.9375Z" fill="url(#paint1_linear_5880_51153)"></path><path d="M40 38H15C13.8954 38 13 37.1046 13 36V21.6364L26.5 8L40 21.6364V38Z" fill="#0094F9"></path><rect x="28" y="22" width="4" height="4" fill="#FF5534"></rect><rect x="28" y="29" width="4" height="4" fill="white"></rect><path d="M8 37V18H25V40L11 40C9.34315 40 8 38.6569 8 37Z" fill="url(#paint2_linear_5880_51153)"></path><path d="M11 22H18V24H11V22Z" fill="white"></path><path d="M11 26H15V28H11V26Z" fill="white"></path><defs><linearGradient id="paint0_linear_5880_51153" x1="16.638" y1="19" x2="16.638" y2="41" gradientUnits="userSpaceOnUse"><stop stop-color="#5CBAF6"></stop><stop offset="1" stop-color="#D6EAFF"></stop></linearGradient><linearGradient id="paint1_linear_5880_51153" x1="21.972" y1="19" x2="21.972" y2="23.125" gradientUnits="userSpaceOnUse"><stop stop-color="#5CBAF6"></stop><stop offset="1" stop-color="#D6EAFF"></stop></linearGradient><linearGradient id="paint2_linear_5880_51153" x1="17.3235" y1="18" x2="17.3235" y2="41.0476" gradientUnits="userSpaceOnUse"><stop stop-color="#5CBAF6"></stop><stop offset="1" stop-color="#D6EAFF"></stop></linearGradient></defs></svg> 