<?xml version="1.0" encoding="UTF-8"?> <svg xmlns="http://www.w3.org/2000/svg" width="40" height="40" viewBox="0 0 40 40" fill="none"><path d="M27 25H13V15.619L20 8L27 15.619V25Z" fill="#0094F9"></path><path d="M17 18.7778L19.1429 21L23 17" stroke="white" stroke-width="2"></path><path d="M20 30L20 23" stroke="#0072BB"></path><path d="M11 30L29 30" stroke="#0072BB"></path><path d="M8 30C8 28.8954 8.89543 28 10 28V28C11.1046 28 12 28.8954 12 30V30C12 31.1046 11.1046 32 10 32V32C8.89543 32 8 31.1046 8 30V30Z" fill="#FF5534"></path><path d="M18 30C18 28.8954 18.8954 28 20 28V28C21.1046 28 22 28.8954 22 30V30C22 31.1046 21.1046 32 20 32V32C18.8954 32 18 31.1046 18 30V30Z" fill="#FF5534"></path><path d="M28 30C28 28.8954 28.8954 28 30 28V28C31.1046 28 32 28.8954 32 30V30C32 31.1046 31.1046 32 30 32V32C28.8954 32 28 31.1046 28 30V30Z" fill="#FF5534"></path></svg> 