<?xml version="1.0" encoding="UTF-8"?> <svg xmlns="http://www.w3.org/2000/svg" width="97" height="79" viewBox="0 0 97 79" fill="none"><path fill-rule="evenodd" clip-rule="evenodd" d="M40.0734 38.4536V50.441C36.8217 53.8442 32.2171 55.9844 27.0903 55.9844C17.2639 55.9844 9.30078 48.1371 9.30078 38.4536C9.30078 28.7818 17.2639 20.9345 27.0903 20.9345V21.3672V34.1147C24.5388 34.1147 21.9872 35.0737 20.0291 36.9917C19.5544 37.4478 19.1509 37.9507 18.7948 38.4536C16.184 42.2896 16.5875 47.5289 20.0291 50.9088C21.9872 52.8385 24.5388 53.7974 27.0903 53.7974C29.6418 53.7974 32.1696 52.8501 34.1278 50.9322C34.1396 50.9205 34.1515 50.9205 34.1515 50.9088C34.1634 50.8971 34.1752 50.8971 34.1871 50.8854C36.1334 48.9674 36.1334 45.8331 34.1871 43.9152C32.229 41.9972 29.0603 41.9972 27.114 43.9152C27.1022 43.9269 27.1022 43.9269 27.0903 43.9386V38.4536H33.5463H35.3739H40.0734ZM37.7355 14.4788C38.8155 19.1802 38.8036 22.0689 38.317 25.3669C37.4744 31.2963 34.7211 35.8456 33.5463 37.366C32.7274 36.3251 31.4932 34.22 30.6506 32.2552C30.6506 32.2552 29.084 28.5128 28.6805 24.864C28.55 23.7062 28.4669 22.5484 28.4669 21.3672C28.4669 18.8177 28.8111 16.1863 29.6537 13.3327C30.7574 9.57862 32.941 6.19877 33.5225 5.33334C33.9023 5.94148 36.6437 9.77744 37.7355 14.4788ZM37.4151 22.4665C37.4507 20.6655 37.2608 17.6248 36.3826 14.4437C35.4807 11.2627 33.7717 8.2337 33.5107 7.84776C33.2496 8.2337 31.8848 10.6896 30.6743 14.5373C30.3657 15.6834 29.7842 18.1861 29.6893 20.6304C29.5587 23.5775 29.986 26.513 30.1403 27.3316C30.1403 26.3727 30.164 23.1097 30.7811 20.4082C31.3864 17.7183 32.5612 14.6075 33.5107 13.0287C34.5431 14.701 35.8248 18.2797 36.2877 20.4199C36.7386 22.5718 36.976 25.3318 36.8692 27.2732C37.154 26.1504 37.3676 24.2559 37.4151 22.4665ZM33.5225 36.1965C34.0922 35.179 35.0297 32.9569 34.9585 30.1268C34.8398 27.2381 33.8429 25.1213 33.5463 24.6301C33.2021 25.1213 32.0628 27.5538 32.0747 30.384C32.1577 33.3078 33.0003 35.2024 33.5225 36.1965Z" fill="#2F79BD"></path><path fill-rule="evenodd" clip-rule="evenodd" d="M46.1621 55.9844C46.1621 54.885 46.1028 45.1431 46.1977 44.9794C46.352 45.0261 46.352 45.4238 46.3758 45.5875L47.6456 53.2243C47.7999 54.1132 48.0016 55.1072 48.1203 55.9844H50.9685C51.0753 55.0838 51.2771 54.1015 51.4313 53.1776L52.5825 46.2424C52.6181 46.0436 52.713 45.0261 52.8792 44.9794C52.9741 45.1431 52.9148 54.885 52.9148 55.9844L56.4869 55.9727L56.4751 38.4185L51.8467 38.4302L49.5444 50.6047C49.5088 50.5462 49.5325 50.6047 49.4969 50.4994L47.7999 41.4709C47.6218 40.5119 47.4557 39.3775 47.2183 38.4185H42.5781V55.9844H46.1621Z" fill="#2F79BD"></path><path fill-rule="evenodd" clip-rule="evenodd" d="M62.3615 40.4183C62.6582 40.2897 62.9311 40.4417 63.0498 40.6171C63.1803 40.8276 63.1447 41.1551 63.1447 41.4358V52.5343C63.1447 53.084 63.2753 53.7974 62.7887 53.9962C62.5395 54.1015 62.2547 53.9845 62.1478 53.8325C62.0054 53.6337 62.0292 53.3062 62.0292 53.0255V41.927C62.0292 41.237 61.8986 40.6171 62.3615 40.4183ZM64.106 55.9844C65.9217 55.9844 66.7169 54.885 66.7169 53.1191V41.2954C66.7169 39.4125 65.8861 38.4185 63.9636 38.4185H61.2222C59.2166 38.4185 58.457 39.471 58.457 41.4358V52.9787C58.457 54.8266 59.1691 55.9844 61.0798 55.9844H64.106Z" fill="#2F79BD"></path><path fill-rule="evenodd" clip-rule="evenodd" d="M82.4748 47.9031L82.9851 49.938L84.2074 55.9844H87.6965L85.5722 46.8038L87.3286 38.4185H83.7921L82.4748 45.9734V38.4185H78.8908L78.8789 55.961H82.4629L82.4748 47.9031Z" fill="#2F79BD"></path><path fill-rule="evenodd" clip-rule="evenodd" d="M73.3732 45.9383L70.4894 45.95L70.4657 47.9031L73.3732 47.9382C73.3851 48.6633 73.4207 53.2477 73.3613 53.5752C73.2783 53.9494 72.8036 54.2301 72.4594 53.9143C72.1746 53.657 72.2695 53.1191 72.2695 52.663C72.2695 51.7157 72.2695 50.7684 72.2695 49.8211L68.6974 49.8328C68.6974 51.3063 68.46 54.0313 69.184 55.0604C69.5637 55.6101 70.2046 55.9376 71.154 55.9843C72.0796 56.0194 73.1003 55.9843 74.0378 55.9843C76.1146 55.9843 76.8741 55.1306 76.9454 53.1191C77.0047 51.2596 76.9454 49.3065 76.9454 47.4353C76.9454 45.5173 76.9454 43.611 76.9454 41.7047C76.9454 37.8922 74.9041 38.4184 71.6168 38.4184C70.6318 38.4184 69.9672 38.5354 69.4213 39.0851C68.9229 39.5996 68.7211 40.2896 68.6974 41.2018C68.6736 42.1374 68.6974 43.0964 68.6974 44.0437H72.2695C72.2695 43.19 72.2695 42.3363 72.2695 41.4708C72.2695 41.0264 72.1983 40.6288 72.5306 40.4417C72.9222 40.2195 73.2783 40.4885 73.3495 40.8042C73.4207 41.12 73.3732 45.26 73.3732 45.9383Z" fill="#2F79BD"></path></svg> 