<?xml version="1.0" encoding="UTF-8"?> <svg xmlns="http://www.w3.org/2000/svg" width="48" height="48" viewBox="0 0 48 48" fill="none"><path d="M25 40H10C8.89543 40 8 39.1046 8 38V8H25V23.36V40Z" fill="url(#paint0_linear_20010_289927)"></path><path d="M40 40H22C20.8954 40 20 39.1046 20 38V28L30 18L40 28V40Z" fill="#0094F9"></path><rect x="31" y="28" width="3" height="3" fill="#FF5534"></rect><rect x="31" y="33" width="3" height="3" fill="white"></rect><rect x="26" y="28" width="3" height="3" fill="white"></rect><rect x="12" y="12" width="3" height="3" fill="white"></rect><rect x="12" y="17" width="3" height="3" fill="white"></rect><rect x="12" y="22" width="3" height="3" fill="white"></rect><rect x="12" y="27" width="3" height="3" fill="white"></rect><rect x="12" y="32" width="3" height="3" fill="white"></rect><rect x="18" y="12" width="3" height="3" fill="white"></rect><rect x="18" y="17" width="3" height="3" fill="white"></rect><rect x="18" y="22" width="3" height="3" fill="white"></rect><rect x="26" y="33" width="3" height="3" fill="white"></rect><defs><linearGradient id="paint0_linear_20010_289927" x1="17.3235" y1="8" x2="17.3235" y2="41.5238" gradientUnits="userSpaceOnUse"><stop stop-color="#5CBAF6"></stop><stop offset="1" stop-color="#D6EAFF"></stop></linearGradient></defs></svg> 