<?xml version="1.0" encoding="UTF-8"?> <svg xmlns="http://www.w3.org/2000/svg" width="101" height="101" viewBox="0 0 101 101" fill="none"><path d="M90.585 66.621H74.723V54.417H90.344C91.172 54.417 91.844 53.745 91.844 52.917V36.106C91.844 35.277 91.172 34.606 90.344 34.606H74.876V20.218C74.876 19.389 74.204 18.718 73.376 18.718H33.959V11.812C33.959 10.983 33.288 10.312 32.459 10.312H9.41797C8.58897 10.312 7.91797 10.983 7.91797 11.812V28.624C7.91797 29.453 8.58897 30.124 9.41797 30.124H19.438V39.86L19.75 56.643V66.351H9.73097C8.90197 66.351 8.23097 67.023 8.23097 67.851V84.663C8.23097 85.491 8.90197 86.163 9.73097 86.163H32.772C33.601 86.163 34.272 85.491 34.272 84.663V67.851C34.272 67.023 33.601 66.351 32.772 66.351H22.751V56.615L22.439 39.832V30.124H32.46C33.289 30.124 33.96 29.453 33.96 28.624V21.718H71.877V34.606H45.859C45.03 34.606 44.359 35.277 44.359 36.106V52.917C44.359 53.745 45.03 54.417 45.859 54.417H71.723V66.621H45.644C44.815 66.621 44.144 67.293 44.144 68.121V84.933C44.144 85.761 44.815 86.433 45.644 86.433H90.585C91.413 86.433 92.085 85.761 92.085 84.933V68.121C92.085 67.293 91.413 66.621 90.585 66.621ZM31.272 83.163H11.231V69.351H31.272V83.163ZM30.959 27.124H10.918V13.312H30.959V27.124ZM47.359 37.606H88.844V51.417H47.359V37.606ZM89.085 83.433H47.144V69.621H89.085V83.433Z" fill="#2F79BD"></path></svg> 