<?xml version="1.0" encoding="UTF-8"?> <svg xmlns="http://www.w3.org/2000/svg" width="40" height="40" viewBox="0 0 40 40" fill="none"><rect width="40" height="40" rx="8" fill="white"></rect><path d="M14 32V22H8L8 30C8 31.1046 8.89543 32 10 32H14Z" fill="url(#paint0_linear_20013_289434)"></path><path d="M22 32V13H16L16 30C16 31.1046 16.8954 32 18 32H22Z" fill="url(#paint1_linear_20013_289434)"></path><path d="M30 8V32H26C24.8954 32 24 31.1046 24 30V8H30Z" fill="url(#paint2_linear_20013_289434)"></path><path d="M30 8V9H24V8H30Z" fill="#FF5534"></path><path d="M22 13V15H16V13H22Z" fill="#FF5534"></path><path d="M19 26H32V32H20C19.4477 32 19 31.5523 19 31V26Z" fill="#0094F9"></path><rect x="19" y="22" width="13" height="3" fill="#0094F9"></rect><path d="M24 27H27V28H24V27Z" fill="white"></path><path d="M24 20H27V21H24V20Z" fill="#0094F9"></path><defs><linearGradient id="paint0_linear_20013_289434" x1="10.7093" y1="22" x2="10.7093" y2="32.4762" gradientUnits="userSpaceOnUse"><stop stop-color="#5CBAF6"></stop><stop offset="1" stop-color="#D6EAFF"></stop></linearGradient><linearGradient id="paint1_linear_20013_289434" x1="18.7093" y1="13" x2="18.7093" y2="32.9048" gradientUnits="userSpaceOnUse"><stop stop-color="#5CBAF6"></stop><stop offset="1" stop-color="#D6EAFF"></stop></linearGradient><linearGradient id="paint2_linear_20013_289434" x1="26.7093" y1="8" x2="26.7093" y2="33.1429" gradientUnits="userSpaceOnUse"><stop stop-color="#5CBAF6"></stop><stop offset="1" stop-color="#D6EAFF"></stop></linearGradient></defs></svg> 