<?xml version="1.0" encoding="UTF-8"?> <svg xmlns="http://www.w3.org/2000/svg" width="101" height="101" viewBox="0 0 101 101" fill="none"><path d="M93.9939 22.82C93.9939 16.373 88.7479 11.127 82.3009 11.127C75.8539 11.127 70.6079 16.373 70.6079 22.82C70.6079 28.758 75.0609 33.666 80.7999 34.406V48.5H52.4989V34.406C58.2389 33.666 62.6919 28.758 62.6919 22.82C62.6919 16.373 57.4459 11.127 50.9989 11.127C44.5519 11.127 39.3059 16.373 39.3059 22.82C39.3059 28.758 43.7589 33.666 49.4989 34.406V48.5H21.1969V34.406C26.9369 33.666 31.3899 28.758 31.3899 22.82C31.3899 16.373 26.1439 11.127 19.6969 11.127C13.2489 11.127 8.00391 16.373 8.00391 22.82C8.00391 28.758 12.4569 33.666 18.1969 34.406V65.594C12.4569 66.334 8.00391 71.241 8.00391 77.179C8.00391 83.626 13.2499 88.872 19.6969 88.872C26.1439 88.872 31.3899 83.626 31.3899 77.179C31.3899 71.241 26.9369 66.334 21.1969 65.594V51.5H49.4989V65.594C43.7589 66.334 39.3059 71.241 39.3059 77.179C39.3059 83.626 44.5519 88.872 50.9989 88.872C57.4459 88.872 62.6919 83.626 62.6919 77.179C62.6919 71.241 58.2389 66.334 52.4989 65.594V51.5H82.3009C83.1289 51.5 83.8009 50.828 83.8009 50V34.406C89.5409 33.666 93.9939 28.758 93.9939 22.82ZM42.3059 22.82C42.3059 18.027 46.2049 14.127 50.9989 14.127C55.7929 14.127 59.6919 18.026 59.6919 22.82C59.6919 27.614 55.7929 31.513 50.9989 31.513C46.2059 31.513 42.3059 27.613 42.3059 22.82ZM11.0039 22.82C11.0039 18.027 14.9039 14.127 19.6969 14.127C24.4899 14.127 28.3899 18.026 28.3899 22.82C28.3899 27.614 24.4909 31.513 19.6969 31.513C14.9029 31.513 11.0039 27.613 11.0039 22.82ZM28.3899 77.179C28.3899 81.973 24.4909 85.872 19.6969 85.872C14.9029 85.872 11.0039 81.973 11.0039 77.179C11.0039 72.386 14.9039 68.487 19.6969 68.487C24.4899 68.487 28.3899 72.386 28.3899 77.179ZM59.6919 77.179C59.6919 81.973 55.7929 85.872 50.9989 85.872C46.2059 85.872 42.3059 81.973 42.3059 77.179C42.3059 72.386 46.2049 68.487 50.9989 68.487C55.7929 68.486 59.6919 72.386 59.6919 77.179ZM82.3009 31.513C77.5079 31.513 73.6089 27.613 73.6089 22.82C73.6089 18.027 77.5079 14.127 82.3009 14.127C87.0949 14.127 90.9939 18.026 90.9939 22.82C90.9939 27.614 87.0949 31.513 82.3009 31.513Z" fill="#2F79BD"></path></svg> 