<?xml version="1.0" encoding="UTF-8"?> <svg xmlns="http://www.w3.org/2000/svg" width="48" height="48" viewBox="0 0 48 48" fill="none"><g clip-path="url(#clip0_18417_343322)"><path d="M8 32V10H29L29 35H11C9.34315 35 8 33.6569 8 32Z" fill="url(#paint0_linear_18417_343322)"></path><path d="M13 35V8H31L37 14V38L16 38C14.3431 38 13 36.6569 13 35Z" fill="#0094F9"></path><path d="M31 12V8L34 11L37 14H33C31.8954 14 31 13.1046 31 12Z" fill="url(#paint1_linear_18417_343322)"></path><path d="M18 20V18H28V20H18Z" fill="white"></path><path d="M18 24V22H24V24H18Z" fill="white"></path><circle cx="33" cy="33" r="7" fill="#FF5534"></circle><path d="M29.77 34.118V32.985H33.499C33.5577 32.985 33.6292 32.9832 33.7135 32.9795C33.8015 32.9722 33.8987 32.9538 34.005 32.9245C34.3093 32.8402 34.5293 32.688 34.665 32.468C34.8007 32.2443 34.8685 31.984 34.8685 31.687C34.8685 31.5073 34.841 31.3277 34.786 31.148C34.7347 30.9647 34.6448 30.8033 34.5165 30.664C34.3918 30.5247 34.2213 30.4275 34.005 30.3725C33.9097 30.3468 33.8125 30.3322 33.7135 30.3285C33.6182 30.3248 33.5467 30.323 33.499 30.323H31.4255V29.08H33.554C33.5943 29.08 33.6732 29.0818 33.7905 29.0855C33.9115 29.0892 34.0453 29.102 34.192 29.124C34.6467 29.1937 35.0225 29.3458 35.3195 29.5805C35.6202 29.8152 35.842 30.1122 35.985 30.4715C36.1317 30.8272 36.205 31.2195 36.205 31.6485C36.205 32.3048 36.0382 32.8475 35.7045 33.2765C35.3708 33.7055 34.8667 33.9713 34.192 34.074C34.0453 34.0923 33.9115 34.1052 33.7905 34.1125C33.6732 34.1162 33.5943 34.118 33.554 34.118H29.77ZM29.77 35.922V34.8825H34.4615V35.922H29.77ZM30.5565 37V29.08H31.882V37H30.5565Z" fill="white"></path></g><defs><linearGradient id="paint0_linear_18417_343322" x1="19.5173" y1="10" x2="19.5173" y2="36.1905" gradientUnits="userSpaceOnUse"><stop stop-color="#5CBAF6"></stop><stop offset="1" stop-color="#D6EAFF"></stop></linearGradient><linearGradient id="paint1_linear_18417_343322" x1="34.2907" y1="8" x2="34.2907" y2="14.2857" gradientUnits="userSpaceOnUse"><stop stop-color="#5CBAF6"></stop><stop offset="1" stop-color="#D6EAFF"></stop></linearGradient><clipPath id="clip0_18417_343322"><rect width="48" height="48" rx="8" fill="white"></rect></clipPath></defs></svg> 