<?xml version="1.0" encoding="UTF-8"?> <svg xmlns="http://www.w3.org/2000/svg" width="20" height="20" viewBox="0 0 20 20" fill="none"><path d="M10 13.3516C9.875 13.3516 9.75781 13.3319 9.64844 13.2925C9.53906 13.2538 9.4375 13.1875 9.34375 13.0938L5.96875 9.71875C5.79687 9.54688 5.71094 9.32812 5.71094 9.0625C5.71094 8.79688 5.79687 8.57812 5.96875 8.40625C6.14062 8.23438 6.36312 8.14438 6.63625 8.13625C6.91 8.12875 7.13281 8.21094 7.30469 8.38281L9.0625 10.1406V3.4375C9.0625 3.17188 9.1525 2.94906 9.3325 2.76906C9.51187 2.58969 9.73438 2.5 10 2.5C10.2656 2.5 10.4884 2.58969 10.6684 2.76906C10.8478 2.94906 10.9375 3.17188 10.9375 3.4375V10.1406L12.6953 8.38281C12.8672 8.21094 13.09 8.12875 13.3638 8.13625C13.6369 8.14438 13.8594 8.23438 14.0312 8.40625C14.2031 8.57812 14.2891 8.79688 14.2891 9.0625C14.2891 9.32812 14.2031 9.54688 14.0312 9.71875L10.6562 13.0938C10.5625 13.1875 10.4609 13.2538 10.3516 13.2925C10.2422 13.3319 10.125 13.3516 10 13.3516ZM4.375 17.5C3.85938 17.5 3.41812 17.3166 3.05125 16.9497C2.68375 16.5822 2.5 16.1406 2.5 15.625V13.75C2.5 13.4844 2.58969 13.2616 2.76906 13.0816C2.94906 12.9022 3.17188 12.8125 3.4375 12.8125C3.70312 12.8125 3.92594 12.9022 4.10594 13.0816C4.28531 13.2616 4.375 13.4844 4.375 13.75V15.625H15.625V13.75C15.625 13.4844 15.715 13.2616 15.895 13.0816C16.0744 12.9022 16.2969 12.8125 16.5625 12.8125C16.8281 12.8125 17.0506 12.9022 17.23 13.0816C17.41 13.2616 17.5 13.4844 17.5 13.75V15.625C17.5 16.1406 17.3166 16.5822 16.9497 16.9497C16.5822 17.3166 16.1406 17.5 15.625 17.5H4.375Z" fill="#005DC7"></path></svg> 