<?xml version="1.0" encoding="UTF-8"?> <svg xmlns="http://www.w3.org/2000/svg" width="26" height="23" viewBox="0 0 26 23" fill="none"><path d="M18.3333 6.25H23.6667C24.403 6.25 25 6.83763 25 7.5625V22L20.556 18.3656C20.3166 18.1699 20.0143 18.0625 19.7031 18.0625H9C8.26362 18.0625 7.66667 17.4749 7.66667 16.75V12.8125M18.3333 6.25V2.3125C18.3333 1.58763 17.7364 1 17 1H2.33333C1.59695 1 1 1.58763 1 2.3125V16.7504L5.44401 13.1154C5.6834 12.9197 5.98565 12.8125 6.29688 12.8125H7.66667M18.3333 6.25V11.5C18.3333 12.2249 17.7364 12.8125 17 12.8125H7.66667" stroke="#2F79BD" stroke-width="2" stroke-linecap="round" stroke-linejoin="round"></path></svg> 