<?xml version="1.0" encoding="UTF-8"?> <svg xmlns="http://www.w3.org/2000/svg" viewBox="1950 2450 100 100" width="100" height="100"><path fill="#ffffff" stroke="none" fill-opacity="1" stroke-width="1" stroke-opacity="1" color="rgb(51, 51, 51)" fill-rule="evenodd" font-size-adjust="none" id="tSvg41f6574b58" title="Path 1" d="M 2039.81 2523 C 2034.54 2523 2029.27 2523 2024 2523 C 2024 2509.3333333333335 2024 2495.6666666666665 2024 2482 C 2024 2475.3725830020303 2018.6274169979695 2470 2012 2470 C 1997.5 2470 1983 2470 1968.5 2470 C 1968.27 2470 1968.04 2469.94 1967.8 2469.92 C 1964.438199104802 2469.7073547847685 1961.1368234374402 2470.886159252474 1958.67 2473.18 C 1956.3804835638616 2475.3002485351344 1955.0793136024724 2478.279529059429 1955.08 2481.4 C 1955.08 2482.2284271247463 1955.7515728752537 2482.9 1956.58 2482.9 C 1963.0533333333333 2482.9 1969.5266666666666 2482.9 1976 2482.9 C 1976 2496.503333333333 1976 2510.1066666666666 1976 2523.71 C 1975.8962245703106 2530.1200258863987 1980.7983474436496 2535.5040374983873 1987.19 2536 C 2001.2433333333333 2536 2015.2966666666666 2536 2029.35 2536 C 2035.8399230655145 2536.139553310242 2041.2133848482092 2530.989985579568 2041.35 2524.5C 2041.3503002510279 2523.6556970675097 2040.6540027340056 2522.9774851836974 2039.81 2523Z M 1958.22 2479.9 C 1958.552102269682 2478.160942314766 1959.4315974344481 2476.5736462635955 1960.73 2475.37 C 1962.2252523613706 2474.002955832193 1964.1311304812702 2473.1695737222085 1966.15 2473 C 1966.2662615377371 2473.013750045813 1966.383738462263 2473.013750045813 1966.5 2473 C 1967.1333333333334 2473 1967.7666666666667 2473 1968.4 2473 C 1972.0151275616033 2473.603515886394 1974.909301834408 2476.327909123106 1975.73 2479.9C 1969.8933333333334 2479.9 1964.0566666666666 2479.9 1958.22 2479.9Z M 1987.37 2533 C 1982.5644454854428 2532.5996510400882 1978.8988449984345 2528.5311410628337 1979 2523.71 C 1979 2509.87 1979 2496.03 1979 2482.19 C 1979.0130616656659 2478.701554388556 1977.5619616138845 2475.3676520183712 1975 2473 C 1987.3333333333333 2473 1999.6666666666667 2473 2012 2473 C 2016.970562748477 2473 2021 2477.0294372515227 2021 2482 C 2021 2495.6666666666665 2021 2509.3333333333335 2021 2523 C 2013.4733333333334 2523 2005.9466666666667 2523 1998.42 2523 C 1997.5915728752539 2523 1996.92 2523.671572875254 1996.92 2524.5 C 1996.9062422769123 2526.7808014593365 1995.9465836923634 2528.953613342544 1994.27 2530.5C 1992.4124843479228 2532.2480893460115 1989.916155397754 2533.152556382492 1987.37 2533Z M 2029.37 2533 C 2018.2466666666667 2533 2007.1233333333334 2533 1996 2533 C 1996.1033333333332 2532.9066666666668 1996.2066666666667 2532.8133333333335 1996.31 2532.72 C 1998.2229377737176 2530.9540905483645 1999.4635520390705 2528.5788974327493 1999.82 2526 C 2012.6033333333332 2526 2025.3866666666668 2526 2038.17 2526C 2037.2813904236093 2530.141760332233 2033.5853466618862 2533.075128440423 2029.37 2533Z"></path><path fill="#ffffff" stroke="none" fill-opacity="1" stroke-width="1" stroke-opacity="1" color="rgb(51, 51, 51)" fill-rule="evenodd" font-size-adjust="none" id="tSvg1458f36dec7" title="Path 2" d="M 1986.5 2492 C 1995.5 2492 2004.5 2492 2013.5 2492 C 2014.6547005383793 2492 2015.3763883748663 2490.75 2014.7990381056766 2489.75 C 2014.5310889132456 2489.2858983848623 2014.0358983848623 2489 2013.5 2489 C 2004.5 2489 1995.5 2489 1986.5 2489 C 1985.3452994616207 2489 1984.6236116251337 2490.25 1985.2009618943234 2491.25C 1985.4689110867544 2491.7141016151377 1985.9641016151377 2492 1986.5 2492Z M 1986.5 2501 C 1995.5 2501 2004.5 2501 2013.5 2501 C 2014.6547005383793 2501 2015.3763883748663 2499.75 2014.7990381056766 2498.75 C 2014.5310889132456 2498.2858983848623 2014.0358983848623 2498 2013.5 2498 C 2004.5 2498 1995.5 2498 1986.5 2498 C 1985.3452994616207 2498 1984.6236116251337 2499.25 1985.2009618943234 2500.25C 1985.4689110867544 2500.7141016151377 1985.9641016151377 2501 1986.5 2501Z M 2002 2508.5 C 2002 2507.671572875254 2001.3284271247462 2507 2000.5 2507 C 1995.8333333333333 2507 1991.1666666666667 2507 1986.5 2507 C 1985.3452994616207 2507 1984.6236116251337 2508.25 1985.2009618943234 2509.25 C 1985.4689110867544 2509.7141016151377 1985.9641016151377 2510 1986.5 2510 C 1991.1666666666667 2510 1995.8333333333333 2510 2000.5 2510C 2001.3284271247462 2510 2002 2509.328427124746 2002 2508.5Z"></path><defs> </defs></svg> 