<?xml version="1.0" encoding="UTF-8"?> <svg xmlns="http://www.w3.org/2000/svg" width="79" height="51" viewBox="0 0 79 51" fill="none"><g clip-path="url(#clip0_538_6382)"><path fill-rule="evenodd" clip-rule="evenodd" d="M31.0734 33.4536V45.441C27.8217 48.8442 23.2171 50.9844 18.0903 50.9844C8.26393 50.9844 0.300781 43.1371 0.300781 33.4536C0.300781 23.7818 8.26393 15.9345 18.0903 15.9345V16.3672V29.1147C15.5388 29.1147 12.9872 30.0737 11.0291 31.9917C10.5544 32.4478 10.1509 32.9507 9.79485 33.4536C7.18398 37.2895 7.58748 42.5289 11.0291 45.9088C12.9872 47.8384 15.5388 48.7974 18.0903 48.7974C20.6418 48.7974 23.1696 47.8501 25.1278 45.9322C25.1396 45.9205 25.1515 45.9205 25.1515 45.9088C25.1634 45.8971 25.1752 45.8971 25.1871 45.8854C27.1334 43.9674 27.1334 40.8331 25.1871 38.9152C23.229 36.9972 20.0603 36.9972 18.114 38.9152C18.1022 38.9269 18.1022 38.9269 18.0903 38.9385V33.4536H24.5463H26.3739H31.0734ZM28.7355 9.47882C29.8155 14.1802 29.8036 17.0689 29.317 20.3669C28.4744 26.2962 25.7211 30.8456 24.5463 32.366C23.7274 31.3251 22.4932 29.22 21.6506 27.2552C21.6506 27.2552 20.084 23.5128 19.6805 19.864C19.55 18.7062 19.4669 17.5484 19.4669 16.3672C19.4669 13.8177 19.8111 11.1863 20.6537 8.33271C21.7574 4.57862 23.941 1.19876 24.5225 0.333328C24.9023 0.941469 27.6437 4.77743 28.7355 9.47882ZM28.4151 17.4665C28.4507 15.6655 28.2608 12.6248 27.3826 9.44374C26.4807 6.2627 24.7717 3.23369 24.5107 2.84775C24.2496 3.23369 22.8848 5.68964 21.6743 9.5373C21.3657 10.6834 20.7842 13.1861 20.6893 15.6304C20.5587 18.5775 20.986 21.513 21.1403 22.3316C21.1403 21.3726 21.164 18.1097 21.7811 15.4082C22.3864 12.7183 23.5612 9.60747 24.5107 8.02864C25.5431 9.70103 26.8248 13.2797 27.2877 15.4199C27.7386 17.5718 27.976 20.3318 27.8692 22.2732C28.154 21.1504 28.3676 19.2558 28.4151 17.4665ZM24.5225 31.1965C25.0922 30.179 26.0297 27.9569 25.9585 25.1267C25.8398 22.2381 24.8429 20.1213 24.5463 19.6301C24.2021 20.1213 23.0628 22.5538 23.0747 25.384C23.1577 28.3078 24.0003 30.2024 24.5225 31.1965Z" fill="#0079C2"></path><path fill-rule="evenodd" clip-rule="evenodd" d="M37.1621 50.9844C37.1621 49.885 37.1028 40.1431 37.1977 39.9794C37.352 40.0261 37.352 40.4238 37.3758 40.5875L38.6456 48.2243C38.7999 49.1132 39.0016 50.1072 39.1203 50.9844H41.9685C42.0753 50.0838 42.2771 49.1015 42.4313 48.1776L43.5825 41.2424C43.6181 41.0436 43.713 40.0261 43.8792 39.9794C43.9741 40.1431 43.9148 49.885 43.9148 50.9844L47.4869 50.9727L47.4751 33.4185L42.8467 33.4302L40.5444 45.6047C40.5088 45.5462 40.5325 45.6047 40.4969 45.4994L38.7999 36.4709C38.6218 35.5119 38.4557 34.3774 38.2183 33.4185H33.5781V50.9844H37.1621Z" fill="#0079C2"></path><path fill-rule="evenodd" clip-rule="evenodd" d="M53.3615 35.4183C53.6582 35.2897 53.9311 35.4417 54.0498 35.6171C54.1803 35.8276 54.1447 36.1551 54.1447 36.4358V47.5343C54.1447 48.084 54.2753 48.7974 53.7887 48.9962C53.5395 49.1015 53.2547 48.9845 53.1478 48.8325C53.0054 48.6337 53.0292 48.3062 53.0292 48.0255V36.927C53.0292 36.237 52.8986 35.6171 53.3615 35.4183ZM55.106 50.9844C56.9217 50.9844 57.7169 49.885 57.7169 48.1191V36.2954C57.7169 34.4125 56.8861 33.4185 54.9636 33.4185H52.2222C50.2166 33.4185 49.457 34.471 49.457 36.4358V47.9787C49.457 49.8266 50.1691 50.9844 52.0798 50.9844H55.106Z" fill="#0079C2"></path><path fill-rule="evenodd" clip-rule="evenodd" d="M73.4748 42.9031L73.9851 44.938L75.2074 50.9844H78.6965L76.5722 41.8038L78.3286 33.4185H74.7921L73.4748 40.9734V33.4185H69.8908L69.8789 50.961H73.4629L73.4748 42.9031Z" fill="#0079C2"></path><path fill-rule="evenodd" clip-rule="evenodd" d="M64.3732 40.9383L61.4894 40.95L61.4657 42.9031L64.3732 42.9382C64.3851 43.6633 64.4207 48.2477 64.3613 48.5752C64.2783 48.9494 63.8036 49.2301 63.4594 48.9143C63.1746 48.657 63.2695 48.1191 63.2695 47.6629C63.2695 46.7157 63.2695 45.7684 63.2695 44.8211L59.6974 44.8328C59.6974 46.3063 59.46 49.0313 60.184 50.0604C60.5637 50.6101 61.2046 50.9375 62.154 50.9843C63.0796 51.0194 64.1003 50.9843 65.0378 50.9843C67.1146 50.9843 67.8741 50.1306 67.9454 48.1191C68.0047 46.2595 67.9454 44.3065 67.9454 42.4353C67.9454 40.5173 67.9454 38.611 67.9454 36.7047C67.9454 32.8922 65.9041 33.4184 62.6168 33.4184C61.6318 33.4184 60.9672 33.5354 60.4213 34.085C59.9229 34.5996 59.7211 35.2896 59.6974 36.2018C59.6736 37.1374 59.6974 38.0964 59.6974 39.0437H63.2695C63.2695 38.19 63.2695 37.3363 63.2695 36.4708C63.2695 36.0264 63.1983 35.6288 63.5306 35.4417C63.9222 35.2195 64.2783 35.4884 64.3495 35.8042C64.4207 36.12 64.3732 40.26 64.3732 40.9383Z" fill="#0079C2"></path></g><defs><clipPath id="clip0_538_6382"><rect width="79" height="51" fill="white"></rect></clipPath></defs></svg> 