<?xml version="1.0" encoding="UTF-8"?> <svg xmlns="http://www.w3.org/2000/svg" width="48" height="48" viewBox="0 0 48 48" fill="none"><path d="M8 33V11H29L29 36H11C9.34315 36 8 34.6569 8 33Z" fill="url(#paint0_linear_5880_51146)"></path><path d="M16 37V8H34L40 14V40L19 40C17.3431 40 16 38.6569 16 37Z" fill="#0094F9"></path><path d="M34 12V8L37 11L40 14H36C34.8954 14 34 13.1046 34 12Z" fill="#FF5534"></path><path d="M21 29V27H31V29H21Z" fill="white"></path><path d="M21 33V31H27V33H21Z" fill="white"></path><defs><linearGradient id="paint0_linear_5880_51146" x1="19.5173" y1="11" x2="19.5173" y2="37.1905" gradientUnits="userSpaceOnUse"><stop stop-color="#5CBAF6"></stop><stop offset="1" stop-color="#D6EAFF"></stop></linearGradient></defs></svg> 