<?xml version="1.0" encoding="UTF-8"?> <svg xmlns="http://www.w3.org/2000/svg" width="32" height="32" viewBox="0 0 32 32" fill="none"><path d="M0 29V11H11.8125L15.75 14.9375V32L3 32C1.34315 32 0 30.6569 0 29Z" fill="url(#paint0_linear_20014_289689)"></path><path d="M3 21H10V23H3V21Z" fill="white"></path><path d="M3 25H7V27H3V25Z" fill="white"></path><path d="M11.8125 12.9375V11L13.7812 12.9688L15.75 14.9375H13.8125C12.7079 14.9375 11.8125 14.0421 11.8125 12.9375Z" fill="url(#paint1_linear_20014_289689)"></path><path d="M32 30H7C5.89543 30 5 29.1046 5 28V13.6364L18.5 0L32 13.6364V30Z" fill="#0094F9"></path><rect x="20" y="14" width="4" height="4" fill="#FF5534"></rect><rect x="20" y="21" width="4" height="4" fill="white"></rect><path d="M0 29V10H17V32L3 32C1.34315 32 0 30.6569 0 29Z" fill="url(#paint2_linear_20014_289689)"></path><path d="M3 14H10V16H3V14Z" fill="white"></path><path d="M3 18H7V20H3V18Z" fill="white"></path><defs><linearGradient id="paint0_linear_20014_289689" x1="8.63798" y1="11" x2="8.63798" y2="33" gradientUnits="userSpaceOnUse"><stop stop-color="#5CBAF6"></stop><stop offset="1" stop-color="#D6EAFF"></stop></linearGradient><linearGradient id="paint1_linear_20014_289689" x1="13.972" y1="11" x2="13.972" y2="15.125" gradientUnits="userSpaceOnUse"><stop stop-color="#5CBAF6"></stop><stop offset="1" stop-color="#D6EAFF"></stop></linearGradient><linearGradient id="paint2_linear_20014_289689" x1="9.32353" y1="10" x2="9.32353" y2="33.0476" gradientUnits="userSpaceOnUse"><stop stop-color="#5CBAF6"></stop><stop offset="1" stop-color="#D6EAFF"></stop></linearGradient></defs></svg> 