<?xml version="1.0" encoding="UTF-8"?> <svg xmlns="http://www.w3.org/2000/svg" width="100" height="100" viewBox="0 0 100 100" fill="none"><path fill-rule="evenodd" clip-rule="evenodd" d="M83.5 16H17.5C17.1022 16 16.7206 16.158 16.4393 16.4393C16.158 16.7206 16 17.1022 16 17.5V84.5C16 84.8978 16.158 85.2794 16.4393 85.5607C16.7206 85.842 17.1022 86 17.5 86H83.5C83.8978 86 84.2794 85.842 84.5607 85.5607C84.842 85.2794 85 84.8978 85 84.5V17.5C85 17.1022 84.842 16.7206 84.5607 16.4393C84.2794 16.158 83.8978 16 83.5 16ZM82 83H19V19H82V83Z" fill="#2F79BD"></path><path fill-rule="evenodd" clip-rule="evenodd" d="M42.81 44.1108L41.67 51.0008C41.5954 51.4298 41.6431 51.8712 41.8075 52.2744C41.972 52.6776 42.2466 53.0263 42.6 53.2808C42.9403 53.527 43.343 53.6725 43.762 53.7008C44.1811 53.7291 44.5997 53.639 44.97 53.4408L50.97 50.2508L56.68 53.3908C57.0499 53.5974 57.4708 53.6948 57.8938 53.6718C58.3168 53.6488 58.7247 53.5063 59.07 53.2608C59.4199 53.0079 59.6924 52.6624 59.8567 52.2632C60.021 51.8639 60.0706 51.4267 60 51.0008L58.87 44.1008L63.65 39.2208C63.9529 38.9139 64.1648 38.5289 64.2619 38.1087C64.359 37.6885 64.3376 37.2495 64.2 36.8408C64.0698 36.4393 63.8308 36.0818 63.5094 35.8081C63.1881 35.5345 62.7971 35.3554 62.38 35.2908L55.83 34.2908L52.89 28.0508C52.708 27.6577 52.4174 27.3249 52.0523 27.0916C51.6873 26.8583 51.2632 26.7344 50.83 26.7344C50.3968 26.7344 49.9727 26.8583 49.6076 27.0916C49.2426 27.3249 48.952 27.6577 48.77 28.0508L45.83 34.2908L39.28 35.2908C38.8611 35.3537 38.468 35.532 38.1447 35.8058C37.8215 36.0795 37.5809 36.4379 37.45 36.8408C37.3104 37.2509 37.2879 37.6918 37.3851 38.114C37.4822 38.5362 37.6952 38.9229 38 39.2308L42.81 44.1108ZM47.1 37.1108C47.3427 37.0739 47.5726 36.9781 47.7697 36.8316C47.9667 36.6852 48.1248 36.4926 48.23 36.2708L50.86 30.6908L53.49 36.2708C53.5952 36.4926 53.7533 36.6852 53.9503 36.8316C54.1473 36.9781 54.3773 37.0739 54.62 37.1108L60.62 38.0308L56.22 42.5208C56.0553 42.6886 55.9324 42.8928 55.8612 43.1169C55.79 43.341 55.7724 43.5787 55.81 43.8108L56.81 50.0608L51.69 47.2408C51.472 47.1226 51.2279 47.0608 50.98 47.0608C50.732 47.0608 50.488 47.1226 50.27 47.2408L44.82 50.1308L45.82 43.8208C45.8575 43.5887 45.84 43.351 45.7688 43.1269C45.6975 42.9028 45.5746 42.6986 45.41 42.5308L41.01 38.0408L47.1 37.1108ZM58.5 64.0008H42.5C42.1022 64.0008 41.7206 64.1588 41.4393 64.4401C41.158 64.7214 41 65.103 41 65.5008C41 65.8986 41.158 66.2802 41.4393 66.5615C41.7206 66.8428 42.1022 67.0008 42.5 67.0008H58.5C58.8978 67.0008 59.2793 66.8428 59.5606 66.5615C59.842 66.2802 60 65.8986 60 65.5008C60 65.103 59.842 64.7214 59.5606 64.4401C59.2793 64.1588 58.8978 64.0008 58.5 64.0008ZM58.5 73.0008H42.5C42.1022 73.0008 41.7206 73.1588 41.4393 73.4401C41.158 73.7214 41 74.103 41 74.5008C41 74.8986 41.158 75.2802 41.4393 75.5615C41.7206 75.8428 42.1022 76.0008 42.5 76.0008H58.5C58.8978 76.0008 59.2793 75.8428 59.5606 75.5615C59.842 75.2802 60 74.8986 60 74.5008C60 74.103 59.842 73.7214 59.5606 73.4401C59.2793 73.1588 58.8978 73.0008 58.5 73.0008Z" fill="#2F79BD"></path></svg> 