<?xml version="1.0" encoding="UTF-8"?> <svg xmlns="http://www.w3.org/2000/svg" viewBox="1950 2450 100 100" width="100" height="100"><path fill="#ffffff" stroke="none" fill-opacity="1" stroke-width="1" stroke-opacity="1" color="rgb(51, 51, 51)" fill-rule="evenodd" font-size-adjust="none" id="tSvg16b889caef9" title="Path 3" d="M 1999.465 2521.651 C 1999.465 2520.765 1998.746 2520.047 1997.861 2520.047 C 1986.6053333333334 2520.047 1975.3496666666667 2520.047 1964.094 2520.047 C 1964.928 2505.383 1977.119 2493.709 1991.985 2493.709 C 1997.3448368358195 2493.701584800369 2002.592633411701 2495.243075297016 2007.097 2498.148 C 2008.1459002352824 2498.8009484127847 2009.508300273088 2498.073573358359 2009.549320068279 2496.838724902177 C 2009.5677434086826 2496.2841138089398 2009.2983723905045 2495.759331642057 2008.837 2495.451 C 2003.8136723519647 2492.211400377126 1997.9613542995444 2490.4921289290387 1991.984 2490.5 C 1974.81 2490.5 1960.838 2504.475 1960.838 2521.651 C 1960.838 2522.537 1961.557 2523.255 1962.442 2523.255 C 1974.2476666666666 2523.255 1986.0533333333333 2523.255 1997.859 2523.255C 1998.7456460076423 2523.2561060004728 1999.4650006889244 2522.5376466974535 1999.465 2521.651Z M 1991.465 2487.931 C 2001.425 2487.931 2009.528 2479.827 2009.528 2469.865 C 2009.528 2459.91 2001.424 2451.811 1991.465 2451.811 C 1981.512 2451.811 1973.414 2459.91 1973.414 2469.865C 1973.414 2479.827 1981.512 2487.931 1991.465 2487.931Z M 1991.465 2455.02 C 1999.655 2455.02 2006.319 2461.68 2006.319 2469.865 C 2006.319 2478.057 1999.655 2484.722 1991.465 2484.722 C 1983.281 2484.722 1976.623 2478.057 1976.623 2469.865C 1976.623 2461.679 1983.282 2455.02 1991.465 2455.02Z"></path><path fill="#ffffff" stroke="none" fill-opacity="1" stroke-width="1" stroke-opacity="1" color="rgb(51, 51, 51)" fill-rule="evenodd" font-size-adjust="none" id="tSvg14a361260f5" title="Path 4" d="M 2040.958 2539.211 C 2037.5116666666668 2534.1986666666667 2034.0653333333332 2529.1863333333336 2030.619 2524.174 C 2032.5970068461822 2521.5558049823103 2033.675634465943 2518.368328837736 2033.694 2515.087 C 2033.756 2506.612 2026.913 2499.666 2018.437 2499.604 C 2009.953 2499.545 2003.015 2506.397 2002.954 2514.871 C 2002.9340759138338 2518.1508393303207 2003.9705312923395 2521.349966137469 2005.91 2523.995 C 2002.3883333333333 2528.959 1998.8666666666666 2533.923 1995.345 2538.887 C 1994.631569921766 2539.896679984757 1995.2786867681466 2541.3000406901774 1996.509810323756 2541.4130492693735 C 1996.6700434425202 2541.4277575551578 1996.8315771659022 2541.418302212002 1996.989 2541.385 C 1999.7513333333334 2540.7946666666667 2002.5136666666667 2540.204333333333 2005.276 2539.614 C 2005.7606666666666 2542.2063333333335 2006.2453333333333 2544.7986666666666 2006.73 2547.391 C 2006.9566064614714 2548.6047879614343 2008.412199511642 2549.118096746899 2009.3500674903162 2548.3149558138857 C 2009.499664740703 2548.1868485770638 2009.6243891790496 2548.0322853590196 2009.718 2547.859 C 2012.5466666666666 2542.625 2015.3753333333334 2537.391 2018.204 2532.157 C 2020.9583333333333 2537.4306666666666 2023.7126666666666 2542.704333333333 2026.467 2547.978 C 2027.0352817489072 2549.0733479415776 2028.5762067705318 2549.1427573649294 2029.2406650394673 2548.1029369630796 C 2029.3479919450263 2547.9349795287535 2029.4230535387921 2547.748478739411 2029.462 2547.553 C 2029.9843333333333 2544.9683333333332 2030.5066666666667 2542.3836666666666 2031.029 2539.799 C 2033.7786666666666 2540.428 2036.5283333333334 2541.057 2039.278 2541.686 C 2040.481164121482 2541.9635388269817 2041.533586288811 2540.8345372257327 2041.1723599027725 2539.6537971181165C 2041.124101047273 2539.4960534746883 2041.0517975364255 2539.346698181037 2040.958 2539.211Z M 2018.335 2502.813 C 2018.3616666666667 2502.813 2018.3883333333333 2502.813 2018.415 2502.813 C 2025.12 2502.862 2030.534 2508.358 2030.485 2515.064 C 2030.485 2515.0643333333333 2030.485 2515.0646666666667 2030.485 2515.065 C 2030.4720078778164 2518.2904414275777 2029.1675183523016 2521.376268655361 2026.863 2523.633 C 2024.5934012797243 2525.881399217156 2021.52573343891 2527.1394595639076 2018.331 2527.132 C 2018.3003333333334 2527.132 2018.2696666666666 2527.132 2018.239 2527.132 C 2011.537 2527.086 2006.12 2521.594 2006.163 2514.893C 2006.212 2508.215 2011.665 2502.813 2018.335 2502.813Z M 2009.052 2542.343 C 2008.744 2540.6966666666667 2008.436 2539.050333333333 2008.128 2537.404 C 2007.9618361969028 2536.5170823578296 2007.0974207136383 2535.9414078538343 2006.215 2536.13 C 2004.258 2536.548 2002.301 2536.966 2000.344 2537.384 C 2002.9343333333334 2533.732666666667 2005.5246666666667 2530.0813333333335 2008.115 2526.43 C 2010.2424827084712 2528.331621755426 2012.8593606168467 2529.6004005344876 2015.67 2530.093C 2013.464 2534.1763333333333 2011.258 2538.259666666667 2009.052 2542.343Z M 2030.1399999999999 2536.302 C 2029.2603343731048 2536.098350215341 2028.3865079126344 2536.662488957319 2028.21 2537.548 C 2027.878 2539.1903333333335 2027.546 2540.8326666666667 2027.214 2542.475 C 2025.0653333333332 2538.361 2022.9166666666667 2534.247 2020.768 2530.133 C 2023.5878786319304 2529.685812223667 2026.225034635665 2528.45421533326 2028.378 2526.579 C 2030.913 2530.2653333333333 2033.448 2533.951666666667 2035.983 2537.638C 2034.0353333333333 2537.192666666667 2032.0876666666666 2536.7473333333332 2030.1399999999999 2536.302Z"></path><defs> </defs></svg> 