<?xml version="1.0" encoding="UTF-8"?> <svg xmlns="http://www.w3.org/2000/svg" width="205" height="136" viewBox="0 0 205 136" fill="none"><path d="M74.355 24.5615L74.0864 23.3867L73.7797 22.2244L73.4474 21.0754L73.1151 19.9521L72.7448 18.841L72.375 17.743L71.9791 16.6841L71.5827 15.6384L71.1737 14.6053L70.7517 13.6112L70.3172 12.6297L69.8957 11.6873L69.4607 10.7575L69.0256 9.86616L68.5911 9.00008L68.1691 8.17474L67.747 7.37351L67.3256 6.61245L66.9291 5.87723L66.5338 5.17873L65.7801 3.89998L65.103 2.76413L64.5152 1.80794L64.017 1.02105L63.6336 0.413242L63.3775 0L63.0338 0.515405L62.6118 1.18692L62.1137 1.98816L61.5383 2.93058L60.9112 4.00271L60.2467 5.17758L59.531 6.45691L58.8023 7.85161L58.432 8.57478L58.0486 9.32378L57.6788 10.086L57.2943 10.8734L56.9245 11.6873L56.5406 12.5132L56.1708 13.3529L55.8129 14.2052L55.4545 15.0701L55.0961 15.9615L54.7525 16.8528L54.4202 17.7568L54.1005 18.6734L53.7943 19.6032L53.4995 20.533L53.2184 21.4771L52.9241 22.5223L52.6555 23.556L52.4005 24.5891L52.1562 25.609L51.9268 26.6283L51.7228 27.6476L51.5189 28.6549L51.3412 29.649L51.1622 30.6425L51.0089 31.636L50.868 32.618L50.7396 33.5989L50.6243 34.5677L50.5215 35.5492L50.4329 36.5048L50.3557 37.4736L50.2926 38.4287L50.2409 39.3722L50.204 40.3279L50.1785 41.2709L50.1523 42.2144V43.158V44.0884L50.1785 45.0176L50.204 45.948L50.2409 46.8772L50.2926 47.8076L50.3438 48.7368L50.421 49.6539L50.4977 50.5711L50.5874 51.5009L50.6897 52.4181L50.793 53.3364L50.9208 54.253L51.0617 55.1702L51.2156 56.0741L51.3815 56.9913L51.5598 57.8832L51.7512 58.7746L51.9557 59.6521L52.1596 60.5182L52.3635 61.3573L52.5805 62.1827L52.7975 62.9959L53.0156 63.784L53.2451 64.56L53.4632 65.2952L53.6807 66.0195L54.1022 67.3482L54.5117 68.5627L54.882 69.6342L55.2018 70.5376L55.4829 71.2728L55.6863 71.8152L55.8152 72.1504L55.8663 72.2669L56.2872 73.2598L56.7223 74.2539L57.1829 75.2469L57.668 76.2409L58.1531 77.223L58.6512 78.1918L59.1618 79.1359L59.6605 80.0651L60.1717 80.9565L60.6699 81.8071L61.168 82.6341L61.653 83.409L62.1256 84.1333L62.5868 84.8048L63.0213 85.4247L63.4309 85.9797L63.7256 85.567L64.0579 85.1142L64.4021 84.624L64.7605 84.0816L65.1439 83.4882L65.5392 82.8545L65.9488 82.183L66.3833 81.4598L66.8047 80.6988L67.2523 79.9108L67.6999 79.0711L68.16 78.1935L68.6212 77.2763L69.0812 76.3201L69.5425 75.3393L70.0025 74.3194L70.4637 73.2598L70.9238 72.1625L71.3714 71.0392L71.8065 69.8891L72.2416 68.6884L72.6636 67.4745L73.0725 66.221L73.4684 64.9422L73.8518 63.6382L74.2096 62.3089L74.555 60.9527L74.8748 59.558L75.1695 58.1501L75.4501 56.7164L75.7052 55.2574L75.9227 53.772L76.0374 52.9467L76.1402 52.1202L76.2431 51.3069L76.3328 50.4936L76.4095 49.6804L76.4862 48.8671L76.5498 48.0664L76.6009 47.2531L76.652 46.4393L76.6901 45.6134L76.7156 44.7995L76.7275 43.9742V43.1345V42.2954L76.7156 41.4431L76.6776 40.5775L76.6406 39.712L76.5895 38.8207L76.5253 37.9293L76.4487 37.0122L76.3453 36.0824L76.2431 35.1382L76.1278 34.1826L75.9875 33.2012L75.8466 32.2082L75.6807 31.1883L75.5024 30.1426L75.311 29.0705L75.0929 27.9857L74.8759 26.8751L74.6328 25.7255L74.355 24.5615ZM63.3769 82.8419L63.1082 82.3127L62.814 81.7187L62.5192 81.0851L62.225 80.3757L61.9183 79.6135L61.6116 78.7996L61.4707 78.36L61.3168 77.9215L61.1759 77.4548L61.0351 76.9773L60.8942 76.4872L60.7664 75.9838L60.6386 75.4523L60.5097 74.9122L60.3819 74.3549L60.2791 73.7879L60.1643 73.2059L60.0746 72.5992L59.9718 71.9909L59.8945 71.3578L59.8179 70.7121L59.7542 70.0406L59.6918 69.3691L59.6537 68.6706L59.6151 67.9474L59.5895 67.2242V66.5137L59.6151 65.8163L59.6537 65.1184L59.7048 64.4354L59.7684 63.7639L59.8451 63.0924L59.9343 62.4467L60.0365 61.801L60.1518 61.1673L60.2796 60.5475L60.4086 59.954L60.5494 59.36L60.6903 58.7923L60.8437 58.2368L60.9976 57.695L61.1509 57.1652L61.3168 56.6619L61.4826 56.1717L61.6485 55.7068L61.8024 55.2666L62.1347 54.4412L62.4414 53.7054L62.7356 53.0598L63.0043 52.5174L63.2338 52.0921L63.4252 51.7816L63.5916 52.0921L63.7955 52.4916L64.0255 52.9823L64.2811 53.5757L64.5617 54.2473L64.8423 55.0089L65.1377 55.848L65.4319 56.7652L65.5858 57.2553L65.7267 57.7587L65.867 58.2878L66.0078 58.8302L66.1362 59.3852L66.264 59.9666L66.3924 60.5486L66.5071 61.1559L66.6099 61.7895L66.7121 62.4226L66.8013 63.0809L66.8911 63.7386L66.9535 64.4228L67.0177 65.1201L67.0688 65.8307L67.0944 66.5401L67.1069 67.25V67.948L67.0944 68.6315L67.0575 69.3151L67.0194 69.9729L66.9552 70.6306L66.8928 71.2763L66.8155 71.9099L66.7269 72.5298L66.6235 73.1365L66.5088 73.7305L66.3946 74.3125L66.2657 74.8807L66.1379 75.4357L65.997 75.9781L65.8562 76.5072L65.7159 77.0238L65.562 77.5272L65.408 78.0173L65.2416 78.4833L64.9218 79.3747L64.6021 80.2006L64.2698 80.9611L63.9631 81.6601L63.6564 82.28L63.3769 82.8419ZM73.5366 45.9726L73.511 46.876L73.473 47.78L73.4218 48.6966L73.3707 49.6006L73.3071 50.4919L73.2304 51.3838L73.1532 52.2493L73.0646 53.1005L72.9612 53.9402L72.859 54.7414L72.7567 55.5295L72.6414 56.2785L72.5125 57.0016L72.3972 57.6731L72.2563 58.3068L72.1285 58.9002L72.1666 57.8935L72.1785 56.8472V55.7625L72.1666 54.6393L72.1155 53.4891L72.0638 52.3142L71.9865 51.1129L71.8973 49.9117L71.7832 48.6978L71.6542 47.4971L71.5134 46.2832L71.36 45.0951L71.1811 43.9202L70.9891 42.7591L70.7858 41.6227L70.5677 40.5247L70.4524 39.9824L70.3246 39.4015L70.1843 38.8075L70.0304 38.2002L69.6856 36.9347L69.3153 35.6175L68.9063 34.2744L68.4587 32.8924L67.9986 31.4977L67.5005 30.1162L67.0024 28.7468L66.4781 27.4037L66.2225 26.7454L65.9539 26.0997L65.6841 25.4666L65.416 24.8468L65.1462 24.2527L64.8775 23.6719L64.6089 23.1158L64.3533 22.5734L64.0846 22.058L63.829 21.5799L63.5734 21.1138L63.3178 20.6747L63.0753 21.088L62.8453 21.5282L62.6022 21.9805L62.3591 22.4586L62.1165 22.9487L61.8729 23.4653L61.6184 23.995L61.3742 24.55L60.876 25.6991L60.3779 26.9009L59.8928 28.1665L59.4072 29.4579L58.9341 30.8015L58.474 32.156L58.0264 33.5381L57.605 34.9328L57.2091 36.3286L56.8251 37.7233L56.6473 38.4206L56.4815 39.1048L56.3156 39.7889L56.1617 40.4725L56.0208 41.1561L55.88 41.8397L55.7522 42.537L55.6232 43.2355L55.521 43.9443L55.4057 44.6422L55.316 45.3516L55.2279 46.0616L55.0621 47.4563L54.9331 48.8384L54.8178 50.194L54.7298 51.4975L54.6525 52.7515L54.6009 53.9385L54.5639 55.0502L54.5384 56.0701L54.5259 56.9873L54.5162 57.8126V58.4973L54.5043 59.0655L54.4276 58.5874L54.3248 57.9802L54.2101 57.2559L54.0953 56.4306L53.98 55.5008L53.8647 54.4803L53.7494 53.3697L53.6347 52.1931L53.5325 50.9539L53.4433 49.6505L53.3666 48.2948L53.3155 46.9001L53.2774 45.4664L53.2655 44.0075V43.2711L53.2774 42.5347L53.2894 41.7857L53.3155 41.0505L53.341 40.4306L53.3785 39.8228L53.416 39.2029L53.4671 38.5951L53.5824 37.3818L53.7102 36.1679L53.8642 34.9798L54.03 33.8187L54.2078 32.6829L54.3862 31.5849L54.5906 30.526L54.782 29.5187L54.9854 28.5499L55.1899 27.6465L55.3813 26.8074L55.5596 26.0314L55.738 25.3341L55.9038 24.7142L56.198 23.7586L56.5053 22.8156L56.8001 21.9116L57.1068 21.0197L57.4011 20.1542L57.7078 19.3145L58.0031 18.4892L58.2973 17.7011L58.8852 16.1899L59.46 14.7683L60.0098 13.4648L60.5466 12.2515L61.0447 11.1535L61.5059 10.1721L61.9404 9.30599L62.3238 8.54494L62.6561 7.9113L62.9373 7.39589L63.1548 7.00848L63.3207 6.7502L63.4871 7.0343L63.7427 7.46017L64.0625 8.04216L64.447 8.75156L64.8815 9.6033L65.3796 10.5589L65.9039 11.6311L66.4537 12.7921L67.0297 14.0462L67.6045 15.3749L67.8987 16.0591L68.194 16.7696L68.4883 17.4928L68.7694 18.2286L69.0506 18.9776L69.3317 19.7398L69.6004 20.5008L69.8696 21.2762L70.1246 22.0643L70.3802 22.8517L70.6103 23.653L70.8403 24.4536L71.0437 25.2549L71.2481 26.0417L71.4395 26.843L71.6179 27.6304L71.7962 28.4064L71.9502 29.1944L72.1041 29.9693L72.258 30.7315L72.3864 31.4925L72.5142 32.2541L72.6295 33.0037L72.7323 33.7389L72.9362 35.1859L73.0901 36.6064L73.2299 37.9753L73.3327 39.2925L73.4218 40.558L73.4855 41.7719L73.5229 42.921L73.5349 44.0069V45.0256V45.9704H73.5377V45.9726H73.5366Z" fill="#0079C2"></path><path d="M68.2187 88.9207H46.5441V103.63L46.5696 103.605L46.5952 103.566L47.0808 103.1L47.592 102.662L48.1027 102.248L48.64 101.874L49.2023 101.525L49.7646 101.215L50.3394 100.918L50.9278 100.66L51.5152 100.44L52.1161 100.246L52.7295 100.079L53.3429 99.9371L53.9694 99.8332L54.5954 99.7563L55.2219 99.7173L55.8478 99.6915L56.4743 99.7173L57.1002 99.7563L57.7261 99.8332L58.3396 99.9371L58.9655 100.079L59.567 100.246L60.1804 100.44L60.7677 100.66L61.355 100.918L61.931 101.215L62.4933 101.525L63.0431 101.874L63.5799 102.248L64.1036 102.662L64.6147 103.1L65.1004 103.566L65.5605 104.069L65.9944 104.573L66.4039 105.103L66.7748 105.644L67.1196 106.2L67.4388 106.768L67.7211 107.349L67.9761 107.943L68.1937 108.551L68.3976 109.157L68.5634 109.777L68.6918 110.397L68.794 111.03L68.8701 111.649L68.9218 112.283L68.9343 112.928L68.9218 113.56L68.8701 114.194L68.794 114.825L68.6918 115.446L68.5634 116.066L68.3976 116.685L68.1937 117.293L67.9761 117.9L67.7211 118.494L67.4388 119.074L67.1196 119.643L66.7748 120.199L66.4039 120.742L65.9944 121.271L65.5605 121.774L65.1004 122.277L65.0618 122.303L65.0362 122.33L64.9987 122.368L64.9601 122.407L64.4744 122.885L63.9758 123.336L63.4771 123.776L62.9789 124.201L62.4552 124.616L61.931 125.015L61.4067 125.39L60.87 125.765L60.3207 126.113L59.7709 126.448L59.2092 126.771L58.6463 127.082L58.0715 127.379L57.4972 127.65L56.9213 127.907L56.3334 128.154L55.7456 128.385L55.1446 128.605L54.5573 128.812L53.9439 128.993L53.3429 129.173L52.7295 129.328L52.1286 129.471L51.5152 129.599L50.8892 129.716L50.2758 129.807L49.6499 129.884L49.0364 129.961L48.4099 130.013L47.7834 130.051L47.1575 130.065L46.5441 130.078L45.9182 130.065L45.2917 130.051L44.6657 130.013L44.0392 129.961L43.4133 129.884L42.7868 129.807L42.1734 129.702L41.5463 129.599L40.9335 129.471L40.32 129.328L39.7066 129.161L39.0937 128.993L38.4928 128.799L37.8919 128.593L37.2915 128.373L36.7036 128.141L36.1158 127.896L35.5404 127.636L34.9531 127.353L34.3902 127.056L33.8154 126.746L33.2656 126.423L32.7038 126.087L32.154 125.725L31.6173 125.364L31.0805 124.977L30.5563 124.576L30.0445 124.163L29.5344 123.724L29.0357 123.285L28.5376 122.82L28.0645 122.342L27.2335 121.476L26.4673 120.585L25.738 119.669L25.0615 118.725L24.4225 117.758L23.8341 116.762L23.2979 115.756L22.7992 114.736L22.3527 113.691L21.9557 112.631L21.5979 111.56L21.2912 110.488L21.0231 109.389L20.8055 108.291L20.6391 107.194L20.5113 106.084L20.4358 104.96L20.4096 103.849L20.4221 102.725L20.4858 101.615L20.6011 100.505L20.7544 99.3941L20.9589 98.2968L21.202 97.1994L21.4956 96.1146L21.841 95.0425L22.2238 93.9835L22.6589 92.9372L23.1315 91.9041L23.6682 90.8974L24.2436 89.9028L24.857 88.9207L25.2149 88.4042L25.5716 87.9003L25.9555 87.3969L26.352 86.8936L26.7609 86.4149L27.1824 85.9259L27.6175 85.4598L28.0645 84.9955L28.5376 84.518L29.0357 84.0525L29.5344 83.614L30.0445 83.1749L30.5563 82.7611L31.0805 82.3611L31.6173 81.9742L32.154 81.6121L32.7038 81.2494L33.2656 80.9147L33.8154 80.5922L34.3902 80.2817L34.9531 79.9838L35.5404 79.7008L36.1158 79.4431L36.7036 79.1975L37.2915 78.9518L37.8919 78.732L38.4928 78.5386L39.0937 78.3446L39.7066 78.1776L40.32 78.0094L40.9335 77.8671L41.5463 77.7379L42.1734 77.6214L42.7868 77.5319L43.4133 77.4406L44.0392 77.3752L44.6657 77.3241L45.2917 77.2862L45.9182 77.2604H46.5441V41.9023L44.1415 41.9534L41.7775 42.1468L39.4516 42.4447L37.1637 42.858L34.9145 43.3739L32.7038 44.007L30.5438 44.7554L28.4223 45.5946L26.3645 46.5381L24.3583 47.5712L22.4027 48.7076L20.5244 49.9347L18.6966 51.2376L16.9335 52.6334L15.2466 54.1188L13.6358 55.6679L12.0897 57.3077L10.6328 59.0129L9.24009 60.7812L7.94905 62.6282L6.73468 64.5394L5.62312 66.5023L4.58824 68.5433L3.6556 70.6221L2.82462 72.7526L2.09532 74.9354L1.46939 77.1697L0.945706 79.4431L0.536752 81.7671L0.2431 84.1174L0.0636151 86.5061L0 88.9207L0.0636151 91.3491L0.2431 93.7379L0.536752 96.0888L0.945706 98.4001L1.46939 100.672L2.09532 102.907L2.82462 105.089L3.6556 107.234L4.58824 109.312L5.62312 111.34L6.73468 113.316L7.94905 115.214L9.24009 117.06L10.6328 118.842L12.0897 120.548L13.6358 122.174L15.2466 123.737L16.9335 125.222L18.6966 126.616L20.5244 127.922L22.4027 129.148L24.3583 130.285L26.3645 131.317L28.4223 132.259L30.5438 133.099L32.7038 133.836L34.9145 134.468L37.1637 134.998L39.4516 135.411L41.7775 135.708L44.1415 135.889L46.5441 135.953L47.7965 135.941L49.0364 135.889L50.2758 135.811L51.5027 135.695L52.717 135.54L53.9183 135.359L55.1191 135.153L56.3079 134.921L57.4836 134.649L58.6463 134.353L59.7965 134.016L60.9342 133.655L62.0588 133.267L63.1834 132.854L64.2825 132.416L65.3685 131.95L66.4295 131.446L67.4899 130.93L68.5379 130.374L69.5608 129.807L70.5701 129.199L71.567 128.579L72.5382 127.933L73.4959 127.262L74.4427 126.565L75.3629 125.842L76.2699 125.105L77.1645 124.344L78.0205 123.556L78.877 122.742L79.6955 121.916L80.5128 121.064V88.9207H68.2187Z" fill="#0079C2"></path><path d="M110.718 88.9414H122.821V136H113.503V106.478H113.184L108.392 136H100.941L96.1491 106.478H95.8173V136H86.5V88.9414H98.6153L104.66 122.014L110.718 88.9414Z" fill="#0079C2"></path><path d="M128.027 97.3319V96.6995L128.053 96.0279L128.065 95.6916L128.103 95.3432L128.14 94.9822L128.178 94.6338L128.241 94.2866L128.305 93.9244L128.394 93.576L128.483 93.2288L128.599 92.8925L128.727 92.5573L128.867 92.2209L129.033 91.8978L129.211 91.5885L129.415 91.2911L129.632 91.0076L129.876 90.7229L130.145 90.4652L130.439 90.2196L130.759 89.9998L131.102 89.7794L131.473 89.5997L131.869 89.4316L132.304 89.2892L132.765 89.1595L133.263 89.0705L133.788 88.9913L134.337 88.954L134.938 88.9414H142.658L143.245 88.954L143.807 88.9913L144.332 89.0705L144.83 89.1595L145.291 89.2892L145.712 89.4316L146.122 89.5997L146.492 89.7794L146.836 89.9998L147.143 90.2196L147.437 90.4652L147.707 90.7229L147.95 91.0076L148.18 91.2911L148.383 91.5885L148.561 91.8978L148.715 92.2209L148.869 92.5573L148.996 92.8925L149.1 93.2288L149.203 93.576L149.279 93.9244L149.356 94.2866L149.409 94.6338L149.46 94.9822L149.497 95.3432L149.523 95.6916L149.549 96.0279L149.575 96.6995V97.3319V127.59V128.224L149.549 128.895L149.523 129.242L149.497 129.591L149.46 129.938L149.409 130.286L149.356 130.648L149.279 130.996L149.203 131.344L149.1 131.692L148.996 132.04L148.869 132.376L148.715 132.699L148.561 133.022L148.383 133.332L148.18 133.642L147.95 133.926L147.707 134.197L147.437 134.455L147.143 134.701L146.836 134.934L146.492 135.138L146.122 135.332L145.712 135.499L145.291 135.642L144.83 135.758L144.332 135.862L143.807 135.94L143.245 135.978L142.658 135.99H134.939L134.338 135.978L133.788 135.94L133.264 135.862L132.766 135.758L132.304 135.642L131.87 135.499L131.474 135.332L131.103 135.138L130.759 134.934L130.44 134.701L130.145 134.455L129.877 134.197L129.633 133.926L129.416 133.642L129.212 133.332L129.034 133.022L128.867 132.699L128.727 132.376L128.599 132.04L128.484 131.692L128.395 131.344L128.306 130.996L128.241 130.648L128.179 130.286L128.141 129.938L128.103 129.591L128.066 129.242L128.054 128.895L128.028 128.224V127.59L128.027 97.3319ZM140.257 95.6537V95.5114L140.232 95.3564L140.206 95.2141L140.155 95.0717L140.103 94.9415L140.026 94.8112L139.949 94.6958L139.86 94.5804L139.758 94.476L139.642 94.3865L139.514 94.309L139.385 94.2303L139.257 94.1775L139.103 94.1408L138.95 94.115L138.796 94.1018L138.693 94.115L138.578 94.127L138.463 94.1402L138.335 94.177L138.221 94.216L138.092 94.2808L137.977 94.344L137.863 94.422L137.747 94.5253L137.658 94.6298L137.556 94.7601L137.479 94.9024L137.415 95.0574L137.364 95.2376L137.338 95.4316L137.326 95.6514V129.265L137.338 129.485L137.364 129.679L137.415 129.859L137.479 130.014L137.556 130.157L137.658 130.286L137.747 130.402L137.863 130.493L137.977 130.57L138.092 130.648L138.221 130.7L138.335 130.739L138.463 130.776L138.578 130.789L138.693 130.801L138.796 130.813L138.95 130.801L139.103 130.775L139.257 130.737L139.385 130.684L139.514 130.62L139.642 130.53L139.758 130.441L139.86 130.336L139.949 130.232L140.026 130.118L140.103 129.987L140.155 129.846L140.206 129.715L140.232 129.559L140.257 129.418V129.262V95.6537Z" fill="#0079C2"></path><path d="M164.137 119.523V129.272L164.15 129.491L164.176 129.685L164.227 129.865L164.29 130.021L164.367 130.163L164.457 130.292L164.559 130.408L164.674 130.499L164.789 130.576L164.904 130.653L165.032 130.705L165.147 130.744L165.274 130.783L165.389 130.795L165.492 130.809L165.606 130.821L165.76 130.809L165.913 130.783L166.054 130.744L166.194 130.692L166.322 130.628L166.437 130.537L166.552 130.448L166.655 130.343L166.744 130.24L166.833 130.124L166.898 129.995L166.961 129.854L166.999 129.723L167.038 129.568L167.051 129.427L167.064 129.272V114.357H159.549V109.177H167.064V95.6572L167.051 95.5148L167.038 95.3604L166.999 95.2181L166.961 95.0758L166.898 94.9466L166.833 94.8181L166.744 94.701L166.655 94.5856L166.552 94.4817L166.437 94.3916L166.322 94.3147L166.194 94.2372L166.054 94.1838L165.913 94.1465L165.76 94.1207L165.606 94.1069L165.492 94.1207L165.389 94.1328L165.274 94.1465L165.147 94.1838L165.032 94.2235L164.904 94.2889L164.789 94.352L164.674 94.4301L164.559 94.5328L164.457 94.6367L164.367 94.7664L164.29 94.9087L164.227 95.0631L164.176 95.2439L164.15 95.4379L164.137 95.6572V104H154.82V97.3354L154.834 96.7035L154.858 96.032L154.872 95.6956L154.91 95.3467L154.936 94.9862L154.987 94.6367L155.05 94.2889L155.115 93.9267L155.204 93.5778L155.293 93.2294L155.408 92.8925L155.537 92.5573L155.677 92.2209L155.843 91.899L156.022 91.5896L156.227 91.2923L156.443 91.0088L156.686 90.7241L156.955 90.4664L157.248 90.2207L157.568 90.0009L157.913 89.7811L158.284 89.6009L158.68 89.4327L159.115 89.2904L159.574 89.1607L160.061 89.0717L160.585 88.9925L161.147 88.9552L161.747 88.9414H169.466L170.054 88.9552L170.617 88.9925L171.14 89.0717L171.626 89.1607L172.087 89.2904L172.521 89.4327L172.917 89.6009L173.287 89.7811L173.632 90.0009L173.952 90.2207L174.246 90.4664L174.514 90.7241L174.757 91.0088L174.987 91.2923L175.179 91.5896L175.371 91.899L175.524 92.2209L175.678 92.5573L175.792 92.8925L175.907 93.2294L176.01 93.5778L176.086 93.9267L176.163 94.2889L176.214 94.6367L176.265 94.9862L176.303 95.3467L176.329 95.6956L176.355 96.032L176.368 96.7035L176.38 97.3354V127.593L176.368 128.226L176.355 128.897L176.329 129.246L176.303 129.594L176.265 129.943L176.214 130.292L176.163 130.653L176.086 131.003L176.01 131.351L175.907 131.699L175.792 132.048L175.678 132.385L175.524 132.707L175.371 133.03L175.179 133.34L174.987 133.65L174.757 133.934L174.514 134.205L174.246 134.463L173.952 134.709L173.632 134.942L173.287 135.148L172.917 135.341L172.521 135.508L172.087 135.65L171.626 135.768L171.14 135.871L170.617 135.948L170.054 135.987L169.466 136H161.747L161.147 135.987L160.585 135.948L160.061 135.871L159.574 135.768L159.115 135.65L158.68 135.508L158.284 135.341L157.913 135.148L157.568 134.942L157.248 134.709L156.955 134.463L156.686 134.205L156.443 133.934L156.227 133.65L156.022 133.34L155.843 133.03L155.677 132.707L155.537 132.385L155.408 132.048L155.293 131.699L155.204 131.351L155.115 131.003L155.05 130.653L154.987 130.292L154.936 129.943L154.91 129.594L154.872 129.246L154.858 128.897L154.834 128.226L154.82 127.593V119.523H164.137Z" fill="#0079C2"></path><path d="M181.48 88.9414H190.797V109.177H191.129L194.184 88.9414H203.5L198.784 111.529L204.433 136H195.117L191.129 114.357H190.797V136H181.48V88.9414Z" fill="#0079C2"></path></svg> 