<?xml version="1.0" encoding="UTF-8"?> <svg xmlns="http://www.w3.org/2000/svg" width="34" height="32" viewBox="0 0 34 32" fill="none"><path d="M0 28V2H19V30H2C0.895431 30 0 29.1046 0 28Z" fill="url(#paint0_linear_3280_17732)"></path><path d="M3 30V0H20L26 6V32H5C3.89543 32 3 31.1046 3 30Z" fill="#0094F9"></path><path d="M7 23V21H17L17 23H13H7Z" fill="white"></path><path d="M7 27V25H13L13 27H7Z" fill="white"></path><path d="M20 4V0L26 6H22C20.8954 6 20 5.10457 20 4Z" fill="url(#paint1_linear_3280_17732)"></path><rect x="22" y="18" width="2" height="14" fill="url(#paint2_linear_3280_17732)"></rect><path d="M22 24L34 17L22 10L22 24Z" fill="#FF5534"></path><defs><linearGradient id="paint0_linear_3280_17732" x1="10.4204" y1="2" x2="10.4204" y2="31.3333" gradientUnits="userSpaceOnUse"><stop stop-color="#5CBAF6"></stop><stop offset="1" stop-color="#D6EAFF"></stop></linearGradient><linearGradient id="paint1_linear_3280_17732" x1="23.2907" y1="0" x2="23.2907" y2="6.28571" gradientUnits="userSpaceOnUse"><stop stop-color="#5CBAF6"></stop><stop offset="1" stop-color="#D6EAFF"></stop></linearGradient><linearGradient id="paint2_linear_3280_17732" x1="23.0969" y1="18" x2="23.0969" y2="32.6667" gradientUnits="userSpaceOnUse"><stop stop-color="#5CBAF6"></stop><stop offset="1" stop-color="#D6EAFF"></stop></linearGradient></defs></svg> 