<?xml version="1.0" encoding="UTF-8"?> <svg xmlns="http://www.w3.org/2000/svg" width="48" height="48" viewBox="0 0 48 48" fill="none"><path d="M8 38L33 38L33 31L10 31C8.89543 31 8 31.8954 8 33L8 38Z" fill="#0094F9"></path><rect x="22" y="17" width="4" height="6" fill="#0094F9"></rect><circle cx="24" cy="14" r="4" fill="white" stroke="#0094F9" stroke-width="4"></circle><path d="M8 29L40 29L40 22L10 22C8.89543 22 8 22.8954 8 24L8 29Z" fill="#0094F9"></path><circle cx="35" cy="33" r="7" fill="#FF5534"></circle><path d="M34 37L34 29L36 29L36 37L34 37Z" fill="white"></path><path d="M31.1406 34.3047L38.0688 30.3047L38.8688 31.6903L31.9406 35.6903L31.1406 34.3047Z" fill="white"></path><path d="M31.9375 30.3047L38.8657 34.3047L38.0657 35.6903L31.1375 31.6903L31.9375 30.3047Z" fill="white"></path></svg> 