<?xml version="1.0" encoding="UTF-8"?> <svg xmlns="http://www.w3.org/2000/svg" width="48" height="48" viewBox="0 0 48 48" fill="none"><path d="M8 32V10H29L29 35H11C9.34315 35 8 33.6569 8 32Z" fill="url(#paint0_linear_5880_51329)"></path><path d="M11 35V8H28L34 14V38L14 38C12.3431 38 11 36.6569 11 35Z" fill="#0094F9"></path><path d="M28 12V8L31 11L34 14H30C28.8954 14 28 13.1046 28 12Z" fill="#FF5534"></path><path d="M14 19V17H23.7959V19H14Z" fill="white"></path><path d="M14 23V21H19.8776V23H14Z" fill="white"></path><circle cx="33" cy="33" r="7" fill="#FF5534"></circle><path d="M32 34L32 29L34 29L34 34L32 34Z" fill="white"></path><circle cx="33" cy="36" r="1" transform="rotate(180 33 36)" fill="white"></circle><defs><linearGradient id="paint0_linear_5880_51329" x1="19.5173" y1="10" x2="19.5173" y2="36.1905" gradientUnits="userSpaceOnUse"><stop stop-color="#5CBAF6"></stop><stop offset="1" stop-color="#D6EAFF"></stop></linearGradient></defs></svg> 