<?xml version="1.0" encoding="UTF-8"?> <svg xmlns="http://www.w3.org/2000/svg" viewBox="1950 2450 100 100" width="100" height="100"><path fill="#ffffff" stroke="none" fill-opacity="1" stroke-width="1" stroke-opacity="1" color="rgb(51, 51, 51)" fill-rule="evenodd" font-size-adjust="none" id="tSvg10ea38b4d24" title="Path 45" d="M 2039.958 2507.494 C 2038.5599068390954 2506.088343978904 2036.6575495478187 2505.3004658644672 2034.675 2505.306 C 2034.661 2505.3063333333334 2034.647 2505.306666666667 2034.633 2505.307 C 2034.563 2505.304 2028.305 2505.394 2025.327 2498.398 C 2024.476 2496.398 2024.204 2494.147 2024.119 2493.099 C 2025.9301127781641 2491.076500735772 2026.927960548891 2488.454879260427 2026.92 2485.74 C 2026.92 2480.079 2022.649 2475.405 2017.16 2474.751 C 2017.16 2471.083666666667 2017.16 2467.416333333333 2017.16 2463.749 C 2017.16 2462.920572875254 2016.488427124746 2462.249 2015.66 2462.249 C 1996.741 2462.249 1977.8220000000001 2462.249 1958.903 2462.249 C 1958.0745728752538 2462.249 1957.403 2462.920572875254 1957.403 2463.749 C 1957.403 2488.1986666666667 1957.403 2512.6483333333335 1957.403 2537.098 C 1957.403 2537.926427124746 1958.0745728752538 2538.598 1958.903 2538.598 C 1977.822 2538.598 1996.741 2538.598 2015.66 2538.598 C 2016.488427124746 2538.598 2017.16 2537.926427124746 2017.16 2537.098 C 2017.16 2533.4393333333333 2017.16 2529.7806666666665 2017.16 2526.122 C 2024.1546666666666 2526.122 2031.1493333333333 2526.122 2038.144 2526.122 C 2038.9724271247462 2526.122 2039.644 2525.450427124746 2039.644 2524.622 C 2039.644 2523.115 2039.644 2521.608 2039.644 2520.101 C 2039.9773333333333 2520.101 2040.3106666666667 2520.101 2040.644 2520.101 C 2041.4724271247462 2520.101 2042.144 2519.4294271247463 2042.144 2518.601 C 2042.144 2516.6593333333335 2042.144 2514.7176666666664 2042.144 2512.776C 2042.150800409729 2510.793888254755 2041.363526021856 2508.8916086069057 2039.958 2507.494Z M 2023.92 2485.74 C 2023.92 2487.908 2023.07 2489.945 2021.527 2491.474 C 2021.2338892956907 2491.7643255411535 2021.0732942878662 2492.1625577567966 2021.083 2492.575 C 2021.087 2492.726 2021.187 2496.327 2022.567 2499.572 C 2026.268 2508.271 2034.106 2508.304 2034.688 2508.305 C 2035.8697941437683 2508.3056208639155 2037.002652973617 2508.777043845219 2037.836 2509.615 C 2038.6767806183498 2510.450796320189 2039.14784518597 2511.588482074543 2039.144 2512.774 C 2039.144 2514.216 2039.144 2515.658 2039.144 2517.1 C 2038.9196666666667 2517.1 2038.6953333333333 2517.1 2038.471 2517.1 C 2038.366 2517.077 2038.257 2517.062 2038.144 2517.062 C 2038.031 2517.062 2037.923 2517.077 2037.817 2517.1 C 2022.725 2517.1 2007.633 2517.1 1992.541 2517.1 C 1992.541 2515.658 1992.541 2514.216 1992.541 2512.774 C 1992.5441382627996 2510.3233216866047 1994.5174665097359 2508.330826433489 1996.968 2508.304 C 1997.85 2508.353 2005.116 2508.457 2008.952 2499.808 C 2010.267 2496.845 2010.54 2492.756 2010.551 2492.583 C 2010.5779590909235 2492.1545709025486 2010.4199451707775 2491.7351422490037 2010.117 2491.431 C 2008.607896174097 2489.9217524062265 2007.7625274475452 2487.8732897431782 2007.768 2485.739 C 2007.768 2481.286 2011.39 2477.664 2015.842 2477.664C 2020.297 2477.665 2023.92 2481.287 2023.92 2485.74Z M 2014.16 2535.598 C 1996.241 2535.598 1978.3220000000001 2535.598 1960.403 2535.598 C 1960.403 2512.1483333333335 1960.403 2488.6986666666667 1960.403 2465.249 C 1978.322 2465.249 1996.241 2465.249 2014.16 2465.249 C 2014.16 2468.435 2014.16 2471.621 2014.16 2474.807 C 2008.851 2475.622 2004.768 2480.207 2004.768 2485.74 C 2004.768 2488.445 2005.733 2491.005 2007.5 2493.023 C 2007.379 2494.187 2007.036 2496.73 2006.209 2498.592 C 2003.096 2505.612 1997.359 2505.324 1997.126 2505.309 C 1997.086744368746 2505.305836779245 1997.0473825090814 2505.304168905763 1997.008 2505.304 C 1992.89 2505.304 1989.539 2508.655 1989.539 2512.774 C 1989.539 2514.716 1989.539 2516.658 1989.539 2518.6 C 1989.539 2519.428427124746 1990.2105728752538 2520.1 1991.039 2520.1 C 1991.433 2520.1 1991.827 2520.1 1992.221 2520.1 C 1992.2333333333333 2521.611 1992.2456666666667 2523.122 1992.258 2524.633 C 1992.2645901656624 2525.4567444496815 1992.9342291900614 2526.1210368401503 1993.758 2526.121 C 2000.558 2526.121 2007.358 2526.121 2014.158 2526.121C 2014.158 2529.28 2014.158 2532.439 2014.16 2535.598Z M 2036.645 2523.122 C 2029.7726666666667 2523.122 2022.9003333333333 2523.122 2016.028 2523.122 C 2015.91 2523.092 2015.788 2523.071 2015.66 2523.071 C 2015.532 2523.071 2015.411 2523.092 2015.292 2523.122 C 2008.6106666666667 2523.122 2001.9293333333333 2523.122 1995.248 2523.122 C 1995.2396666666666 2522.115 1995.2313333333334 2521.108 1995.223 2520.101 C 2009.0303333333334 2520.101 2022.8376666666666 2520.101 2036.645 2520.101C 2036.645 2521.108 2036.645 2522.115 2036.645 2523.122Z"></path><path fill="#ffffff" stroke="none" fill-opacity="1" stroke-width="1" stroke-opacity="1" color="rgb(51, 51, 51)" fill-rule="evenodd" font-size-adjust="none" id="tSvg798460c90b" title="Path 46" d="M 1985.855 2477.793 C 1979.4973333333332 2477.793 1973.1396666666667 2477.793 1966.782 2477.793 C 1965.6272994616209 2477.793 1964.9056116251338 2479.043 1965.4829618943234 2480.043 C 1965.7509110867545 2480.507101615138 1966.2461016151378 2480.793 1966.782 2480.793 C 1973.1396666666667 2480.793 1979.4973333333332 2480.793 1985.855 2480.793 C 1987.0097005383793 2480.793 1987.7313883748664 2479.543 1987.1540381056766 2478.543C 1986.8860889132454 2478.0788983848624 1986.3908983848623 2477.793 1985.855 2477.793Z M 1985.855 2485.477 C 1979.4973333333332 2485.477 1973.1396666666667 2485.477 1966.782 2485.477 C 1965.6272994616209 2485.477 1964.9056116251338 2486.727 1965.4829618943234 2487.727 C 1965.7509110867545 2488.1911016151375 1966.2461016151378 2488.477 1966.782 2488.477 C 1973.1396666666667 2488.477 1979.4973333333332 2488.477 1985.855 2488.477 C 1987.0097005383793 2488.477 1987.7313883748664 2487.227 1987.1540381056766 2486.227C 1986.8860889132454 2485.762898384862 1986.3908983848623 2485.477 1985.855 2485.477Z M 1985.855 2493.435 C 1979.4973333333332 2493.435 1973.1396666666667 2493.435 1966.782 2493.435 C 1965.6272994616209 2493.435 1964.9056116251338 2494.685 1965.4829618943234 2495.685 C 1965.7509110867545 2496.1491016151376 1966.2461016151378 2496.435 1966.782 2496.435 C 1973.1396666666667 2496.435 1979.4973333333332 2496.435 1985.855 2496.435 C 1987.0097005383793 2496.435 1987.7313883748664 2495.185 1987.1540381056766 2494.185C 1986.8860889132454 2493.7208983848623 1986.3908983848623 2493.435 1985.855 2493.435Z"></path><defs> </defs></svg> 