<?xml version="1.0" encoding="UTF-8"?> <svg xmlns="http://www.w3.org/2000/svg" width="100" height="100" viewBox="0 0 100 100" fill="none"><path d="M63.5 44.5V26.58C64.0719 26.2498 64.5189 25.7401 64.7716 25.13C65.0244 24.5199 65.0687 23.8434 64.8978 23.2055C64.7268 22.5676 64.3502 22.0039 63.8263 21.6019C63.3024 21.1998 62.6604 20.9819 62 20.9819C61.3396 20.9819 60.6977 21.1998 60.1737 21.6019C59.6498 22.0039 59.2731 22.5676 59.1022 23.2055C58.9313 23.8434 58.9756 24.5199 59.2284 25.13C59.4811 25.7401 59.9281 26.2498 60.5 26.58V46C60.5 46.3978 60.658 46.7794 60.9393 47.0607C61.2206 47.342 61.6022 47.5 62 47.5H65.5V62.5H61C60.6022 62.5 60.2206 62.658 59.9393 62.9393C59.658 63.2207 59.5 63.6022 59.5 64V80.42C58.9281 80.7502 58.4811 81.2599 58.2284 81.87C57.9756 82.4802 57.9313 83.1566 58.1022 83.7945C58.2731 84.4324 58.6498 84.9961 59.1737 85.3981C59.6977 85.8002 60.3396 86.0181 61 86.0181C61.6604 86.0181 62.3024 85.8002 62.8263 85.3981C63.3502 84.9961 63.7269 84.4324 63.8978 83.7945C64.0687 83.1566 64.0244 82.4802 63.7716 81.87C63.5189 81.2599 63.0719 80.7502 62.5 80.42V65.5H73.42C73.7502 66.0719 74.2599 66.5189 74.87 66.7716C75.4802 67.0244 76.1566 67.0687 76.7945 66.8978C77.4324 66.7269 77.9961 66.3502 78.3981 65.8263C78.8002 65.3024 79.0181 64.6604 79.0181 64C79.0181 63.3396 78.8002 62.6977 78.3981 62.1737C77.9961 61.6498 77.4324 61.2732 76.7945 61.1022C76.1566 60.9313 75.4802 60.9756 74.87 61.2284C74.2599 61.4811 73.7502 61.9281 73.42 62.5H68.5V47.5H80.42C80.7502 48.0719 81.2599 48.5189 81.87 48.7716C82.4802 49.0244 83.1566 49.0687 83.7945 48.8978C84.4324 48.7269 84.9961 48.3502 85.3981 47.8263C85.8002 47.3024 86.0181 46.6604 86.0181 46C86.0181 45.3396 85.8002 44.6977 85.3981 44.1737C84.9961 43.6498 84.4324 43.2732 83.7945 43.1022C83.1566 42.9313 82.4802 42.9756 81.87 43.2284C81.2599 43.4811 80.7502 43.9281 80.42 44.5H63.5Z" fill="#2F79BD"></path><path d="M95 31.2H79.21V11C79.21 10.6022 79.052 10.2206 78.7707 9.93934C78.4894 9.65804 78.1078 9.5 77.71 9.5H22.29C21.8922 9.5 21.5106 9.65804 21.2293 9.93934C20.948 10.2206 20.79 10.6022 20.79 11V31.2H5C4.80302 31.2 4.60796 31.2388 4.42597 31.3142C4.24399 31.3896 4.07863 31.5001 3.93934 31.6393C3.80005 31.7786 3.68956 31.944 3.61418 32.126C3.5388 32.308 3.5 32.503 3.5 32.7V54.45C3.5 54.8478 3.65804 55.2294 3.93934 55.5107C4.22064 55.792 4.60218 55.95 5 55.95H11.23V77.18C11.23 77.5778 11.388 77.9594 11.6693 78.2407C11.9506 78.522 12.3322 78.68 12.73 78.68H27V92C27 92.3978 27.158 92.7794 27.4393 93.0607C27.7206 93.342 28.1022 93.5 28.5 93.5H71.5C71.8978 93.5 72.2794 93.342 72.5607 93.0607C72.842 92.7794 73 92.3978 73 92V78.68H87.27C87.6678 78.68 88.0494 78.522 88.3307 78.2407C88.612 77.9594 88.77 77.5778 88.77 77.18V55.95H95C95.3978 55.95 95.7794 55.792 96.0607 55.5107C96.342 55.2294 96.5 54.8478 96.5 54.45V32.7C96.5 32.503 96.4612 32.308 96.3858 32.126C96.3104 31.944 96.1999 31.7786 96.0607 31.6393C95.9214 31.5001 95.756 31.3896 95.574 31.3142C95.392 31.2388 95.197 31.2 95 31.2ZM28.5 75.68H14.23V54.45C14.23 54.0522 14.072 53.6706 13.7907 53.3893C13.5094 53.108 13.1278 52.95 12.73 52.95H6.5V34.2H22.29C22.6878 34.2 23.0694 34.042 23.3507 33.7607C23.632 33.4794 23.79 33.0978 23.79 32.7V12.5H48.5V90.5H30V77.18C30 76.7822 29.842 76.4006 29.5607 76.1193C29.2794 75.838 28.8978 75.68 28.5 75.68ZM93.5 52.95H87.27C86.8722 52.95 86.4906 53.108 86.2093 53.3893C85.928 53.6706 85.77 54.0522 85.77 54.45V75.68H71.5C71.1022 75.68 70.7206 75.838 70.4393 76.1193C70.158 76.4006 70 76.7822 70 77.18V90.5H51.5V12.5H76.21V32.7C76.21 33.0978 76.368 33.4794 76.6493 33.7607C76.9306 34.042 77.3122 34.2 77.71 34.2H93.5V52.95Z" fill="#2F79BD"></path><path d="M37.5005 80.42C36.9286 80.7502 36.4816 81.2599 36.2289 81.87C35.9761 82.4802 35.9318 83.1566 36.1027 83.7945C36.2736 84.4324 36.6503 84.9961 37.1742 85.3981C37.6981 85.8002 38.3401 86.0181 39.0005 86.0181C39.6609 86.0181 40.3028 85.8002 40.8268 85.3981C41.3507 84.9961 41.7274 84.4324 41.8983 83.7945C42.0692 83.1566 42.0249 82.4802 41.7721 81.87C41.5194 81.2599 41.0724 80.7502 40.5005 80.42V64C40.5005 63.6022 40.3425 63.2207 40.0612 62.9393C39.7799 62.658 39.3983 62.5 39.0005 62.5H34.5005V47.5H38.0005C38.3983 47.5 38.7799 47.342 39.0612 47.0607C39.3425 46.7794 39.5005 46.3978 39.5005 46V26.58C40.0724 26.2498 40.5194 25.7401 40.7721 25.13C41.0249 24.5199 41.0692 23.8434 40.8983 23.2055C40.7274 22.5676 40.3507 22.0039 39.8268 21.6019C39.3028 21.1998 38.6609 20.9819 38.0005 20.9819C37.3401 20.9819 36.6981 21.1998 36.1742 21.6019C35.6503 22.0039 35.2736 22.5676 35.1027 23.2055C34.9318 23.8434 34.9761 24.5199 35.2289 25.13C35.4816 25.7401 35.9286 26.2498 36.5005 26.58V44.5H19.5805C19.2503 43.9281 18.7406 43.4811 18.1305 43.2284C17.5203 42.9756 16.8439 42.9313 16.206 43.1022C15.5681 43.2732 15.0044 43.6498 14.6024 44.1737C14.2003 44.6977 13.9824 45.3396 13.9824 46C13.9824 46.6604 14.2003 47.3024 14.6024 47.8263C15.0044 48.3502 15.5681 48.7269 16.206 48.8978C16.8439 49.0687 17.5203 49.0244 18.1305 48.7716C18.7406 48.5189 19.2503 48.0719 19.5805 47.5H31.5005V62.5H26.5805C26.2503 61.9281 25.7406 61.4811 25.1305 61.2284C24.5203 60.9756 23.8439 60.9313 23.206 61.1022C22.5681 61.2732 22.0044 61.6498 21.6024 62.1737C21.2003 62.6977 20.9824 63.3396 20.9824 64C20.9824 64.6604 21.2003 65.3024 21.6024 65.8263C22.0044 66.3502 22.5681 66.7269 23.206 66.8978C23.8439 67.0687 24.5203 67.0244 25.1305 66.7716C25.7406 66.5189 26.2503 66.0719 26.5805 65.5H37.5005V80.42Z" fill="#2F79BD"></path></svg> 