<?xml version="1.0" encoding="UTF-8"?> <svg xmlns="http://www.w3.org/2000/svg" width="22" height="22" viewBox="0 0 22 22" fill="none"><path d="M14.3335 8.77775L9.88898 13.2223L7.66672 11M12.3847 1.50978L13.7413 2.66592C14.0831 2.95719 14.5075 3.13328 14.9551 3.169L16.7319 3.3106C17.7765 3.39397 18.6062 4.22318 18.6896 5.2678L18.8308 7.04485C18.8666 7.49249 19.0433 7.91748 19.3346 8.25927L20.4902 9.61555C21.1699 10.4132 21.17 11.5864 20.4903 12.384L19.3347 13.7405C19.0434 14.0823 18.8669 14.5074 18.8312 14.9551L18.689 16.7318C18.6057 17.7764 17.7772 18.6062 16.7326 18.6895L14.9552 18.8314C14.5076 18.8671 14.0828 19.0427 13.741 19.334L12.3847 20.4901C11.5871 21.1699 10.4131 21.17 9.61554 20.4903L8.25918 19.3341C7.91739 19.0428 7.4926 18.8669 7.04497 18.8311L5.26759 18.6895C4.22299 18.6062 3.39454 17.7766 3.31118 16.732L3.16904 14.9552C3.13331 14.5075 2.95682 14.0828 2.66556 13.741L1.50994 12.3841C0.830233 11.5865 0.829915 10.4136 1.50962 9.61598L2.66628 8.25907C2.95755 7.91728 3.13234 7.49249 3.16806 7.04485L3.3102 5.26801C3.39357 4.22339 4.2244 3.39386 5.26901 3.3105L7.04442 3.16889C7.49206 3.13317 7.91705 2.95722 8.25884 2.66595L9.61565 1.50978C10.4132 0.830073 11.5871 0.830073 12.3847 1.50978Z" stroke="#2F79BD" stroke-width="2" stroke-linecap="round" stroke-linejoin="round"></path></svg> 