<?xml version="1.0" encoding="UTF-8"?> <svg xmlns="http://www.w3.org/2000/svg" width="23" height="23" viewBox="0 0 23 23" fill="none"><path d="M13.0057 12.9092H7V11.2461H12.983C13.4981 11.2461 13.9242 11.1509 14.2614 10.9604C14.5985 10.7658 14.8485 10.4992 15.0114 10.1606C15.1742 9.81787 15.2557 9.42432 15.2557 8.97998C15.2557 8.53988 15.1742 8.14632 15.0114 7.79932C14.8485 7.45231 14.6004 7.17936 14.267 6.98047C13.9337 6.77734 13.5133 6.67578 13.0057 6.67578H10.5284V18H8.77841V5H13.0057C13.8883 5 14.625 5.17773 15.2159 5.5332C15.8106 5.88867 16.2557 6.36686 16.5511 6.96777C16.8504 7.56869 17 8.2373 17 8.97363C17 9.71842 16.8485 10.3892 16.5455 10.9858C16.2462 11.5783 15.7992 12.048 15.2045 12.395C14.6136 12.7378 13.8807 12.9092 13.0057 12.9092ZM13.0909 14.001V15.6704H7V14.001H13.0909Z" fill="#2F79BD"></path><rect x="1" y="1" width="21" height="21" rx="10.5" stroke="#2F79BD" stroke-width="2"></rect></svg> 