<?xml version="1.0" encoding="UTF-8"?> <svg xmlns="http://www.w3.org/2000/svg" width="66" height="48" viewBox="0 0 66 48" fill="none"><path d="M25.4287 11.2657C24.6321 7.66237 22.619 4.74112 22.3438 4.2666C21.9093 4.93389 20.3017 7.51408 19.4906 10.376C18.6071 13.5642 18.4768 16.3965 18.7809 19.1843C19.0851 21.9721 20.2437 24.834 20.2437 24.834C20.852 26.3317 21.7789 27.948 22.3728 28.7339C23.2417 27.5773 25.2549 24.0926 25.8777 19.555C26.2253 17.0638 26.2397 14.8543 25.4287 11.2657ZM22.3438 27.859C21.9527 27.1028 21.3444 25.6496 21.2865 23.4104C21.272 21.2454 22.1121 19.3919 22.3583 19.0063C22.5755 19.3919 23.2997 21.0082 23.3866 23.2177C23.459 25.3827 22.7493 27.088 22.3438 27.859ZM25.197 17.3603C25.168 18.7246 25.0087 20.1778 24.8059 21.0378C24.8783 19.5401 24.7045 17.4493 24.3714 15.8033C24.0383 14.1573 23.0969 11.414 22.3293 10.1536C21.6341 11.3695 20.7651 13.7273 20.3161 15.7885C19.8672 17.8497 19.8527 20.3409 19.8527 21.0823C19.7368 20.4595 19.4327 18.2056 19.5196 15.9516C19.592 14.0832 20.012 12.1851 20.2437 11.2954C21.1272 8.35932 22.141 6.47608 22.3293 6.1795C22.5176 6.47608 23.7776 8.78935 24.4438 11.2213C25.0956 13.668 25.2259 15.9813 25.197 17.3603Z" fill="#0072BB"></path><path d="M23.7611 29.499H17.562V33.715L17.5768 33.7C19.0345 32.22 21.4052 32.22 22.8629 33.7C24.3207 35.1801 24.3207 37.5871 22.8629 39.0671L22.8482 39.0821C22.8482 39.0821 22.8335 39.097 22.8188 39.097C21.361 40.5621 19.4615 41.2947 17.562 41.2947C15.6478 41.2947 13.7336 40.5472 12.2759 39.0671C9.69904 36.4509 9.40455 32.4143 11.3629 29.4691C11.628 29.0655 11.9372 28.6917 12.2759 28.3479C13.7336 26.8678 15.6478 26.1203 17.562 26.1203V15.999C10.2144 15.999 4.26562 22.0389 4.26562 29.499C4.26562 36.9592 10.2144 42.999 17.562 42.999C21.3905 42.999 24.836 41.3545 27.2656 38.7233V29.499H23.7611Z" fill="#0072BB"></path><path d="M35.6508 29.5947H39.0544V42.9998H36.4329V34.592H36.346L34.9991 42.9998H32.899L31.5521 34.592H31.4652V42.9998H28.8438V29.5947H32.2473L33.9418 39.0109L35.6508 29.5947Z" fill="#0072BB"></path><path d="M40.5156 31.9821C40.5156 31.0479 40.6315 29.5947 42.4564 29.5947H44.6288C46.4682 29.5947 46.5696 31.0479 46.5696 31.9821V40.5976C46.5696 41.5318 46.4537 42.985 44.6288 42.985H42.4564C40.617 42.985 40.5156 41.5318 40.5156 40.5976V31.9821ZM43.9481 31.5076C43.9481 31.2704 43.7743 31.0628 43.5426 31.0628C43.3978 31.0628 43.1371 31.1517 43.1371 31.5076V41.087C43.1371 41.428 43.3978 41.5318 43.5426 41.5318C43.7888 41.5318 43.9481 41.3242 43.9481 41.087V31.5076Z" fill="#0072BB"></path><path d="M50.6605 38.3159V41.0889C50.6605 41.43 50.9212 41.5338 51.066 41.5338C51.3122 41.5338 51.4716 41.3262 51.4716 41.0889V36.8331H49.357V35.365H51.4716V31.5096C51.4716 31.2723 51.2978 31.0647 51.066 31.0647C50.9212 31.0647 50.6605 31.1537 50.6605 31.5096V33.8822H48.0391V31.9841C48.0391 31.0499 48.1549 29.5967 49.9798 29.5967H52.1523C53.9916 29.5967 54.093 31.0499 54.093 31.9841V40.5996C54.093 41.5338 53.9771 42.987 52.1523 42.987H49.9798C48.1404 42.987 48.0391 41.5338 48.0391 40.5996V38.3011H50.6605V38.3159Z" fill="#0072BB"></path><path d="M55.5457 29.5947H58.1672V35.3631H58.2541L59.1086 29.5947H61.73L60.3976 36.0304L61.9907 42.9998H59.3693L58.2396 36.8311H58.1527V42.9998H55.5312V29.5947H55.5457Z" fill="#0072BB"></path></svg> 