<?xml version="1.0" encoding="UTF-8"?> <svg xmlns="http://www.w3.org/2000/svg" width="101" height="101" viewBox="0 0 101 101" fill="none"><path d="M94.0714 5H7.92857C7.41708 5 6.92654 5.20319 6.56487 5.56487C6.20319 5.92654 6 6.41708 6 6.92857V93.0714C6 93.5829 6.20319 94.0735 6.56487 94.4351C6.92654 94.7968 7.41708 95 7.92857 95H94.0714C94.5829 95 95.0735 94.7968 95.4351 94.4351C95.7968 94.0735 96 93.5829 96 93.0714V6.92857C96 6.41708 95.7968 5.92654 95.4351 5.56487C95.0735 5.20319 94.5829 5 94.0714 5ZM93.1429 92.1429H8.85714V7.85714H93.1429V92.1429Z" fill="#2F79BD"></path><path d="M39.7609 48H63.2391C63.7061 48 64.154 47.8145 64.4843 47.4843C64.8145 47.154 65 46.7061 65 46.2391V22.7609C65 22.2939 64.8145 21.846 64.4843 21.5157C64.154 21.1855 63.7061 21 63.2391 21H39.7609C39.2939 21 38.846 21.1855 38.5157 21.5157C38.1855 21.846 38 22.2939 38 22.7609V46.2391C38 46.7061 38.1855 47.154 38.5157 47.4843C38.846 47.8145 39.2939 48 39.7609 48ZM41 24H49.7391V28.6304C49.7391 29.0974 49.9246 29.5453 50.2549 29.8756C50.5851 30.2058 51.033 30.3913 51.5 30.3913C51.967 30.3913 52.4149 30.2058 52.7451 29.8756C53.0754 29.5453 53.2609 29.0974 53.2609 28.6304V24H62V45H41V24Z" fill="#2F79BD"></path><path d="M54 53.7609V77.2391C54 77.7061 54.1855 78.154 54.5157 78.4843C54.846 78.8145 55.2939 79 55.7609 79H79.2391C79.7061 79 80.154 78.8145 80.4843 78.4843C80.8145 78.154 81 77.7061 81 77.2391V53.7609C81 53.2939 80.8145 52.846 80.4843 52.5157C80.154 52.1855 79.7061 52 79.2391 52H55.7609C55.2939 52 54.846 52.1855 54.5157 52.5157C54.1855 52.846 54 53.2939 54 53.7609ZM57 55H65.7391L65.7391 59.6304C65.7391 60.0974 65.9246 60.5453 66.2549 60.8756C66.5851 61.2058 67.033 61.3913 67.5 61.3913C67.967 61.3913 68.4149 61.2058 68.7451 60.8756C69.0754 60.5453 69.2609 60.0974 69.2609 59.6304L69.2609 55H78L78 76H57L57 55Z" fill="#2F79BD"></path><path d="M23.7609 79H47.2391C47.7061 79 48.154 78.8145 48.4843 78.4843C48.8145 78.154 49 77.7061 49 77.2391V53.7609C49 53.2939 48.8145 52.846 48.4843 52.5157C48.154 52.1855 47.7061 52 47.2391 52H23.7609C23.2939 52 22.846 52.1855 22.5157 52.5157C22.1855 52.846 22 53.2939 22 53.7609V77.2391C22 77.7061 22.1855 78.154 22.5157 78.4843C22.846 78.8145 23.2939 79 23.7609 79ZM25 55H33.7391V59.6304C33.7391 60.0974 33.9246 60.5453 34.2549 60.8756C34.5851 61.2058 35.033 61.3913 35.5 61.3913C35.967 61.3913 36.4149 61.2058 36.7451 60.8756C37.0754 60.5453 37.2609 60.0974 37.2609 59.6304V55H46V76H25V55Z" fill="#2F79BD"></path></svg> 