<?xml version="1.0" encoding="UTF-8"?> <svg xmlns="http://www.w3.org/2000/svg" viewBox="1950 2450 100 100" width="100" height="100"><path fill="#ffffff" stroke="none" fill-opacity="1" stroke-width="1" stroke-opacity="1" color="rgb(51, 51, 51)" fill-rule="evenodd" font-size-adjust="none" id="tSvgb5010e902e" title="Path 23" d="M 2016.356 2506.285 C 1999.3 2506.285 1985.424 2520.162 1985.424 2537.219 C 1985.424 2538.0474271247463 1986.0955728752538 2538.719 1986.924 2538.719 C 2006.5453333333332 2538.719 2026.1666666666667 2538.719 2045.788 2538.719 C 2046.6164271247462 2538.719 2047.288 2538.0474271247463 2047.288 2537.219C 2047.288 2520.162 2033.412 2506.285 2016.356 2506.285Z M 1988.463 2535.719 C 1989.245 2521.011 2001.457 2509.285 2016.356 2509.285 C 2031.254 2509.285 2043.466 2521.011 2044.248 2535.719C 2025.653 2535.719 2007.058 2535.719 1988.463 2535.719Z M 2015.841 2503.524 C 2025.708 2503.524 2033.736 2495.498 2033.736 2485.631 C 2033.736 2475.764 2025.709 2467.738 2015.841 2467.738 C 2005.976 2467.738 1997.95 2475.764 1997.95 2485.631C 1997.95 2495.498 2005.976 2503.524 2015.841 2503.524Z M 2015.841 2470.739 C 2024.054 2470.739 2030.736 2477.42 2030.736 2485.632 C 2030.736 2493.844 2024.054 2500.525 2015.841 2500.525 C 2007.63 2500.525 2000.95 2493.844 2000.95 2485.632C 2000.95 2477.42 2007.63 2470.739 2015.841 2470.739Z M 1985.431 2512.932 C 1986.431 2512.934 1987.431 2512.936 1988.431 2512.938 C 1988.4433333333334 2506.0886666666665 1988.4556666666667 2499.2393333333334 1988.468 2492.39 C 1988.5 2492.268 1988.517 2492.14 1988.517 2492.011 C 1988.517 2482.9926666666665 1988.517 2473.9743333333336 1988.517 2464.956 C 1988.518 2464.3233333333333 1988.519 2463.690666666667 1988.52 2463.058 C 1988.519 2463.058 1988.518 2463.058 1988.517 2463.058 C 1988.517 2463.0403333333334 1988.517 2463.0226666666667 1988.517 2463.005 C 1988.5181367423463 2461.9255818636834 1987.4124306998553 2461.1988242388293 1986.422 2461.628 C 1975.554 2466.326 1964.686 2471.024 1953.818 2475.722 C 1952.7579846384763 2476.183799407311 1952.5953875569382 2477.6199243276765 1953.5253252558841 2478.3070248555023 C 1953.6076710416553 2478.367867461337 1953.696022065843 2478.4201309566365 1953.789 2478.463 C 1964.3483333333334 2483.2923333333333 1974.9076666666667 2488.121666666667 1985.467 2492.951C 1985.455 2499.6113333333333 1985.443 2506.2716666666665 1985.431 2512.932Z M 1958.104 2477.137 C 1967.2416666666666 2473.1873333333333 1976.3793333333333 2469.237666666667 1985.517 2465.288 C 1985.5023333333334 2473.4103333333333 1985.4876666666667 2481.5326666666665 1985.473 2489.655C 1976.35 2485.4823333333334 1967.227 2481.3096666666665 1958.104 2477.137Z"></path><defs> </defs></svg> 