<?xml version="1.0" encoding="UTF-8"?> <svg xmlns="http://www.w3.org/2000/svg" width="40" height="40" viewBox="0 0 40 40" fill="none"><rect width="40" height="40" rx="10" fill="#F0F5F7"></rect><path d="M27.1317 20.1917C27.2241 19.7333 27.2241 19.3667 27.2241 19C27.2241 18.6333 27.2241 18.2667 27.1317 17.8083L29.4418 16.1583C29.719 15.975 29.719 15.7 29.6266 15.425L27.3165 11.4833C27.1317 11.2083 26.8545 11.1167 26.5773 11.3L23.8975 12.4917C23.2507 12.0333 22.6038 11.6667 21.8646 11.3L21.5874 8.45833C21.6798 8.18333 21.4949 8 21.2177 8H16.6899C16.4126 8 16.1354 8.18333 16.1354 8.45833L15.8582 11.3C15.119 11.575 14.4721 11.9417 13.8253 12.4917L11.1455 11.3C10.8683 11.2083 10.5911 11.3 10.4063 11.4833L8.09615 15.425C7.91134 15.7 8.00374 15.975 8.28096 16.1583L10.5911 17.8083V19C10.5911 19.3667 10.5911 19.7333 10.6835 20.1917L8.37337 21.8417C8.09615 22.025 8.09615 22.3 8.18856 22.575L10.4987 26.5167C10.6835 26.7917 10.9607 26.8833 11.2379 26.7L13.9177 25.5083C14.5645 25.9667 15.2114 26.3333 15.9506 26.7L16.2278 29.5417C16.2278 29.8167 16.5051 30 16.7823 30H21.3101C21.5874 30 21.8646 29.8167 21.8646 29.5417L22.1418 26.7C22.881 26.425 23.5279 26.0583 24.1747 25.5083L26.8545 26.7C27.1317 26.7917 27.4089 26.7 27.5937 26.5167L29.9039 22.575C30.0887 22.3 29.9963 22.025 29.719 21.8417L27.1317 20.1917ZM18.9076 23.5833C16.3202 23.5833 14.2873 21.5667 14.2873 19C14.2873 16.4333 16.3202 14.4167 18.9076 14.4167C21.4949 14.4167 23.5279 16.4333 23.5279 19C23.5279 21.5667 21.4949 23.5833 18.9076 23.5833Z" fill="#0094F9"></path><circle cx="26" cy="26" r="6" fill="#FF5534"></circle><path d="M23 25.5L25 27.5L29 24" stroke="white" stroke-width="2"></path></svg> 