<?xml version="1.0" encoding="UTF-8"?> <svg xmlns="http://www.w3.org/2000/svg" width="100" height="100" viewBox="0 0 100 100" fill="none"><path fill-rule="evenodd" clip-rule="evenodd" d="M63.5 44.5005V26.5805C64.0719 26.2503 64.5189 25.7406 64.7716 25.1305C65.0244 24.5203 65.0687 23.8439 64.8978 23.206C64.7268 22.5681 64.3502 22.0044 63.8263 21.6024C63.3024 21.2003 62.6604 20.9824 62 20.9824C61.3396 20.9824 60.6977 21.2003 60.1737 21.6024C59.6498 22.0044 59.2731 22.5681 59.1022 23.206C58.9313 23.8439 58.9756 24.5203 59.2284 25.1305C59.4811 25.7406 59.9281 26.2503 60.5 26.5805V46.0005C60.5 46.3983 60.658 46.7799 60.9393 47.0612C61.2206 47.3425 61.6022 47.5005 62 47.5005H65.5V62.5005H61C60.6022 62.5005 60.2206 62.6585 59.9393 62.9398C59.658 63.2211 59.5 63.6027 59.5 64.0005V80.4205C58.9281 80.7507 58.4811 81.2604 58.2284 81.8705C57.9756 82.4807 57.9313 83.1571 58.1022 83.795C58.2731 84.4329 58.6498 84.9966 59.1737 85.3986C59.6977 85.8007 60.3396 86.0186 61 86.0186C61.6604 86.0186 62.3024 85.8007 62.8263 85.3986C63.3502 84.9966 63.7269 84.4329 63.8978 83.795C64.0687 83.1571 64.0244 82.4807 63.7716 81.8705C63.5189 81.2604 63.0719 80.7507 62.5 80.4205V65.5005H73.42C73.7502 66.0724 74.2599 66.5194 74.87 66.7721C75.4802 67.0249 76.1566 67.0692 76.7945 66.8983C77.4324 66.7273 77.9961 66.3507 78.3981 65.8268C78.8002 65.3028 79.0181 64.6609 79.0181 64.0005C79.0181 63.3401 78.8002 62.6981 78.3981 62.1742C77.9961 61.6503 77.4324 61.2736 76.7945 61.1027C76.1566 60.9318 75.4802 60.9761 74.87 61.2289C74.2599 61.4816 73.7502 61.9286 73.42 62.5005H68.5V47.5005H80.42C80.7502 48.0724 81.2599 48.5194 81.87 48.7721C82.4802 49.0249 83.1566 49.0692 83.7945 48.8983C84.4324 48.7274 84.9961 48.3507 85.3981 47.8268C85.8002 47.3028 86.0181 46.6609 86.0181 46.0005C86.0181 45.3401 85.8002 44.6981 85.3981 44.1742C84.9961 43.6503 84.4324 43.2736 83.7945 43.1027C83.1566 42.9318 82.4802 42.9761 81.87 43.2289C81.2599 43.4816 80.7502 43.9286 80.42 44.5005H63.5Z" fill="#0079C2"></path><path fill-rule="evenodd" clip-rule="evenodd" d="M95 31.2H79.21V11C79.21 10.6022 79.052 10.2206 78.7707 9.93934C78.4894 9.65804 78.1078 9.5 77.71 9.5H22.29C21.8922 9.5 21.5106 9.65804 21.2293 9.93934C20.948 10.2206 20.79 10.6022 20.79 11V31.2H5C4.80302 31.2 4.60796 31.2388 4.42597 31.3142C4.24399 31.3896 4.07863 31.5001 3.93934 31.6393C3.80005 31.7786 3.68956 31.944 3.61418 32.126C3.5388 32.308 3.5 32.503 3.5 32.7V54.45C3.5 54.8478 3.65804 55.2294 3.93934 55.5107C4.22064 55.792 4.60218 55.95 5 55.95H11.23V77.18C11.23 77.5778 11.388 77.9594 11.6693 78.2407C11.9506 78.522 12.3322 78.68 12.73 78.68H27V92C27 92.3978 27.158 92.7794 27.4393 93.0607C27.7206 93.342 28.1022 93.5 28.5 93.5H71.5C71.8978 93.5 72.2794 93.342 72.5607 93.0607C72.842 92.7794 73 92.3978 73 92V78.68H87.27C87.6678 78.68 88.0494 78.522 88.3307 78.2407C88.612 77.9594 88.77 77.5778 88.77 77.18V55.95H95C95.3978 55.95 95.7794 55.792 96.0607 55.5107C96.342 55.2294 96.5 54.8478 96.5 54.45V32.7C96.5 32.3022 96.342 31.9206 96.0607 31.6393C95.7794 31.358 95.3978 31.2 95 31.2ZM28.5 75.68H14.23V54.45C14.23 54.0522 14.072 53.6706 13.7907 53.3893C13.5094 53.108 13.1278 52.95 12.73 52.95H6.5V34.2H22.29C22.6878 34.2 23.0694 34.042 23.3507 33.7607C23.632 33.4794 23.79 33.0978 23.79 32.7V12.5H48.5V90.5H30V77.18C30 76.7822 29.842 76.4006 29.5607 76.1193C29.2794 75.838 28.8978 75.68 28.5 75.68ZM93.5 52.95H87.27C86.8722 52.95 86.4906 53.108 86.2093 53.3893C85.928 53.6706 85.77 54.0522 85.77 54.45V75.68H71.5C71.1022 75.68 70.7206 75.838 70.4393 76.1193C70.158 76.4006 70 76.7822 70 77.18V90.5H51.5V12.5H76.21V32.7C76.21 33.0978 76.368 33.4794 76.6493 33.7607C76.9306 34.042 77.3122 34.2 77.71 34.2H93.5V52.95Z" fill="#0079C2"></path><path fill-rule="evenodd" clip-rule="evenodd" d="M37.5 80.4205C36.9281 80.7507 36.4811 81.2604 36.2284 81.8705C35.9756 82.4807 35.9313 83.1571 36.1022 83.795C36.2732 84.4329 36.6498 84.9966 37.1737 85.3986C37.6977 85.8007 38.3396 86.0186 39 86.0186C39.6604 86.0186 40.3024 85.8007 40.8263 85.3986C41.3502 84.9966 41.7269 84.4329 41.8978 83.795C42.0687 83.1571 42.0244 82.4807 41.7716 81.8705C41.5189 81.2604 41.0719 80.7507 40.5 80.4205V64.0005C40.5 63.6027 40.342 63.2211 40.0607 62.9398C39.7794 62.6585 39.3978 62.5005 39 62.5005H34.5V47.5005H38C38.3978 47.5005 38.7794 47.3425 39.0607 47.0612C39.342 46.7799 39.5 46.3983 39.5 46.0005V26.5805C40.0719 26.2503 40.5189 25.7406 40.7716 25.1305C41.0244 24.5203 41.0687 23.8439 40.8978 23.206C40.7269 22.5681 40.3502 22.0044 39.8263 21.6024C39.3024 21.2003 38.6604 20.9824 38 20.9824C37.3396 20.9824 36.6977 21.2003 36.1737 21.6024C35.6498 22.0044 35.2732 22.5681 35.1022 23.206C34.9313 23.8439 34.9756 24.5203 35.2284 25.1305C35.4811 25.7406 35.9281 26.2503 36.5 26.5805V44.5005H19.58C19.2498 43.9286 18.7401 43.4816 18.13 43.2289C17.5199 42.9761 16.8434 42.9318 16.2055 43.1027C15.5676 43.2736 15.0039 43.6503 14.6019 44.1742C14.1998 44.6981 13.9819 45.3401 13.9819 46.0005C13.9819 46.6609 14.1998 47.3028 14.6019 47.8268C15.0039 48.3507 15.5676 48.7274 16.2055 48.8983C16.8434 49.0692 17.5199 49.0249 18.13 48.7721C18.7401 48.5194 19.2498 48.0724 19.58 47.5005H31.5V62.5005H26.58C26.2498 61.9286 25.7401 61.4816 25.13 61.2289C24.5199 60.9761 23.8434 60.9318 23.2055 61.1027C22.5676 61.2736 22.0039 61.6503 21.6019 62.1742C21.1998 62.6981 20.9819 63.3401 20.9819 64.0005C20.9819 64.6609 21.1998 65.3028 21.6019 65.8268C22.0039 66.3507 22.5676 66.7273 23.2055 66.8983C23.8434 67.0692 24.5199 67.0249 25.13 66.7721C25.7401 66.5194 26.2498 66.0724 26.58 65.5005H37.5V80.4205Z" fill="#0079C2"></path></svg> 