<?xml version="1.0" encoding="UTF-8"?> <svg xmlns="http://www.w3.org/2000/svg" width="56" height="56" viewBox="0 0 56 56" fill="none"><rect width="56" height="56" rx="10" fill="#EFF5FB"></rect><g clip-path="url(#clip0_1411_1471)"><path d="M28 42L28 33" stroke="url(#paint0_linear_1411_1471)"></path><path d="M16 44L39 44" stroke="url(#paint1_linear_1411_1471)"></path><path d="M15 44C15 42.8954 15.8954 42 17 42C18.1046 42 19 42.8954 19 44C19 45.1046 18.1046 46 17 46C15.8954 46 15 45.1046 15 44Z" fill="#FF5534"></path><path d="M26 44C26 42.8954 26.8954 42 28 42C29.1046 42 30 42.8954 30 44C30 45.1046 29.1046 46 28 46C26.8954 46 26 45.1046 26 44Z" fill="#FF5534"></path><path d="M37 44C37 42.8954 37.8954 42 39 42C40.1046 42 41 42.8954 41 44C41 45.1046 40.1046 46 39 46C37.8954 46 37 45.1046 37 44Z" fill="#FF5534"></path><path d="M39 35H19C17.8954 35 17 34.1046 17 33V21L28 10L39 21V35Z" fill="#0094F9"></path><path d="M24 25.2222L26.8571 28L32 23" stroke="white" stroke-width="2"></path></g><defs><linearGradient id="paint0_linear_1411_1471" x1="27.4516" y1="42" x2="27.4516" y2="32.5714" gradientUnits="userSpaceOnUse"><stop stop-color="#5CBAF6"></stop><stop offset="1" stop-color="#D6EAFF"></stop></linearGradient><linearGradient id="paint1_linear_1411_1471" x1="16" y1="43.4516" x2="40.0952" y2="43.4516" gradientUnits="userSpaceOnUse"><stop stop-color="#5CBAF6"></stop><stop offset="1" stop-color="#D6EAFF"></stop></linearGradient><clipPath id="clip0_1411_1471"><rect x="4" y="4" width="48" height="48" rx="8" fill="white"></rect></clipPath></defs></svg> 