<?xml version="1.0" encoding="UTF-8"?> <svg xmlns="http://www.w3.org/2000/svg" width="35" height="41" viewBox="0 0 35 41" fill="none"><path d="M4.16883 23.9124C2.86182 26.3124 3.86387 30.5895 4.63905 32.5272C5.84031 30.7889 7.30185 29.3618 9.60136 29.773C11.2322 30.0646 17.063 33.3328 20.8999 30.5806L30.7999 22.4413C31.2428 22.0076 32.5169 20.958 31.8117 19.8359C31.1407 18.7682 29.7124 18.8861 28.047 20.1681L22.3695 24.0942C22.0648 22.4591 18.0376 22.9742 13.2555 21.2861C8.80035 19.7135 5.79387 20.9285 4.16883 23.9124Z" fill="url(#paint0_linear_20007_289479)"></path><path d="M5.9657 25.7054C4.6587 28.1054 5.66075 32.3825 6.43593 34.3202C7.63719 32.5818 9.09873 31.1548 11.3982 31.566C13.029 31.8576 18.8598 35.1258 22.6967 32.3736L32.5968 24.2343C33.0396 23.8006 34.3137 22.751 33.6086 21.6289C32.9376 20.5612 31.5093 20.6791 29.8439 21.9611L24.1664 25.8871C23.8617 24.2521 19.8345 24.7672 15.0523 23.0791C10.5972 21.5065 7.59075 22.7214 5.9657 25.7054Z" fill="#0094F9"></path><path d="M17.0051 26C19.4364 26.9159 20.4988 26.9152 23.4988 26.5018C20.4988 27.5018 16.0231 27.5238 15.0055 26.5018C14.5057 26 15.4991 25.5 17.0051 26Z" fill="white"></path><path fill-rule="evenodd" clip-rule="evenodd" d="M14.4284 4.47326C15.3417 3.52993 16.5803 3 17.8718 3C19.1633 3 20.4019 3.52993 21.3153 4.47326C21.4939 4.65709 21.7237 4.88587 22.0049 5.1596C22.2855 4.88587 22.515 4.65709 22.6936 4.47326C23.6032 3.53801 24.8332 3.01139 26.1164 3.00784C27.3997 3.00429 28.6324 3.52409 29.5468 4.4543C30.4612 5.3845 30.9833 6.64993 30.9996 7.97558C31.016 9.30123 30.5252 10.58 29.6341 11.534L22.6927 18.7054C22.51 18.894 22.2623 19 22.004 19C21.7457 19 21.4979 18.894 21.3153 18.7054L14.3738 11.535C13.4835 10.5864 12.9901 9.31403 13.0001 7.99277C13.0102 6.6715 13.5238 5.40733 14.4284 4.47326Z" fill="#FF5534"></path><defs><linearGradient id="paint0_linear_20007_289479" x1="29.019" y1="15.9366" x2="3.92314" y2="33.9377" gradientUnits="userSpaceOnUse"><stop stop-color="#5CBAF6"></stop><stop offset="1" stop-color="#D6EAFF"></stop></linearGradient></defs></svg> 