<?xml version="1.0" encoding="UTF-8"?> <svg xmlns="http://www.w3.org/2000/svg" width="36" height="36" viewBox="0 0 36 36" fill="none"><path d="M36 18C36 27.9411 27.9411 36 18 36C8.05887 36 0 27.9411 0 18C0 8.05887 8.05887 0 18 0C27.9411 0 36 8.05887 36 18Z" fill="url(#paint0_linear_20004_291986)"></path><circle cx="18" cy="18" r="15" fill="#0094F9"></circle><rect x="14" y="13" width="9" height="4" transform="rotate(90 14 13)" fill="white"></rect><rect x="20" y="13" width="9" height="4" transform="rotate(90 20 13)" fill="white"></rect><rect x="26" y="13" width="9" height="4" transform="rotate(90 26 13)" fill="white"></rect><circle cx="29" cy="27" r="7" fill="#FF5534"></circle><path d="M33 27L29 31V29L31 27L29 25V23L33 27Z" fill="white"></path><path d="M25 26H32V28H25V26Z" fill="white"></path><defs><linearGradient id="paint0_linear_20004_291986" x1="19.7439" y1="0" x2="19.7439" y2="37.7143" gradientUnits="userSpaceOnUse"><stop stop-color="#5CBAF6"></stop><stop offset="1" stop-color="#D6EAFF"></stop></linearGradient></defs></svg> 