<?xml version="1.0" encoding="UTF-8"?> <svg xmlns="http://www.w3.org/2000/svg" width="40" height="40" viewBox="0 0 40 40" fill="none"><path d="M26.2609 8H20V11H26.2609V8Z" fill="#FF5534"></path><path d="M14.0001 17.0001C14 16.4478 14.4478 16 15.0001 16H24.9999C25.5522 16 25.9999 16.4477 25.9999 16.9999L26 18H14.0001L14.0001 17.0001Z" fill="url(#paint0_linear_19054_285309)"></path><path d="M11 19C11 18.4477 11.4477 18 12 18H28C28.5523 18 29 18.4477 29 19V20H11V19Z" fill="#0072BB"></path><path d="M8.00007 22.0002C8.00008 21.4479 8.44778 21.0002 9.00006 21.0002L31 21C31.5523 21 32 21.4477 32 22V32H8L8.00007 22.0002Z" fill="#0094F9"></path><path d="M18.0001 13.0001C18 12.4478 18.4478 12 19.0001 12H21C21.5523 12 22 12.4477 22 13V14H18.0002L18.0001 13.0001Z" fill="#0094F9"></path><path d="M12.1719 25C12.1719 24.4477 12.6196 24 13.1719 24H14.3023C14.8546 24 15.3023 24.4477 15.3023 25V32.0001H12.1719V25Z" fill="url(#paint1_linear_19054_285309)"></path><path d="M18.4375 25C18.4375 24.4477 18.8852 24 19.4375 24H20.5679C21.1202 24 21.5679 24.4477 21.5679 25V32.0001H18.4375V25Z" fill="url(#paint2_linear_19054_285309)"></path><path d="M24.6953 25C24.6953 24.4477 25.143 24 25.6953 24H26.8257C27.378 24 27.8257 24.4477 27.8257 25V32.0001H24.6953V25Z" fill="url(#paint3_linear_19054_285309)"></path><path d="M16 15C16 14.4477 16.4477 14 17 14H23C23.5523 14 24 14.4477 24 15V16H16V15Z" fill="url(#paint4_linear_19054_285309)"></path><defs><linearGradient id="paint0_linear_19054_285309" x1="20.5813" y1="16" x2="20.5813" y2="18.0952" gradientUnits="userSpaceOnUse"><stop stop-color="#5CBAF6"></stop><stop offset="1" stop-color="#D6EAFF"></stop></linearGradient><linearGradient id="paint1_linear_19054_285309" x1="13.8887" y1="24" x2="13.8887" y2="32.3811" gradientUnits="userSpaceOnUse"><stop stop-color="#5CBAF6"></stop><stop offset="1" stop-color="#D6EAFF"></stop></linearGradient><linearGradient id="paint2_linear_19054_285309" x1="20.1544" y1="24" x2="20.1544" y2="32.3811" gradientUnits="userSpaceOnUse"><stop stop-color="#5CBAF6"></stop><stop offset="1" stop-color="#D6EAFF"></stop></linearGradient><linearGradient id="paint3_linear_19054_285309" x1="26.4122" y1="24" x2="26.4122" y2="32.3811" gradientUnits="userSpaceOnUse"><stop stop-color="#5CBAF6"></stop><stop offset="1" stop-color="#D6EAFF"></stop></linearGradient><linearGradient id="paint4_linear_19054_285309" x1="20.3875" y1="14" x2="20.3875" y2="16.0952" gradientUnits="userSpaceOnUse"><stop stop-color="#5CBAF6"></stop><stop offset="1" stop-color="#D6EAFF"></stop></linearGradient></defs></svg> 