<?xml version="1.0" encoding="UTF-8"?> <svg xmlns="http://www.w3.org/2000/svg" width="48" height="48" viewBox="0 0 48 48" fill="none"><path d="M22.5 11L37 21L23 28.5L8 21L22.5 11Z" fill="url(#paint0_linear_20010_289901)"></path><path d="M14 32V8H26L32 14V34H16C14.8954 34 14 33.1046 14 32Z" fill="#0094F9"></path><path d="M26 12V8L32 14H28C26.8954 14 26 13.1046 26 12Z" fill="url(#paint1_linear_20010_289901)"></path><path d="M19 19V17H27V19H19Z" fill="white"></path><path d="M19 23V21H24V23H19Z" fill="white"></path><path d="M11 38C9.34315 38 8 36.6569 8 35V21L23 28L37 21V38H11Z" fill="url(#paint2_linear_20010_289901)"></path><circle cx="33" cy="33" r="7" fill="#FF5534"></circle><path d="M32 34L32 29L34 29L34 34L32 34Z" fill="white"></path><circle cx="33" cy="36" r="1" transform="rotate(180 33 36)" fill="white"></circle><defs><linearGradient id="paint0_linear_20010_289901" x1="23.9048" y1="11" x2="23.9048" y2="29.3333" gradientUnits="userSpaceOnUse"><stop stop-color="#5CBAF6"></stop><stop offset="1" stop-color="#D6EAFF"></stop></linearGradient><linearGradient id="paint1_linear_20010_289901" x1="29.2907" y1="8" x2="29.2907" y2="14.2857" gradientUnits="userSpaceOnUse"><stop stop-color="#5CBAF6"></stop><stop offset="1" stop-color="#D6EAFF"></stop></linearGradient><linearGradient id="paint2_linear_20010_289901" x1="23.9048" y1="21" x2="23.9048" y2="38.8095" gradientUnits="userSpaceOnUse"><stop stop-color="#5CBAF6"></stop><stop offset="1" stop-color="#D6EAFF"></stop></linearGradient></defs></svg> 