<?xml version="1.0" encoding="UTF-8"?> <svg xmlns="http://www.w3.org/2000/svg" width="26" height="36" viewBox="0 0 26 36" fill="none"><path d="M0 28V0H16L22 6V31H3C1.34315 31 0 29.6569 0 28Z" fill="url(#paint0_linear_20007_289511)"></path><circle cx="11" cy="15" r="6" fill="white"></circle><path d="M8 15.58V14.55H11.39C11.4433 14.55 11.5083 14.5483 11.585 14.545C11.665 14.5383 11.7533 14.5217 11.85 14.495C12.1267 14.4183 12.3267 14.28 12.45 14.08C12.5733 13.8767 12.635 13.64 12.635 13.37C12.635 13.2067 12.61 13.0433 12.56 12.88C12.5133 12.7133 12.4317 12.5667 12.315 12.44C12.2017 12.3133 12.0467 12.225 11.85 12.175C11.7633 12.1517 11.675 12.1383 11.585 12.135C11.4983 12.1317 11.4333 12.13 11.39 12.13H9.505V11H11.44C11.4767 11 11.5483 11.0017 11.655 11.005C11.765 11.0083 11.8867 11.02 12.02 11.04C12.4333 11.1033 12.775 11.2417 13.045 11.455C13.3183 11.6683 13.52 11.9383 13.65 12.265C13.7833 12.5883 13.85 12.945 13.85 13.335C13.85 13.9317 13.6983 14.425 13.395 14.815C13.0917 15.205 12.6333 15.4467 12.02 15.54C11.8867 15.5567 11.765 15.5683 11.655 15.575C11.5483 15.5783 11.4767 15.58 11.44 15.58H8ZM8 17.22V16.275H12.265V17.22H8ZM8.715 18.2V11H9.92V18.2H8.715Z" fill="#FF5534"></path><path d="M16 4V0L19 3L22 6H18C16.8954 6 16 5.10457 16 4Z" fill="#0094F9"></path><path d="M12 19V34C12 35.1046 12.8954 36 14 36H26V19H12Z" fill="#0094F9"></path><path d="M24 26H14V21H24V26Z" fill="white"></path><path d="M16 28V30L14 30V28H16Z" fill="white"></path><path d="M16 32V34L14 34V32H16Z" fill="white"></path><path d="M20 28V30L18 30V28H20Z" fill="white"></path><path d="M24 28V34L22 34V28H24Z" fill="white"></path><path d="M20 32V34L18 34V32H20Z" fill="white"></path><defs><linearGradient id="paint0_linear_20007_289511" x1="12.0657" y1="0" x2="12.0657" y2="32.4762" gradientUnits="userSpaceOnUse"><stop stop-color="#5CBAF6"></stop><stop offset="1" stop-color="#D6EAFF"></stop></linearGradient></defs></svg> 