<?xml version="1.0" encoding="UTF-8"?> <svg xmlns="http://www.w3.org/2000/svg" width="14" height="14" viewBox="0 0 14 14" fill="none"><path d="M4.75016 1.55H3.31016C2.41407 1.55 1.9657 1.55 1.62344 1.72439C1.32238 1.87779 1.07779 2.12238 0.92439 2.42344C0.75 2.7657 0.75 3.21407 0.75 4.11016V10.1902C0.75 11.0862 0.75 11.534 0.92439 11.8763C1.07779 12.1774 1.32238 12.4224 1.62344 12.5758C1.96536 12.75 2.41319 12.75 3.30753 12.75H9.39247C10.2868 12.75 10.734 12.75 11.0759 12.5758C11.377 12.4224 11.6224 12.1771 11.7758 11.8761C11.95 11.5341 11.95 11.0868 11.95 10.1925V8.75M12.75 4.75V0.75M12.75 0.75H8.75M12.75 0.75L7.15 6.35" stroke="#0F0F0F" stroke-width="1.5" stroke-linecap="round" stroke-linejoin="round"></path></svg> 