<?xml version="1.0" encoding="UTF-8"?> <svg xmlns="http://www.w3.org/2000/svg" width="40" height="40" viewBox="0 0 40 40" fill="none"><rect width="40" height="40" rx="8" fill="white"></rect><path d="M13.2623 17.1829C15.5747 18.6942 18.6716 18.0501 20.1829 15.7377C21.6942 13.4253 21.0501 10.3284 18.7377 8.81709C16.4253 7.30579 13.3284 7.94995 11.8171 10.2623C10.3058 12.5747 10.9499 15.6716 13.2623 17.1829Z" fill="url(#paint0_linear_20013_289506)"></path><path d="M8 24C8 21.7909 9.79086 20 12 20H20C22.2091 20 24 21.7909 24 24V32H8V24Z" fill="url(#paint1_linear_20013_289506)"></path><path d="M14 20L16 24L18 20H14Z" fill="#FF5534"></path><path d="M19 26H32V32H20C19.4477 32 19 31.5523 19 31V26Z" fill="#0094F9"></path><rect x="19" y="22" width="13" height="3" fill="#0094F9"></rect><path d="M24 27H27V28H24V27Z" fill="white"></path><path d="M24 21H27V20H24V21Z" fill="#0094F9"></path><defs><linearGradient id="paint0_linear_20013_289506" x1="16.4844" y1="8" x2="16.4844" y2="18.4762" gradientUnits="userSpaceOnUse"><stop stop-color="#5CBAF6"></stop><stop offset="1" stop-color="#D6EAFF"></stop></linearGradient><linearGradient id="paint1_linear_20013_289506" x1="16.7751" y1="20" x2="16.7751" y2="32.5714" gradientUnits="userSpaceOnUse"><stop stop-color="#5CBAF6"></stop><stop offset="1" stop-color="#D6EAFF"></stop></linearGradient></defs></svg> 