<?xml version="1.0" encoding="UTF-8"?> <svg xmlns="http://www.w3.org/2000/svg" width="26" height="36" viewBox="0 0 26 36" fill="none"><path d="M13 32L13 23" stroke="url(#paint0_linear_20009_289573)"></path><path d="M1 34L24 34" stroke="url(#paint1_linear_20009_289573)"></path><path d="M0 34C0 32.8954 0.895431 32 2 32V32C3.10457 32 4 32.8954 4 34V34C4 35.1046 3.10457 36 2 36V36C0.895431 36 0 35.1046 0 34V34Z" fill="#FF5534"></path><path d="M11 34C11 32.8954 11.8954 32 13 32V32C14.1046 32 15 32.8954 15 34V34C15 35.1046 14.1046 36 13 36V36C11.8954 36 11 35.1046 11 34V34Z" fill="#FF5534"></path><path d="M22 34C22 32.8954 22.8954 32 24 32V32C25.1046 32 26 32.8954 26 34V34C26 35.1046 25.1046 36 24 36V36C22.8954 36 22 35.1046 22 34V34Z" fill="#FF5534"></path><path d="M24 25H4C2.89543 25 2 24.1046 2 23V11L13 0L24 11V25Z" fill="#0094F9"></path><path d="M9 15.2222L11.8571 18L17 13" stroke="white" stroke-width="2"></path><defs><linearGradient id="paint0_linear_20009_289573" x1="12.4516" y1="32" x2="12.4516" y2="22.5714" gradientUnits="userSpaceOnUse"><stop stop-color="#5CBAF6"></stop><stop offset="1" stop-color="#D6EAFF"></stop></linearGradient><linearGradient id="paint1_linear_20009_289573" x1="1" y1="33.4516" x2="25.0952" y2="33.4516" gradientUnits="userSpaceOnUse"><stop stop-color="#5CBAF6"></stop><stop offset="1" stop-color="#D6EAFF"></stop></linearGradient></defs></svg> 