<?xml version="1.0" encoding="UTF-8"?> <svg xmlns="http://www.w3.org/2000/svg" width="48" height="48" viewBox="0 0 48 48" fill="none"><path d="M24 6C33.9411 6 42 14.0589 42 24C42 33.9411 33.9411 42 24 42C14.0589 42 6 33.9411 6 24C6 14.0589 14.0589 6 24 6Z" fill="url(#paint0_linear_4023_984)"></path><circle cx="24" cy="24" r="15" fill="#0094F9"></circle><rect x="20" y="19" width="9" height="4" transform="rotate(90 20 19)" fill="white"></rect><rect x="26" y="19" width="9" height="4" transform="rotate(90 26 19)" fill="white"></rect><rect x="32" y="19" width="9" height="4" transform="rotate(90 32 19)" fill="white"></rect><circle cx="35" cy="33" r="7" fill="#FF5534"></circle><path d="M39 33L35 37V35L37 33L35 31V29L39 33Z" fill="white"></path><path d="M31 32H38V34H31V32Z" fill="white"></path><defs><linearGradient id="paint0_linear_4023_984" x1="25.7439" y1="6" x2="25.7439" y2="43.7143" gradientUnits="userSpaceOnUse"><stop stop-color="#5CBAF6"></stop><stop offset="1" stop-color="#D6EAFF"></stop></linearGradient></defs></svg> 