<?xml version="1.0" encoding="UTF-8"?> <svg xmlns="http://www.w3.org/2000/svg" width="40" height="40" viewBox="0 0 40 40" fill="none"><rect width="40" height="40" rx="8" fill="white"></rect><path d="M28 30H10C8.89543 30 8 29.1046 8 28V18L18 8L28 18V30Z" fill="url(#paint0_linear_20013_289537)"></path><path d="M32 32H13C11.8954 32 11 31.1046 11 30V19L21.5 8L32 19V32Z" fill="#0094F9"></path><path d="M18.5792 19.1654C20.0398 18.5791 20.8618 19.5801 21.5115 20.2558C22.1612 19.5811 23.2465 18.6789 24.6365 19.1654C26.5 20 26.708 22.9521 23.2465 25.5167L21.4748 27.0003L19.7362 25.5167C16.3127 22.9521 16.5002 20 18.5792 19.1654Z" fill="white"></path><path d="M19.2251 21.1238C20.1179 20.707 21.0004 21.4348 21.5057 21.9416C22.011 21.4356 22.8552 20.7294 23.7293 21.1238C25.5483 21.9397 25.5475 23.9638 22.8552 25.8873L21.4772 27L20.1249 25.8873C17.4623 23.9638 17.4667 21.9446 19.2251 21.1238Z" fill="#FF5534"></path><defs><linearGradient id="paint0_linear_20013_289537" x1="18.9689" y1="8" x2="18.9689" y2="31.0476" gradientUnits="userSpaceOnUse"><stop stop-color="#5CBAF6"></stop><stop offset="1" stop-color="#D6EAFF"></stop></linearGradient></defs></svg> 