<?xml version="1.0" encoding="UTF-8"?> <svg xmlns="http://www.w3.org/2000/svg" width="32" height="32" viewBox="0 0 32 32" fill="none"><path d="M0 29V0H32V32L3 32C1.34315 32 0 30.6569 0 29Z" fill="#0094F9"></path><path d="M0 29V0H5V32H3C1.34315 32 0 30.6569 0 29Z" fill="url(#paint0_linear_20014_289792)"></path><path d="M13.8701 14.8298C15.5899 15.9538 17.8933 15.4747 19.0173 13.7549C20.1413 12.0351 19.6622 9.73174 17.9424 8.60771C16.2226 7.48368 13.9192 7.96277 12.7952 9.6826C11.6712 11.4024 12.1503 13.7058 13.8701 14.8298Z" fill="white"></path><path d="M9 20.5C9 18.2909 10.7909 16.5 13 16.5H18.8125C21.0216 16.5 22.8125 18.2909 22.8125 20.5V25H9V20.5Z" fill="white"></path><path d="M13.7812 16.5L15.9062 20.2188L18.0312 16.5H13.7812Z" fill="#FF5534"></path><defs><linearGradient id="paint0_linear_20014_289792" x1="2.74221" y1="0" x2="2.74221" y2="33.5238" gradientUnits="userSpaceOnUse"><stop stop-color="#5CBAF6"></stop><stop offset="1" stop-color="#D6EAFF"></stop></linearGradient></defs></svg> 