<?xml version="1.0" encoding="UTF-8"?> <svg xmlns="http://www.w3.org/2000/svg" width="32" height="32" viewBox="0 0 32 32" fill="none"><path d="M25 29H2C0.89543 29 0 28.1046 0 27V13.1818L12.5 0L25 13.1818V29Z" fill="url(#paint0_linear_20004_291985)"></path><path d="M32 32H6C4.89543 32 4 31.1046 4 30V14.5455L18 0L32 14.5455V32Z" fill="#0094F9"></path><circle cx="18.5" cy="18.5" r="9.5" fill="url(#paint1_linear_20004_291985)"></circle><rect x="16" y="16" width="5" height="3" transform="rotate(90 16 16)" fill="white"></rect><rect x="24" y="16" width="5" height="3" transform="rotate(90 24 16)" fill="#FF5534"></rect><rect x="20" y="16" width="5" height="3" transform="rotate(90 20 16)" fill="white"></rect><defs><linearGradient id="paint0_linear_20004_291985" x1="13.7111" y1="0" x2="13.7111" y2="30.381" gradientUnits="userSpaceOnUse"><stop stop-color="#5CBAF6"></stop><stop offset="1" stop-color="#D6EAFF"></stop></linearGradient><linearGradient id="paint1_linear_20004_291985" x1="19.4204" y1="9" x2="19.4204" y2="28.9048" gradientUnits="userSpaceOnUse"><stop stop-color="#5CBAF6"></stop><stop offset="1" stop-color="#D6EAFF"></stop></linearGradient></defs></svg> 