<?xml version="1.0" encoding="UTF-8"?> <svg xmlns="http://www.w3.org/2000/svg" width="48" height="48" viewBox="0 0 48 48" fill="none"><path d="M8 15V8H40V15L8 15Z" fill="url(#paint0_linear_20010_289754)"></path><path d="M8 37V17H40V40L11 40C9.34315 40 8 38.6569 8 37Z" fill="#0094F9"></path><path d="M16 6L16 11L13 11L13 6L16 6Z" fill="#0094F9"></path><path d="M35 6L35 11L32 11L32 6L35 6Z" fill="#0094F9"></path><path d="M35 23L35 27L31 27L31 23L35 23Z" fill="#FF5534"></path><path d="M26 30L26 34L22 34L22 30L26 30Z" fill="white"></path><path d="M26 23L26 27L22 27L22 23L26 23Z" fill="white"></path><path d="M35 30L35 34L31 34L31 30L35 30Z" fill="white"></path><path d="M17 30L17 34L13 34L13 30L17 30Z" fill="white"></path><path d="M17 23L17 27L13 27L13 23L17 23Z" fill="white"></path><defs><linearGradient id="paint0_linear_20010_289754" x1="25.5502" y1="8" x2="25.5502" y2="15.3333" gradientUnits="userSpaceOnUse"><stop stop-color="#5CBAF6"></stop><stop offset="1" stop-color="#D6EAFF"></stop></linearGradient></defs></svg> 