<?xml version="1.0" encoding="UTF-8"?> <svg xmlns="http://www.w3.org/2000/svg" width="40" height="40" viewBox="0 0 40 40" fill="none"><path d="M31.3211 27.0083C32.0628 26.4625 32.2211 25.4208 31.6753 24.6792C31.1294 23.9375 30.0877 23.7792 29.3461 24.325L24.3585 28H19.3335C18.9668 28 18.6668 27.7 18.6668 27.3333C18.6668 26.9667 18.9668 26.6667 19.3335 26.6667H22.6669C23.4044 26.6667 24.0002 26.0708 24.0002 25.3333C24.0002 24.5958 23.4044 24 22.6669 24H16.071C14.8585 24 13.6835 24.4125 12.7376 25.1667L10.8668 26.6667H8C8 26.6667 8.00011 27.2625 8.00011 28V30.6667C8.00011 31.4042 8.59594 32 9.33345 32H22.6877C23.896 32 25.0752 31.6125 26.0502 30.8958L31.3253 27.0083H31.3211Z" fill="#0094F9"></path><path d="M18.6288 8.54557C19.0114 7.86693 19.9886 7.86693 20.3712 8.54557L21.3384 10.2616C21.4811 10.5148 21.7269 10.6934 22.0118 10.7509L23.9427 11.1405C24.7064 11.2946 25.0084 12.224 24.4811 12.7975L23.148 14.2477C22.9513 14.4617 22.8574 14.7506 22.8908 15.0393L23.1169 16.9962C23.2064 17.77 22.4157 18.3445 21.7074 18.0203L19.9162 17.2005C19.6519 17.0795 19.3481 17.0795 19.0838 17.2005L17.2926 18.0203C16.5843 18.3445 15.7936 17.77 15.8831 16.9962L16.1092 15.0393C16.1426 14.7506 16.0487 14.4617 15.852 14.2477L14.5189 12.7975C13.9916 12.224 14.2936 11.2946 15.0573 11.1405L16.9882 10.7509C17.2731 10.6934 17.5189 10.5148 17.6616 10.2616L18.6288 8.54557Z" fill="#FF5534"></path></svg> 