<?xml version="1.0" encoding="UTF-8"?> <svg xmlns="http://www.w3.org/2000/svg" width="21" height="21" viewBox="0 0 21 21" fill="none"><path d="M6.02192 16.2323L7.20722 15.2956L7.21006 15.2933C7.46083 15.0951 7.58671 14.9956 7.72686 14.9249C7.85168 14.8619 7.98439 14.8161 8.12169 14.7882C8.27644 14.7568 8.43841 14.7568 8.76199 14.7568H15.5139C16.3834 14.7568 16.8183 14.7568 17.1507 14.5895C17.4434 14.4422 17.6815 14.2069 17.8306 13.9177C18 13.5893 18 13.1598 18 12.3009V6.45633C18 5.59739 18 5.16727 17.8306 4.83888C17.6815 4.54973 17.4433 4.31482 17.1506 4.16749C16.8178 4 16.3825 4 15.5113 4H6.48904C5.61785 4 5.18193 4 4.84918 4.16749C4.55648 4.31482 4.31868 4.54973 4.16955 4.83888C4 5.16759 4 5.59823 4 6.45886V15.2726C4 16.0914 4 16.5007 4.16991 16.711C4.31768 16.8939 4.54167 17.0003 4.77854 17C5.0509 16.9997 5.37467 16.7438 6.02192 16.2323Z" stroke="white" stroke-linecap="round" stroke-linejoin="round"></path><path d="M11.0249 11.3217C11.217 11.3217 11.4012 11.3891 11.537 11.5089C11.6728 11.6288 11.7491 11.7914 11.7491 11.9609C11.7491 12.1304 11.6728 12.2929 11.537 12.4128C11.4012 12.5327 11.217 12.6 11.0249 12.6C10.8329 12.6 10.6487 12.5327 10.5129 12.4128C10.3771 12.2929 10.3008 12.1304 10.3008 11.9609C10.3008 11.7914 10.3771 11.6288 10.5129 11.5089C10.6487 11.3891 10.8329 11.3217 11.0249 11.3217ZM11.0249 5.25C11.6349 5.25002 12.2258 5.43749 12.6961 5.78022C13.1665 6.12295 13.4869 6.59955 13.6024 7.12813C13.7179 7.65672 13.6212 8.20431 13.329 8.67683C13.0368 9.14936 12.5673 9.51732 12.0011 9.71752C11.9172 9.74474 11.8416 9.78871 11.7802 9.84599C11.7484 9.87794 11.7433 9.91885 11.744 9.96103L11.7491 10.0435C11.7489 10.2064 11.6782 10.3631 11.5515 10.4815C11.4248 10.6 11.2516 10.6713 11.0674 10.6808C10.8831 10.6903 10.7017 10.6374 10.5602 10.5329C10.4186 10.4283 10.3277 10.28 10.3059 10.1183L10.3008 10.0435V9.8837C10.3008 9.14678 10.9742 8.7045 11.4623 8.5313C11.661 8.46129 11.8343 8.34484 11.9636 8.19446C12.0929 8.04409 12.1733 7.86546 12.1963 7.67777C12.2193 7.49008 12.1839 7.30041 12.0939 7.12913C12.004 6.95786 11.8629 6.81144 11.6858 6.70561C11.5086 6.59977 11.3022 6.53852 11.0886 6.52843C10.875 6.51834 10.6623 6.55979 10.4734 6.64833C10.2845 6.73688 10.1265 6.86916 10.0163 7.03099C9.90619 7.19281 9.84806 7.37806 9.8482 7.56685C9.8482 7.73636 9.7719 7.89892 9.6361 8.01878C9.5003 8.13864 9.31611 8.20598 9.12405 8.20598C8.93199 8.20598 8.7478 8.13864 8.612 8.01878C8.4762 7.89892 8.3999 7.73636 8.3999 7.56685C8.3999 6.95238 8.67647 6.36308 9.16876 5.92859C9.66105 5.4941 10.3287 5.25 11.0249 5.25Z" fill="white"></path></svg> 