<?xml version="1.0" encoding="UTF-8"?> <svg xmlns="http://www.w3.org/2000/svg" width="36" height="28" viewBox="0 0 36 28" fill="none"><path d="M0 17V0H28V20L3 20C1.34315 20 0 18.6569 0 17Z" fill="url(#paint0_linear_20014_289760)"></path><path d="M6.6 22.4667L4 19H10L7.4 22.4667C7.2 22.7333 6.8 22.7333 6.6 22.4667Z" fill="#CEE7FE"></path><path d="M8.6 27.4667L6 24H12L9.4 27.4667C9.2 27.7333 8.8 27.7333 8.6 27.4667Z" fill="#0094F9"></path><path d="M3 22V5H31V25L6 25C4.34315 25 3 23.6569 3 22Z" fill="#0094F9"></path><path d="M7 13V11H21V13H7Z" fill="white"></path><path d="M7 17V15H14V17H7Z" fill="white"></path><circle cx="29" cy="21" r="7" fill="#FF5534"></circle><path d="M28 22L28 17L30 17L30 22L28 22Z" fill="white"></path><circle cx="29" cy="24" r="1" transform="rotate(180 29 24)" fill="white"></circle><defs><linearGradient id="paint0_linear_20014_289760" x1="15.3564" y1="0" x2="15.3564" y2="20.9524" gradientUnits="userSpaceOnUse"><stop stop-color="#5CBAF6"></stop><stop offset="1" stop-color="#D6EAFF"></stop></linearGradient></defs></svg> 