<?xml version="1.0" encoding="UTF-8"?> <svg xmlns="http://www.w3.org/2000/svg" width="40" height="40" viewBox="0 0 40 40" fill="none"><path d="M26.75 29.5564H9.5C8.67157 29.5564 8 28.8849 8 28.0564V17.5555L17.375 7.55469L26.75 17.5555V29.5564Z" fill="url(#paint0_linear_4024_727)"></path><path d="M32 31.5547H12.5C11.6716 31.5547 11 30.8831 11 30.0547V18.59L21.5 7.55469L32 18.59V31.5547Z" fill="#0094F9"></path><path d="M21.875 16.6582C23.1679 16.6582 24.4079 17.1721 25.3221 18.0867C26.2364 19.0014 26.75 20.2419 26.75 21.5354C26.75 23.5546 25.2117 25.6702 22.2 27.93C22.1062 28.0004 21.9922 28.0384 21.875 28.0384C21.7578 28.0384 21.6438 28.0004 21.55 27.93C18.5383 25.6702 17 23.5546 17 21.5354C17 20.2419 17.5136 19.0014 18.4279 18.0867C19.3421 17.1721 20.5821 16.6582 21.875 16.6582ZM21.875 19.9097C21.444 19.9097 21.0307 20.081 20.726 20.3859C20.4212 20.6907 20.25 21.1043 20.25 21.5354C20.25 21.9666 20.4212 22.3801 20.726 22.685C21.0307 22.9899 21.444 23.1612 21.875 23.1612C22.306 23.1612 22.7193 22.9899 23.024 22.685C23.3288 22.3801 23.5 21.9666 23.5 21.5354C23.5 21.1043 23.3288 20.6907 23.024 20.3859C22.7193 20.081 22.306 19.9097 21.875 19.9097Z" fill="white"></path><defs><linearGradient id="paint0_linear_4024_727" x1="18.2833" y1="7.55469" x2="18.2833" y2="30.6041" gradientUnits="userSpaceOnUse"><stop stop-color="#5CBAF6"></stop><stop offset="1" stop-color="#D6EAFF"></stop></linearGradient></defs></svg> 