<?xml version="1.0" encoding="UTF-8"?> <svg xmlns="http://www.w3.org/2000/svg" width="32" height="32" viewBox="0 0 32 32" fill="none"><path d="M16 3L32 16L16.5 24L0 16L16 3Z" fill="url(#paint0_linear_20014_289714)"></path><path d="M7 24V0H19L25 6V26H9C7.89543 26 7 25.1046 7 24Z" fill="#0094F9"></path><path d="M19 4V0L25 6H21C19.8954 6 19 5.10457 19 4Z" fill="#FF5534"></path><path d="M12 12V10H20V12H12Z" fill="white"></path><path d="M12 16V14H17V16H12Z" fill="white"></path><path d="M3 32C1.34315 32 0 30.6569 0 29V16L16.5 22L32 16V32H3Z" fill="url(#paint1_linear_20014_289714)"></path><defs><linearGradient id="paint0_linear_20014_289714" x1="17.5502" y1="3" x2="17.5502" y2="25" gradientUnits="userSpaceOnUse"><stop stop-color="#5CBAF6"></stop><stop offset="1" stop-color="#D6EAFF"></stop></linearGradient><linearGradient id="paint1_linear_20014_289714" x1="17.5502" y1="16" x2="17.5502" y2="32.7619" gradientUnits="userSpaceOnUse"><stop stop-color="#5CBAF6"></stop><stop offset="1" stop-color="#D6EAFF"></stop></linearGradient></defs></svg> 