<?xml version="1.0" encoding="UTF-8"?> <svg xmlns="http://www.w3.org/2000/svg" width="36" height="36" viewBox="0 0 36 36" fill="none"><path d="M0 27.375V2.25H23.625L23.625 30.375H3C1.34315 30.375 0 29.0319 0 27.375Z" fill="url(#paint0_linear_20007_289416)"></path><path d="M5.625 30.75V0H25.875L32.625 6.75V33.75L8.625 33.75C6.96815 33.75 5.625 32.4069 5.625 30.75Z" fill="#0094F9"></path><path d="M25.875 4.75V0L29.25 3.375L32.625 6.75H27.875C26.7704 6.75 25.875 5.85457 25.875 4.75Z" fill="url(#paint1_linear_20007_289416)"></path><path d="M11.25 13.5V11.25H22.5V13.5H11.25Z" fill="white"></path><path d="M11.25 18V15.75H18V18H11.25Z" fill="white"></path><circle cx="28.125" cy="28.125" r="7.875" fill="#FF5534"></circle><path d="M24.395 28.618V27.485H28.124C28.1827 27.485 28.2542 27.4832 28.3385 27.4795C28.4265 27.4722 28.5237 27.4538 28.63 27.4245C28.9343 27.3402 29.1543 27.188 29.29 26.968C29.4257 26.7443 29.4935 26.484 29.4935 26.187C29.4935 26.0073 29.466 25.8277 29.411 25.648C29.3597 25.4647 29.2698 25.3033 29.1415 25.164C29.0168 25.0247 28.8463 24.9275 28.63 24.8725C28.5347 24.8468 28.4375 24.8322 28.3385 24.8285C28.2432 24.8248 28.1717 24.823 28.124 24.823H26.0505V23.58H28.179C28.2193 23.58 28.2982 23.5818 28.4155 23.5855C28.5365 23.5892 28.6703 23.602 28.817 23.624C29.2717 23.6937 29.6475 23.8458 29.9445 24.0805C30.2452 24.3152 30.467 24.6122 30.61 24.9715C30.7567 25.3272 30.83 25.7195 30.83 26.1485C30.83 26.8048 30.6632 27.3475 30.3295 27.7765C29.9958 28.2055 29.4917 28.4713 28.817 28.574C28.6703 28.5923 28.5365 28.6052 28.4155 28.6125C28.2982 28.6162 28.2193 28.618 28.179 28.618H24.395ZM24.395 30.422V29.3825H29.0865V30.422H24.395ZM25.1815 31.5V23.58H26.507V31.5H25.1815Z" fill="white"></path><defs><linearGradient id="paint0_linear_20007_289416" x1="12.957" y1="2.25" x2="12.957" y2="31.7143" gradientUnits="userSpaceOnUse"><stop stop-color="#5CBAF6"></stop><stop offset="1" stop-color="#D6EAFF"></stop></linearGradient><linearGradient id="paint1_linear_20007_289416" x1="29.577" y1="0" x2="29.577" y2="7.07143" gradientUnits="userSpaceOnUse"><stop stop-color="#5CBAF6"></stop><stop offset="1" stop-color="#D6EAFF"></stop></linearGradient></defs></svg> 