<svg width="20" height="20" viewBox="0 0 20 20" fill="none" xmlns="http://www.w3.org/2000/svg">
<path d="M9.25 1.25C13.6683 1.25 17.25 4.83172 17.25 9.25C17.25 11.0986 16.6203 12.7987 15.5674 14.1533L18.457 17.043C18.8474 17.4335 18.8475 18.0666 18.457 18.457C18.0666 18.8475 17.4335 18.8474 17.043 18.457L14.1533 15.5674C12.7987 16.6203 11.0986 17.25 9.25 17.25C4.83172 17.25 1.25 13.6683 1.25 9.25C1.25 4.83172 4.83172 1.25 9.25 1.25ZM9.25 3.25C5.93629 3.25 3.25 5.93629 3.25 9.25C3.25 12.5637 5.93629 15.25 9.25 15.25C12.5637 15.25 15.25 12.5637 15.25 9.25C15.25 5.93629 12.5637 3.25 9.25 3.25Z" fill="url(#paint0_radial_1762_8028)"/>
<defs>
<radialGradient id="paint0_radial_1762_8028" cx="0" cy="0" r="1" gradientUnits="userSpaceOnUse" gradientTransform="translate(6.26606 5.65502) rotate(47.9895) scale(15.992 105.148)">
<stop stop-color="#005DC7"/>
<stop offset="1" stop-color="#3384E0"/>
</radialGradient>
</defs>
</svg>
